<svg xmlns="http://www.w3.org/2000/svg" xmlns:xlink="http://www.w3.org/1999/xlink" width="227" height="501" viewBox="0 0 227 501">
  <defs>
    <clipPath id="clip-path">
      <path id="Path_267" data-name="Path 267" d="M276.2,304.056a13.466,13.466,0,0,0-26.931,0L240,403.96a18.325,18.325,0,0,0,18.351,18.325h8.606a18.326,18.326,0,0,0,18.351-18.326Z" transform="translate(-240 -290.59)" fill="none"/>
    </clipPath>
    <clipPath id="clip-ice-cream-img-footer-1">
      <rect width="227" height="501"/>
    </clipPath>
  </defs>
  <g id="ice-cream-img-footer-1" clip-path="url(#clip-ice-cream-img-footer-1)">
    <g id="ice-cream-img7" transform="matrix(0.978, 0.208, -0.208, 0.978, 98.732, -0.014)">
      <g id="Layer_1" data-name="Layer 1" transform="translate(0.005 0.013)">
        <path id="Path_259" data-name="Path 259" d="M247.64,291.49h0Z" transform="translate(-186.375 51.396)" fill="#af7b43"/>
        <path id="Path_260" data-name="Path 260" d="M275.17,305.066a13.466,13.466,0,1,0-26.931,0L239,404.97a18.376,18.376,0,0,0,18.351,18.351h8.631a18.376,18.376,0,0,0,18.351-18.351Z" transform="translate(-199.604 51.565)" fill="#af7b43"/>
        <path id="Path_261" data-name="Path 261" d="M248.66,290.48Z" transform="translate(-184.813 49.85)" fill="#f2bf6d"/>
        <path id="Path_262" data-name="Path 262" d="M276.2,304.056a13.466,13.466,0,0,0-26.931,0L240,403.96a18.325,18.325,0,0,0,18.351,18.325h8.606a18.326,18.326,0,0,0,18.351-18.326Z" transform="translate(-198.073 50.018)" fill="#f2bf6d"/>
        <g id="Group_94" data-name="Group 94" transform="translate(41.927 340.608)" clip-path="url(#clip-path)">
          <path id="Path_263" data-name="Path 263" d="M284.99,324.768c5.72-12.428,21.312-24.805,35.436-22.426,1.62.278,2.329-2.2.683-2.531-12.985-2.177-23.768,5.7-32.222,14.782a39,39,0,0,0-7.391,11.871c-2.708,6.556-2.708,13.871-5.771,20.249-4.556,9.568-15.465,8.2-24.3,8.581-7.872.354-14.124,3.316-17.718,10.53-.734,1.468,1.468,2.759,2.227,1.291,8.1-15.921,27.843-3.771,39.132-14.908C281.978,345.372,281.017,333.374,284.99,324.768Z" transform="translate(-249.858 -277.031)" fill="#f9d895"/>
          <path id="Path_264" data-name="Path 264" d="M305.624,331.979c-4.328,8.454-8.834,14.984-19.034,15.516a19.287,19.287,0,0,0-12.377,4.607c-4.43,3.746-7.923,8.606-12.023,12.656-3.291,3.29-13.618,9.391-14.554.759s9.365-19.844,14.326-26.147c5.543-7.011,11.922-13.516,16.984-20.907.936-1.367-1.291-2.658-2.227-1.291-6.556,9.568-14.959,17.9-21.819,27.286-3.771,5.062-14.149,18.25-8.4,25.134,8.125,9.694,19.692-5.214,24.653-10.732a39.429,39.429,0,0,1,7.441-6.935c3.746-2.531,8.555-1.468,12.656-2.3,8.479-1.671,12.858-9.264,16.5-16.4C308.586,331.8,306.384,330.511,305.624,331.979Z" transform="translate(-232.651 -250.78)" fill="#f9d895"/>
          <path id="Path_265" data-name="Path 265" d="M268.09,326.321c1.493-.734.2-2.936-1.291-2.227a36.12,36.12,0,0,0-15.87,14.579,1.291,1.291,0,0,0,.759,1.9c9.618,1.746,17.414-8.1,23.717-13.82,1.24-1.114-.582-2.911-1.8-1.822-5.062,4.556-11.846,13.213-19.389,13.289a34.475,34.475,0,0,1,13.871-11.9Z" transform="translate(-223.542 -239.503)" fill="#f9d895"/>
          <path id="Path_266" data-name="Path 266" d="M237.928,343.884c8.758,5.7,18.6,6.935,23.59-3.8,7.087-15.187-2.531-29.792-4.328-44.827-.2-1.62-2.759-1.645-2.531,0,1.342,11.238,7.037,21.489,6.885,32.9,0,5.644-1.822,12.934-6.556,16.452s-11.542-.228-15.744-2.961C237.827,340.746,236.511,342.973,237.928,343.884Z" transform="translate(-244.104 -285.313)" fill="#f9d895"/>
        </g>
        <path id="Path_268" data-name="Path 268" d="M275.794,342.656l-3.569-38.6a13.466,13.466,0,0,0-26.931,0l-3.544,38.6Z" transform="translate(-195.393 50.018)" fill="#ecb55c"/>
        <path id="Path_269" data-name="Path 269" d="M331.008,489.393a39.106,39.106,0,0,1-40.22,37.967l-28.045-1.013a39.233,39.233,0,0,1-37.41-40.878l10.327-291.462a39.081,39.081,0,0,1,40.195-37.967l28.045,1.038a39.208,39.208,0,0,1,37.41,40.853Z" transform="translate(-220.588 -156.023)" fill="#b6ef73"/>
        <g id="Group_95" data-name="Group 95" transform="translate(79.525 10.348)" opacity="0.5">
          <path id="Path_270" data-name="Path 270" d="M260.513,181.724c1.114.785,1.24.861.354.228.582.481,1.114.987,1.671,1.519s1.038,1.088,1.544,1.645c2.531,2.531-1.088-1.671,1.038,1.291a66.951,66.951,0,0,1,5.391,9.315,11.593,11.593,0,0,0,15.794,4.151,11.77,11.77,0,0,0,4.151-15.82,56.748,56.748,0,0,0-18.275-22.274c-5.189-3.594-12.808-.987-15.82,4.126a11.77,11.77,0,0,0,4.151,15.82Z" transform="translate(-254.854 -160.112)" fill="#fffcf5"/>
        </g>
        <path id="Path_271" data-name="Path 271" d="M322.769,315.2c-11.491-.3-16.022-9.39-23.59-16.047-8.91-7.8-17.364-16.528-26.6-23.894s-18.984-12.3-30.374-7.112c-9.163,4.151-17.971,12.656-18.68,23.337a10.53,10.53,0,0,0,2.531,8.3c3.189,3.189,4.759,1.164,8.277,0,14.326-4.556,28.349,10,36.879,19.743,14.174,16.225,27.463,30.905,50.066,32.449C344.411,353.626,346.081,315.861,322.769,315.2Z" transform="translate(-223.436 12.369)" fill="#ddf561"/>
        <path id="Path_272" data-name="Path 272" d="M323.229,304.687c-11.491-.3-16.022-9.391-23.59-16.048-8.884-7.8-17.364-16.528-26.6-23.894s-18.984-12.276-30.374-7.113c-9.163,4.151-17.946,12.656-18.68,23.337a10.53,10.53,0,0,0,2.531,8.3c3.189,3.189,4.759,1.164,8.277,0,14.326-4.556,28.349,10,36.879,19.743,14.174,16.225,27.463,30.905,50.091,32.449C344.871,343.109,346.541,305.345,323.229,304.687Z" transform="translate(-222.731 -3.716)" fill="#f66e70"/>
        <path id="Path_273" data-name="Path 273" d="M326.47,318.651c-25.058-1.671-39.84-16.427-55.685-32.7-9.492-9.8-25.084-24.426-40.929-19.92a18.482,18.482,0,0,1-5.973,1.595,9.694,9.694,0,0,0,2.531,6.809c3.189,3.189,4.759,1.164,8.277,0,14.326-4.556,28.349,10,36.879,19.743,14.175,16.225,27.463,30.905,50.092,32.449a16.1,16.1,0,0,0,16.883-10.783,19.591,19.591,0,0,1-12.074,2.81Z" transform="translate(-222.757 11.124)" fill="#f66e70"/>
        <path id="Path_274" data-name="Path 274" d="M325.17,330.321c-24.856-1.671-39.486-16.4-55.128-32.677-9.416-9.8-24.881-24.4-40.5-19.92a17.718,17.718,0,0,1-5.923,1.62,8.124,8.124,0,0,0,2.1,3.847c3.189,3.189,4.759,1.164,8.277,0,14.326-4.556,28.349,10,36.879,19.743,14.174,16.225,27.463,30.905,50.066,32.449a15.82,15.82,0,0,0,15.035-7.188,19.567,19.567,0,0,1-10.808,2.126Z" transform="translate(-223.153 29.043)" fill="#ddf561"/>
        <path id="Path_275" data-name="Path 275" d="M323.689,294.352c-11.491-.329-16.022-9.416-23.616-16.073-8.884-7.8-17.338-16.528-26.577-23.894s-18.984-12.276-30.374-7.112c-9.163,4.151-17.946,12.656-18.68,23.337a10.555,10.555,0,0,0,2.531,8.3c3.189,3.189,4.759,1.164,8.277,0,14.3-4.581,28.349,9.973,36.879,19.743,14.174,16.2,27.463,30.88,50.066,32.449C345.3,332.75,347,294.985,323.689,294.352Z" transform="translate(-222.026 -19.579)" fill="#ddf561"/>
        <path id="Path_276" data-name="Path 276" d="M324.149,283.842c-11.491-.329-16.022-9.416-23.59-16.073-8.91-7.8-17.364-16.528-26.6-23.894s-18.984-12.276-30.374-7.112c-9.163,4.151-17.971,12.656-18.68,23.337a10.53,10.53,0,0,0,2.531,8.3c3.189,3.189,4.759,1.164,8.277,0,14.326-4.581,28.349,9.973,36.879,19.718,14.174,16.225,27.463,30.905,50.066,32.475C345.791,322.239,347.461,284.475,324.149,283.842Z" transform="translate(-221.322 -35.671)" fill="#f66e70"/>
        <path id="Path_277" data-name="Path 277" d="M327.39,297.781c-25.058-1.671-39.84-16.427-55.685-32.7-9.492-9.8-25.109-24.426-40.929-19.92-2.531.709-4.176,1.822-5.973,1.595a9.644,9.644,0,0,0,2.531,6.809c3.189,3.189,4.759,1.164,8.277,0,14.326-4.581,28.349,9.973,36.879,19.718,14.174,16.225,27.463,30.905,50.066,32.475a16.073,16.073,0,0,0,16.883-10.808A19.566,19.566,0,0,1,327.39,297.781Z" transform="translate(-221.349 -20.831)" fill="#f66e70"/>
        <path id="Path_278" data-name="Path 278" d="M326.105,309.411c-24.856-1.645-39.511-16.4-55.128-32.677-9.416-9.8-24.881-24.4-40.5-19.895-2.531.709-4.151,1.822-5.948,1.595a8.15,8.15,0,0,0,2.126,3.847c3.189,3.189,4.759,1.164,8.277,0,14.3-4.581,28.349,9.973,36.879,19.743,14.174,16.2,27.463,30.88,50.066,32.449a15.87,15.87,0,0,0,15.035-7.188,19.567,19.567,0,0,1-10.808,2.126Z" transform="translate(-221.76 -2.948)" fill="#ddf561"/>
        <path id="Path_279" data-name="Path 279" d="M324.659,272.316c-11.491-.3-16.022-9.416-23.616-16.048-8.884-7.8-17.364-16.554-26.577-23.919s-19.009-12.276-30.374-7.087c-9.163,4.126-17.946,12.656-18.68,23.337a10.555,10.555,0,0,0,2.531,8.3c3.189,3.189,4.733,1.164,8.277,0,14.3-4.556,28.349,10,36.879,19.743,14.174,16.225,27.438,30.88,50.066,32.449C346.274,310.739,347.945,272.974,324.659,272.316Z" transform="translate(-220.541 -53.305)" fill="#ddf561"/>
        <path id="Path_280" data-name="Path 280" d="M325.074,261.766c-11.491-.3-16.022-9.416-23.59-16.048-8.91-7.8-17.364-16.554-26.6-23.919s-18.984-12.276-30.374-7.087c-9.163,4.126-17.946,12.656-18.655,23.337a10.529,10.529,0,0,0,2.531,8.3c3.189,3.189,4.759,1.164,8.277,0,14.3-4.556,28.349,10,36.879,19.743C287.714,282.319,301,297,323.606,298.544,346.791,300.29,348.462,262.526,325.074,261.766Z" transform="translate(-219.868 -69.458)" fill="#f66e70"/>
        <path id="Path_281" data-name="Path 281" d="M328.375,275.772c-25.058-1.671-39.84-16.427-55.685-32.728-9.492-9.8-25.109-24.4-40.929-19.92a17.946,17.946,0,0,1-6,1.62,9.719,9.719,0,0,0,2.531,6.809c3.189,3.189,4.759,1.164,8.277,0,14.3-4.556,28.349,10,36.879,19.743,14.174,16.225,27.463,30.905,50.066,32.449A16.073,16.073,0,0,0,340.4,272.962a19.565,19.565,0,0,1-12.023,2.81Z" transform="translate(-219.878 -54.558)" fill="#f66e70"/>
        <path id="Path_282" data-name="Path 282" d="M327.075,287.405c-24.856-1.671-39.511-16.4-55.128-32.677-9.416-9.8-24.881-24.426-40.5-19.92-2.531.734-4.151,1.822-5.948,1.595a8.352,8.352,0,0,0,2.126,3.873c3.189,3.189,4.733,1.164,8.277,0,14.3-4.556,28.349,10,36.879,19.743,14.174,16.225,27.438,30.88,50.066,32.449a15.845,15.845,0,0,0,15.035-7.189,19.844,19.844,0,0,1-10.808,2.126Z" transform="translate(-220.274 -36.678)" fill="#ddf561"/>
        <path id="Path_283" data-name="Path 283" d="M325.6,251.207c-11.517-.3-16.047-9.391-23.616-16.047-8.884-7.8-17.364-16.528-26.6-23.894s-18.984-12.276-30.374-7.113c-9.163,4.126-17.946,12.656-18.68,23.337a10.529,10.529,0,0,0,2.531,8.3c3.215,3.189,4.759,1.164,8.3,0,14.3-4.556,28.324,10,36.854,19.743,14.174,16.225,27.463,30.905,50.091,32.449C347.119,289.629,348.891,251.865,325.6,251.207Z" transform="translate(-219.133 -85.602)" fill="#ddf561"/>
        <path id="Path_284" data-name="Path 284" d="M326.092,240.7c-11.491-.3-16.022-9.391-23.616-16.047-8.884-7.8-17.364-16.528-26.577-23.919s-19.009-12.251-30.374-7.087c-9.163,4.126-17.946,12.656-18.68,23.337a10.454,10.454,0,0,0,2.531,8.3c3.189,3.189,4.759,1.164,8.277,0,14.3-4.556,28.349,10,36.854,19.743,14.2,16.225,27.463,30.905,50.091,32.449C347.606,279.125,349.3,241.36,326.092,240.7Z" transform="translate(-218.354 -101.7)" fill="#f66e70"/>
        <path id="Path_285" data-name="Path 285" d="M329.3,254.671c-25.084-1.671-39.866-16.427-55.685-32.7-9.492-9.8-25.109-24.426-40.954-19.945a17.719,17.719,0,0,1-5.973,1.62,9.72,9.72,0,0,0,2.531,6.809c3.189,3.189,4.759,1.164,8.277,0,14.3-4.556,28.349,10,36.854,19.743,14.2,16.225,27.463,30.905,50.091,32.449a16.073,16.073,0,0,0,16.883-10.783,19.566,19.566,0,0,1-12.023,2.81Z" transform="translate(-218.454 -86.864)" fill="#f66e70"/>
        <path id="Path_286" data-name="Path 286" d="M328,266.325c-24.831-1.671-39.486-16.4-55.128-32.677-9.391-9.8-24.856-24.426-40.5-19.92a17.719,17.719,0,0,1-5.948,1.62,8.605,8.605,0,0,0,2.1,3.847c3.215,3.189,4.759,1.164,8.3,0,14.3-4.556,28.324,10,36.854,19.743,14.174,16.225,27.463,30.905,50.091,32.449A15.87,15.87,0,0,0,338.8,264.2,19.693,19.693,0,0,1,328,266.325Z" transform="translate(-218.866 -68.955)" fill="#ddf561"/>
        <path id="Path_287" data-name="Path 287" d="M326.549,229.2c-11.491-.329-16.022-9.416-23.59-16.073-8.884-7.8-17.364-16.528-26.6-23.894s-18.984-12.276-30.374-7.113c-9.163,4.151-17.946,12.656-18.68,23.337a10.53,10.53,0,0,0,2.531,8.3c3.189,3.189,4.759,1.164,8.277,0,14.326-4.581,28.349,9.973,36.879,19.743,14.175,16.2,27.463,30.88,50.092,32.449C348.165,267.6,349.861,229.835,326.549,229.2Z" transform="translate(-217.648 -119.333)" fill="#ddf561"/>
        <path id="Path_288" data-name="Path 288" d="M327.035,218.692c-11.517-.329-16.047-9.416-23.616-16.073-8.884-7.8-17.364-16.528-26.6-23.894s-18.984-12.276-30.374-7.113c-9.163,4.151-17.946,12.656-18.68,23.337a10.529,10.529,0,0,0,2.531,8.3c3.215,3.215,4.759,1.164,8.3,0,14.3-4.581,28.324,9.973,36.854,19.718,14.175,16.225,27.463,30.905,50.091,32.475C348.651,257.089,350.321,219.325,327.035,218.692Z" transform="translate(-216.943 -135.426)" fill="#f66e70"/>
        <path id="Path_289" data-name="Path 289" d="M330.275,232.631c-25.084-1.671-39.866-16.427-55.685-32.7-9.492-9.8-25.109-24.426-40.954-19.92-2.531.709-4.176,1.822-5.973,1.595a9.72,9.72,0,0,0,2.531,6.809c3.215,3.215,4.759,1.164,8.3,0,14.3-4.581,28.324,9.973,36.854,19.718,14.174,16.225,27.463,30.905,50.091,32.475A16.1,16.1,0,0,0,342.323,229.8a19.566,19.566,0,0,1-12.048,2.835Z" transform="translate(-216.969 -120.585)" fill="#f66e70"/>
        <path id="Path_290" data-name="Path 290" d="M328.965,244.311c-24.831-1.645-39.486-16.4-55.128-32.677-9.391-9.8-24.856-24.4-40.5-19.895-2.531.709-4.151,1.822-5.948,1.595a8.125,8.125,0,0,0,2.1,3.847c3.189,3.189,4.759,1.164,8.277,0,14.326-4.581,28.349,9.973,36.879,19.743,14.174,16.2,27.463,30.88,50.091,32.449a15.845,15.845,0,0,0,15.01-7.189,19.566,19.566,0,0,1-10.783,2.126Z" transform="translate(-217.38 -102.626)" fill="#ddf561"/>
        <g id="Group_96" data-name="Group 96" transform="translate(28.029 36.716)" opacity="0.2">
          <path id="Path_291" data-name="Path 291" d="M242.966,192.958l2.531,1.012c2.126.835-2.531-1.139,0,0a30.831,30.831,0,0,1,4.3,2.354,11.466,11.466,0,0,0,15.567-4.1,11.643,11.643,0,0,0-4.075-15.592,68.339,68.339,0,0,0-12.352-5.7,11.381,11.381,0,0,0-12.858,16.731,13.086,13.086,0,0,0,6.783,5.239Z" transform="translate(-234.509 -170.529)" fill="#fffcf5"/>
        </g>
      </g>
    </g>
  </g>
</svg>
