<svg xmlns="http://www.w3.org/2000/svg" xmlns:xlink="http://www.w3.org/1999/xlink" width="156" height="164" viewBox="0 0 156 164">
  <defs>
    <clipPath id="clip-path">
      <path id="Path_64" data-name="Path 64" d="M217.144,202.708a2.548,2.548,0,0,0-2.018-.988H159.354a2.548,2.548,0,0,0-2.019.989,2.424,2.424,0,0,0-.4,2.172c28.2,94.241,32.419,94.241,60.625-.015A2.413,2.413,0,0,0,217.144,202.708Z" transform="translate(-156.83 -201.72)" fill="none"/>
    </clipPath>
    <clipPath id="clip-path-2">
      <path id="Path_67" data-name="Path 67" d="M217.144,202.708a2.548,2.548,0,0,0-2.018-.988H159.354a2.548,2.548,0,0,0-2.019.989,2.424,2.424,0,0,0-.4,2.172l27.888,93.189a2.541,2.541,0,0,0,4.845,0l27.892-93.2A2.413,2.413,0,0,0,217.144,202.708Z" transform="translate(-156.83 -201.72)" fill="none"/>
    </clipPath>
    <clipPath id="clip-path-3">
      <path id="Path_76" data-name="Path 76" d="M164.546,55.028a32.883,32.883,0,0,1-3.737-11.99A30.263,30.263,0,0,1,191.042,11c16.726,0,30.289,13.25,30.291,29.6,0,9.285-7.932,16.036-6.933,24.645.552,4.764,4.4,16-2.2,18.471-7.287,2.724-4.775-16.667-8.24-19.189-4.277-3.127-5.782,2.526-9.675,1.8-4.608-.866-4.238-8.673-9.78-8.358-6.56.38-5.65,10.474-13.835,4.711A21.7,21.7,0,0,1,164.546,55.028Z" transform="translate(-160.738 -11)" fill="none"/>
    </clipPath>
    <clipPath id="clip-ice-cream-4">
      <rect width="156" height="164"/>
    </clipPath>
  </defs>
  <g id="ice-cream-4" clip-path="url(#clip-ice-cream-4)">
    <g id="Group_219" data-name="Group 219" transform="translate(-934.43 564.927)">
      <g id="ice-cream-img2" transform="translate(799.141 -402.854) rotate(-38)">
        <g id="Layer_1" data-name="Layer 1" transform="translate(171.1 6.64)">
          <path id="Path_61" data-name="Path 61" d="M217.144,202.708a2.548,2.548,0,0,0-2.018-.988H159.354a2.548,2.548,0,0,0-2.019.989,2.424,2.424,0,0,0-.4,2.172c28.2,94.241,32.733,93.189,60.625-.015A2.413,2.413,0,0,0,217.144,202.708Z" transform="translate(-138.492 -129.263)" fill="#ecb55c"/>
          <g id="Group_26" data-name="Group 26" transform="translate(18.338 72.457)" clip-path="url(#clip-path)">
            <path id="Path_62" data-name="Path 62" d="M169.133,153.052l-2.143-2.093L149.652,167.9l-6.568-6.417,17.339-16.94-2.143-2.093-17.343,16.94-6.564-6.428,17.339-16.94-2.143-2.093-17.339,16.94-6.568-6.417L143,127.511l-2.143-2.093-17.335,16.94-6.568-6.417L134.293,119l-2.139-2.093-17.339,16.94-6.568-6.417,17.339-16.937-2.146-2.078L106.1,125.357l-6.564-6.417L116.872,102l-2.143-2.093-17.343,16.94-6.568-6.417,17.339-16.94-2.131-2.074-17.339,16.94-6.568-6.417L99.46,85l-2.143-2.093L79.978,99.846l-6.568-6.413L90.749,76.489,88.607,74.4,71.268,91.339,64.7,84.923l17.339-16.94-2.15-2.112L62.55,82.81l-6.564-6.417,17.335-16.94L71.179,57.36,53.836,74.319,36.513,57.36,34.37,59.453l17.339,16.94L45.141,82.81,27.8,65.87,25.66,67.963,43,84.9,36.431,91.32,19.093,74.38,16.95,76.47,34.289,93.41l-6.564,6.417L10.382,82.886,8.244,84.98l17.339,16.94-6.568,6.417L1.676,91.415-.466,93.509l17.339,16.94L10.3,116.866-7.034,99.907-9.157,102,8.181,118.94l-6.568,6.413-17.358-16.937-2.139,2.093L-.544,127.446l-6.568,6.417-17.339-16.94-2.143,2.093,17.339,16.94-6.568,6.417-17.339-16.94-2.143,2.093,17.339,16.94-6.568,6.417-17.339-16.94-2.143,2.093,17.358,16.925-6.587,6.428-17.339-16.937-2.139,2.09,17.335,16.94-6.568,6.417-17.335-16.94-2.143,2.093,17.339,16.94-17.339,16.94,2.143,2.093,17.335-16.94,6.568,6.417L-52.708,195.44l2.139,2.093L-33.231,180.6l6.575,6.413-17.339,16.94,2.143,2.093,17.339-16.94,6.548,6.409L-35.3,212.46l2.143,2.093,17.339-16.94,6.568,6.417-17.339,16.937,2.143,2.093,17.339-16.94,6.568,6.417-17.339,16.94,2.139,2.093L1.594,214.633l6.568,6.417L-9.157,237.986l2.143,2.093,17.339-16.937,6.568,6.413L-.466,246.5l2.143,2.093,17.335-16.94,6.568,6.413L8.244,255.006l2.139,2.09,17.339-16.937,6.568,6.417L16.95,263.516l2.143,2.09,17.339-16.94L43,255.082,25.66,272.022l2.143,2.093,17.339-16.94,6.568,6.417L34.37,280.532l2.143,2.093,17.323-16.94,17.335,16.94,2.143-2.093-17.319-16.94,6.564-6.417,17.331,16.94,2.143-2.093L64.7,255.082l6.568-6.417,17.339,16.944,2.143-2.093-17.339-16.94,6.568-6.417L97.317,257.1l2.143-2.093L82.121,238.062l6.564-6.417,17.343,16.94,2.143-2.093-17.343-16.94,6.56-6.413,17.339,16.94,2.143-2.093L99.53,221.046l6.568-6.413,17.343,16.94,2.143-2.093-17.339-16.94,6.568-6.417,17.339,16.94,2.139-2.093-17.335-16.94,6.568-6.417,17.335,16.94L143,212.46l-17.335-16.948,6.568-6.417,17.339,16.94,2.143-2.093L134.374,187l6.564-6.405,17.339,16.937,2.143-2.093L143.081,178.5l6.568-6.417,17.343,16.94,2.143-2.093-17.339-16.94Zm-30.33,8.43-6.572,6.417-6.568-6.417,6.568-6.417Zm-82.825,0,6.564-6.417,6.568,6.421L62.542,167.9Zm4.425,8.51-6.568,6.417-6.568-6.417,6.568-6.417Zm-6.568-10.6-6.552-6.428,6.552-6.4,6.583,6.4Zm-2.143,2.093L45.126,167.9l-6.568-6.417,6.568-6.417Zm-8.71,8.51-6.568,6.417-6.568-6.417,6.568-6.417Zm2.143,2.093,6.568,6.417-6.568,6.417L38.558,178.5Zm8.71,8.51,6.568,6.413-6.568,6.417-6.568-6.417Zm2.143-2.093,6.564-6.417L69.11,178.5l-6.568,6.417Zm8.706-8.51,6.568-6.417,6.568,6.417-6.568,6.417Zm8.71-8.506,6.568-6.421,6.568,6.417L79.963,167.9Zm-2.143-2.093L64.7,152.961l6.568-6.413,6.568,6.413Zm-8.71-8.51-6.564-6.417,6.564-6.417,6.568,6.417Zm-8.706-8.51-6.568-6.417,6.568-6.417,6.568,6.417Zm-2.143,2.093-6.568,6.417-6.568-6.417,6.568-6.417ZM43,152.961l-6.568,6.417-6.568-6.417,6.568-6.413Zm-8.71,8.51-6.568,6.417-6.548-6.405,6.568-6.417Zm-8.71,8.51L19.015,176.4l-6.568-6.417,6.564-6.417Zm2.143,2.093,6.568,6.417-6.568,6.417L21.173,178.5Zm8.71,8.51L43,187l-6.568,6.417L29.864,187Zm8.71,8.506,6.568,6.421-6.568,6.417-6.568-6.417Zm8.71,8.51,6.568,6.417-6.583,6.428-6.564-6.417Zm2.143-2.093,6.564-6.417,6.568,6.421-6.568,6.417ZM64.7,187l6.568-6.413L77.836,187l-6.568,6.417Zm8.71-8.506,6.568-6.417,6.568,6.417-6.568,6.417Zm8.71-8.51,6.564-6.417,6.568,6.417L88.685,176.4Zm8.706-8.51,6.56-6.405,6.568,6.417L97.387,167.9Zm-2.143-2.093-6.564-6.417,6.568-6.417,6.564,6.417Zm-8.706-8.506-6.568-6.417,6.568-6.417,6.568,6.417Zm-8.71-8.51L64.7,135.945l6.568-6.417,6.568,6.417Zm-8.71-8.51-6.564-6.417,6.564-6.386,6.568,6.417Zm-8.722-8.5-6.568-6.413,6.568-6.417L60.4,118.94Zm-2.143,2.093-6.568,6.417-6.568-6.417,6.583-6.4Zm-8.71,8.51-6.568,6.417-6.568-6.417,6.568-6.417Zm-8.71,8.51-6.568,6.417-6.533-6.417,6.568-6.417Zm-8.695,8.495-6.568,6.417-6.564-6.417,6.568-6.417Zm-8.706,8.51L10.3,167.888l-6.568-6.417,6.568-6.417Zm-8.71,8.51L1.594,176.4l-6.568-6.405,6.568-6.417Zm2.143,2.093,6.568,6.417L10.3,184.908l-6.568-6.417Zm8.71,8.51L25.579,187l-6.564,6.417L12.447,187Zm8.706,8.506,6.568,6.421-6.564,6.417-6.552-6.417Zm8.71,8.51L43,204.018l-6.568,6.417-6.568-6.417Zm8.71,8.51,6.568,6.417-6.568,6.417-6.568-6.417Zm8.695,8.521,6.572,6.413-6.572,6.417-6.568-6.417Zm2.146-2.093,6.564-6.417,6.568,6.417-6.568,6.417Zm8.706-8.51,6.568-6.417,6.568,6.417-6.568,6.417Zm8.71-8.51,6.568-6.417,6.579,6.409-6.568,6.417Zm8.71-8.51,6.564-6.413,6.568,6.413-6.564,6.417Zm8.706-8.506,6.572-6.417,6.568,6.417-6.568,6.417Zm8.71-8.51,6.568-6.417,6.568,6.417-6.568,6.417Zm8.71-8.51,6.568-6.417,6.568,6.417L114.8,167.9Zm-2.143-2.093-6.556-6.428,6.568-6.413,6.568,6.413Zm-8.706-8.506-6.564-6.417,6.564-6.417,6.564,6.417Zm-8.706-8.51-6.568-6.417,6.568-6.417,6.568,6.417Zm-8.71-8.51L73.4,127.446l6.575-6.4,6.568,6.417Zm-8.71-8.51-6.568-6.413,6.568-6.417,6.568,6.417Zm-8.71-8.506-6.564-6.417,6.564-6.417,6.568,6.417Zm-8.714-8.51-6.568-6.417L53.836,95.5,60.4,101.92Zm-2.143,2.093-6.568,6.417-6.568-6.417,6.568-6.417Zm-8.71,8.51-6.568,6.413-6.568-6.413,6.568-6.417Zm-8.71,8.506-6.564,6.417-6.537-6.417,6.552-6.4Zm-8.706,8.51L19,142.373l-6.568-6.417L19,129.54Zm-8.71,8.51-6.568,6.417-6.568-6.417,6.568-6.417Zm-8.695,8.495-6.568,6.413-6.568-6.413,6.568-6.417Zm-8.706,8.521L-7.112,167.9l-6.572-6.417,6.572-6.417Zm-8.71,8.51-6.568,6.417-6.556-6.417,6.568-6.417Zm2.143,2.093L-.548,178.5l-6.564,6.417L-13.68,178.5Zm8.706,8.51,6.568,6.413-6.568,6.417-6.568-6.417ZM10.3,189.1l6.568,6.409L10.3,201.928l-6.568-6.417Zm8.71,8.51,6.568,6.417-6.568,6.417-6.568-6.417Zm8.71,8.51,6.564,6.417-6.568,6.417-6.548-6.417Zm8.706,8.51L43,221.046l-6.568,6.417-6.568-6.417Zm8.71,8.506,6.568,6.417-6.568,6.417-6.568-6.417Zm8.71,8.51,6.568,6.413-6.583,6.421-6.552-6.421Zm2.143-2.093,6.564-6.417,6.568,6.417-6.568,6.417Zm8.706-8.51,6.568-6.413,6.568,6.413-6.568,6.417Zm8.71-8.506,6.568-6.417,6.568,6.413-6.568,6.421Zm8.71-8.51,6.568-6.417,6.564,6.417-6.568,6.417Zm8.71-8.51,6.556-6.417,6.575,6.409-6.575,6.424Zm8.706-8.51L106.1,180.6l6.568,6.413-6.568,6.417Zm8.71-8.506,6.568-6.417,6.568,6.417-6.568,6.417Zm8.71-8.51,6.568-6.417,6.568,6.417-6.568,6.417Zm13.135-17.032-6.568,6.413-6.568-6.413,6.568-6.413Zm-8.71-8.51-6.568,6.417-6.568-6.417,6.568-6.417Zm-8.71-8.51-6.568,6.417-6.564-6.417,6.564-6.417Zm-8.706-8.51-6.579,6.432-6.568-6.417,6.568-6.4Zm-8.71-8.506-6.568,6.413-6.568-6.413,6.568-6.417Zm-8.71-8.51-6.568,6.417-6.568-6.417L79.978,104Zm-8.71-8.51-6.568,6.417L64.7,101.9l6.568-6.417Zm-8.71-8.51-6.568,6.417-6.564-6.417,6.564-6.417ZM53.836,78.5,60.4,84.915,53.836,91.32,47.268,84.9ZM45.126,87l6.568,6.417-6.568,6.417-6.568-6.417Zm-8.71,8.51,6.568,6.417-6.568,6.417-6.568-6.417Zm-8.706,8.51,6.564,6.417-6.564,6.417-6.537-6.428ZM19,112.535l6.568,6.417L19,125.364l-6.568-6.413ZM10.3,121.049l6.568,6.417L10.3,133.882l-6.568-6.417Zm-8.71,8.51,6.568,6.417-6.568,6.417-6.568-6.436Zm-8.706,8.51,6.568,6.417-6.568,6.4-6.572-6.417Zm-8.71,8.51,6.568,6.383-6.568,6.428-6.556-6.428Zm-8.71,8.506,6.568,6.417-6.568,6.4-6.568-6.417ZM-39.81,169.993l6.568-6.417,6.587,6.417-6.587,6.417Zm8.71,8.51,6.568-6.417,6.568,6.417-6.568,6.417Zm8.722,8.506,6.568-6.413,6.568,6.413-6.579,6.417Zm8.695,8.5,6.572-6.417,6.568,6.417-6.568,6.424Zm8.71,8.51L1.594,197.6l6.568,6.417-6.568,6.417Zm8.71,8.51,6.568-6.417,6.568,6.417L10.3,218.948Zm8.71,8.51,6.568-6.417,6.564,6.413-6.568,6.424Zm8.726,8.514,6.568-6.417,6.568,6.417-6.587,6.417Zm8.71,8.51,6.568-6.417L43,238.062l-6.568,6.421Zm8.71,8.51,6.568-6.417,6.568,6.417-6.587,6.417ZM53.836,261.5l-6.568-6.421,6.568-6.417,6.568,6.417Zm8.706-8.51-6.564-6.417,6.564-6.417,6.568,6.417Zm8.71-8.51L64.7,238.062l6.568-6.417,6.568,6.417Zm8.71-8.51L73.4,229.556l6.568-6.417,6.568,6.417Zm8.706-8.51L82.1,221.046l6.568-6.417,6.568,6.417Zm8.718-8.506-6.568-6.421,6.568-6.413,6.568,6.417Zm8.71-8.51-6.568-6.417,6.568-6.417,6.568,6.417Zm8.71-8.51-6.56-6.424,6.568-6.417,6.568,6.417Zm8.71-8.51-6.568-6.417,6.568-6.413,6.568,6.413Zm8.706-8.506-6.568-6.417,6.568-6.417L138.8,178.5Zm8.71-8.51-6.568-6.417,6.572-6.417,6.568,6.417Z" transform="translate(-23.44 -112.204)" fill="#da741d"/>
            <path id="Path_63" data-name="Path 63" d="M169.133,150.023l-2.143-2.093-17.339,16.94-6.568-6.417,17.339-16.94-2.143-2.093-17.343,16.94-6.564-6.417L151.713,133l-2.143-2.093-17.339,16.944-6.568-6.417L143,124.489,140.86,122.4l-17.335,16.948-6.568-6.417,17.335-16.94-2.139-2.093-17.339,16.94-6.568-6.417,17.339-16.94-2.143-2.09L106.1,122.327l-6.564-6.417,17.335-16.94-2.143-2.093-17.346,16.94-6.556-6.424,17.339-16.94-2.143-2.093L88.688,105.3l-6.568-6.417L99.46,81.938l-2.143-2.093L79.978,96.785l-6.568-6.417,17.339-16.94-2.143-2.09L71.268,88.279,64.7,81.862l17.339-16.94-2.15-2.082L62.55,79.78l-6.564-6.417,17.335-16.94L71.179,54.33,53.836,71.27,36.513,54.33,34.37,56.423l17.339,16.94L45.141,79.78,27.8,62.84,25.66,64.933,43,81.874l-6.568,6.413L19.093,71.35,16.95,73.44,34.289,90.38,27.725,96.8,10.382,79.856,8.244,81.95,25.582,98.89l-6.568,6.417L1.676,88.366-.466,90.46l17.339,16.933L10.3,113.809-7.034,96.876-9.157,98.97,8.181,115.906l-6.587,6.417-17.339-16.937-2.139,2.09,17.339,16.94-6.568,6.417-17.339-16.94-2.143,2.093,17.339,16.94-6.568,6.417L-33.161,122.4l-2.143,2.086,17.339,16.94-6.568,6.424-17.339-16.94-2.143,2.093,17.358,16.937-6.587,6.417-17.339-16.937-2.139,2.089,17.335,16.94-6.568,6.417-17.335-16.94-2.143,2.093,17.339,16.94L-61.43,183.9-59.287,186l17.335-16.94,6.568,6.417-17.323,16.937,2.139,2.093,17.339-16.937,6.575,6.413-17.339,16.94,2.143,2.093,17.319-16.94,6.568,6.421L-35.3,209.43l2.143,2.093,17.339-16.94L-9.254,201l-17.339,16.948,2.143,2.09,17.339-16.944,6.568,6.417-17.339,16.937,2.139,2.093L1.594,211.6l6.568,6.417-17.319,16.94,2.143,2.093,17.339-16.94,6.568,6.417L-.466,243.466l2.143,2.093,17.335-16.94,6.568,6.424L8.244,251.98l2.139,2.093,17.339-16.937,6.568,6.417L16.95,260.5l2.143,2.093,17.339-16.94L43,252.067,25.66,269.008,27.8,271.1l17.339-16.94,6.568,6.417L34.37,277.518l2.143,2.093,17.323-16.956L71.171,279.6l2.143-2.093-17.335-16.94,6.564-6.417,17.347,16.94,2.143-2.093-17.339-16.94,6.568-6.417L88.6,262.576l2.143-2.09L73.4,243.546l6.568-6.417,17.339,16.94,2.143-2.093L82.121,235.043l6.564-6.417,17.343,16.94,2.143-2.093-17.343-16.94,6.56-6.424,17.339,16.94,2.143-2.093L99.53,218.016,106.1,211.6l17.343,16.94,2.143-2.09-17.339-16.94,6.568-6.417,17.339,16.94,2.139-2.093L116.954,201l6.568-6.417,17.335,16.94L143,209.43l-17.335-16.937,6.568-6.417,17.339,16.94,2.143-2.093-17.339-16.94,6.564-6.421,17.339,16.944,2.143-2.093-17.335-16.94,6.568-6.417L166.991,186l2.143-2.093-17.339-16.94Zm-30.33,8.43-6.572,6.417-6.568-6.417,6.568-6.417Zm-82.825,0,6.564-6.417,6.568,6.417-6.568,6.417Zm4.425,8.51-6.568,6.417-6.552-6.417,6.552-6.417Zm-6.568-10.6-6.552-6.417,6.552-6.413,6.583,6.413Zm-2.143,2.093-6.568,6.417-6.552-6.417,6.568-6.417Zm-8.71,8.51-6.568,6.417-6.552-6.417,6.568-6.417Zm2.143,2.093,6.568,6.417-6.568,6.417-6.552-6.417Zm8.71,8.51,6.568,6.413L53.836,190.4l-6.552-6.413Zm2.143-2.093,6.564-6.417,6.568,6.417-6.568,6.413Zm8.706-8.51,6.568-6.417,6.568,6.417-6.568,6.417Zm8.71-8.51,6.568-6.417,6.568,6.417-6.568,6.417Zm-2.143-2.093L64.7,149.943l6.568-6.413,6.568,6.413Zm-8.71-8.506-6.564-6.417,6.564-6.417,6.568,6.417Zm-8.706-8.51-6.568-6.417,6.568-6.417,6.568,6.417Zm-2.143,2.093-6.552,6.417-6.568-6.417,6.568-6.417ZM43,149.943l-6.568,6.417-6.568-6.417,6.568-6.417Zm-8.71,8.51-6.568,6.417-6.548-6.417,6.568-6.417Zm-8.71,8.51-6.564,6.417-6.568-6.417,6.564-6.417Zm2.143,2.093,6.568,6.417-6.568,6.417-6.548-6.417Zm8.71,8.51L43,183.983,36.431,190.4l-6.568-6.421Zm8.71,8.51,6.568,6.417-6.568,6.417-6.568-6.417Zm8.695,8.506L60.4,201l-6.568,6.417L47.272,201Zm2.143-2.093,6.564-6.417,6.583,6.421-6.568,6.417Zm8.706-8.51,6.568-6.417,6.568,6.417L71.253,190.4Zm8.71-8.506,6.568-6.417,6.568,6.417-6.568,6.413Zm8.71-8.51,6.564-6.417,6.568,6.417-6.568,6.417Zm8.706-8.51,6.575-6.417,6.568,6.417-6.568,6.417Zm-2.143-2.093-6.548-6.417,6.568-6.417,6.564,6.417Zm-8.691-8.506-6.568-6.417,6.568-6.417,6.568,6.417Zm-8.71-8.51L64.7,132.926l6.568-6.417,6.568,6.417Zm-8.71-8.51-6.564-6.417L62.558,118l6.568,6.417Zm-8.722-8.51-6.568-6.413,6.568-6.417,6.568,6.413Zm-2.143,2.093-6.552,6.417-6.568-6.417L45.141,118Zm-8.71,8.51-6.552,6.417-6.568-6.417,6.568-6.417Zm-8.71,8.51-6.552,6.417-6.548-6.417,6.568-6.417Zm-8.695,8.506-6.568,6.417-6.564-6.417,6.568-6.417Zm-8.706,8.51L10.3,164.87l-6.568-6.417,6.568-6.417Zm-8.71,8.51L1.594,173.38l-6.568-6.417,6.568-6.417Zm2.143,2.093,6.568,6.417L10.3,181.89l-6.568-6.417Zm8.71,8.51,6.564,6.413L19.015,190.4l-6.568-6.417Zm8.706,8.506,6.568,6.421-6.564,6.417-6.552-6.417Zm8.71,8.51L43,201l-6.568,6.417L29.864,201Zm8.71,8.51,6.568,6.417-6.568,6.417-6.568-6.417Zm8.695,8.506,6.572,6.417-6.572,6.421-6.568-6.421Zm2.146-2.089,6.564-6.417,6.568,6.417-6.568,6.417ZM64.689,201l6.568-6.417L77.824,201l-6.568,6.417Zm8.71-8.51,6.568-6.417,6.579,6.421-6.568,6.417Zm8.71-8.51,6.564-6.417,6.568,6.417L88.677,190.4Zm8.706-8.506,6.572-6.417,6.568,6.417-6.568,6.417Zm8.71-8.51,6.568-6.417,6.568,6.417-6.568,6.417Zm8.71-8.51,6.568-6.417,6.568,6.417L114.8,164.87Zm-2.143-2.093-6.556-6.417,6.568-6.417,6.568,6.417Zm-8.706-8.506-6.564-6.417,6.564-6.417,6.564,6.417Zm-8.706-8.51-6.568-6.417,6.568-6.417,6.568,6.417Zm-8.71-8.51L73.4,124.416,79.971,118l6.568,6.417Zm-8.71-8.51-6.568-6.417,6.568-6.413,6.568,6.417Zm-8.71-8.506-6.556-6.424,6.564-6.417,6.568,6.417Zm-8.714-8.51L47.268,98.89l6.568-6.417L60.4,98.89Zm-2.127,2.086-6.568,6.417-6.568-6.417,6.568-6.417ZM43,115.9l-6.568,6.42-6.568-6.413,6.568-6.417Zm-8.71,8.506-6.564,6.424-6.552-6.417L27.741,118Zm-8.706,8.51-6.568,6.424-6.568-6.417,6.568-6.417Zm-8.71,8.51L10.3,147.853l-6.568-6.417L10.3,135.02Zm-8.71,8.514-6.568,6.413-6.568-6.413,6.568-6.417Zm-8.706,8.51-6.568,6.417-6.572-6.417,6.572-6.417Zm-8.71,8.51-6.568,6.417-6.556-6.417,6.568-6.417Zm2.143,2.093,6.564,6.417-6.564,6.413-6.568-6.413Zm8.706,8.506,6.568,6.417L1.594,190.4l-6.568-6.417Zm8.71,8.51,6.568,6.421L10.3,198.91l-6.568-6.417Zm8.71,8.51L25.582,201l-6.568,6.417L12.447,201Zm8.71,8.51,6.564,6.417-6.568,6.417-6.548-6.417Zm8.706,8.506L43,218.016l-6.568,6.417-6.568-6.417Zm8.71,8.51,6.568,6.417-6.568,6.417-6.568-6.417Zm8.71,8.51,6.568,6.424-6.583,6.409-6.552-6.409Zm2.143-2.093,6.564-6.417,6.568,6.417-6.568,6.417Zm8.706-8.51,6.568-6.417,6.568,6.417-6.568,6.421Zm8.71-8.506,6.568-6.417,6.568,6.417-6.568,6.417Zm8.71-8.51,6.568-6.417L95.252,201l-6.568,6.417Zm8.71-8.51,6.556-6.417,6.575,6.421-6.575,6.413Zm8.706-8.51,6.568-6.413,6.568,6.413L106.1,190.4Zm8.71-8.506,6.568-6.417,6.568,6.413-6.568,6.417Zm8.71-8.51,6.568-6.417,6.568,6.417-6.568,6.413Zm13.135-17.02-6.568,6.413-6.568-6.413,6.568-6.413Zm-8.71-8.51-6.568,6.421-6.568-6.417,6.568-6.417Zm-8.71-8.51-6.568,6.421-6.564-6.417,6.564-6.417Zm-8.706-8.51-6.579,6.421-6.568-6.417L97.387,118Zm-8.71-8.506-6.568,6.417-6.568-6.413,6.568-6.417Zm-8.71-8.514-6.568,6.417-6.568-6.417,6.568-6.417Zm-8.71-8.51L71.268,105.3,64.7,98.882l6.568-6.417Zm-8.71-8.51-6.568,6.417-6.564-6.417,6.564-6.417ZM53.836,75.457,60.4,81.874l-6.568,6.413-6.568-6.413Zm-8.71,8.506,6.568,6.417L45.126,96.8,38.558,90.38Zm-8.71,8.51,6.568,6.417-6.568,6.417L29.848,98.89Zm-8.706,8.51,6.579,6.409-6.564,6.417-6.552-6.417ZM19,109.493l6.568,6.417-6.552,6.413-6.568-6.417ZM10.289,118l6.568,6.417L10.3,130.833l-6.568-6.417Zm-8.71,8.51,6.568,6.417-6.552,6.417-6.568-6.417Zm-8.706,8.51,6.568,6.417-6.552,6.417-6.572-6.417Zm-8.71,8.51,6.583,6.413-6.568,6.417-6.556-6.417Zm-8.71,8.506,6.583,6.417-6.568,6.417-6.568-6.417ZM-39.81,166.963l6.568-6.417,6.587,6.417-6.587,6.417Zm8.71,8.51,6.568-6.417,6.568,6.417-6.568,6.417Zm8.722,8.506,6.556-6.417,6.568,6.417-6.568,6.417Zm8.695,8.514,6.572-6.417,6.568,6.417-6.568,6.413Zm8.71,8.51,6.568-6.417L8.162,201,1.594,207.42Zm8.71,8.51L10.3,203.1l6.568,6.417L10.3,215.93Zm8.71,8.506,6.568-6.417,6.564,6.417-6.568,6.421Zm8.726,8.506,6.568-6.417,6.568,6.417-6.568,6.417Zm8.71,8.51,6.568-6.417L43,235.043l-6.568,6.417Zm8.71,8.51,6.568-6.417,6.568,6.413-6.568,6.417Zm15.243,14.923-6.568-6.417,6.568-6.417,6.568,6.417Zm8.706-8.51-6.564-6.417,6.564-6.413,6.568,6.417Zm8.71-8.506L64.7,235.043l6.568-6.417,6.568,6.417Zm8.71-8.51L73.4,226.526l6.568-6.417,6.568,6.417Zm8.706-8.506L82.1,218.016l6.568-6.417,6.568,6.417Zm8.71-8.51-6.568-6.417,6.575-6.417,6.568,6.417Zm8.71-8.51L99.522,201l6.568-6.417L112.657,201Zm8.71-8.51-6.552-6.413,6.568-6.417,6.568,6.417Zm8.71-8.51-6.568-6.417,6.568-6.417,6.568,6.417Zm8.706-8.51-6.568-6.417,6.568-6.413,6.572,6.417Zm8.722-8.506-6.564-6.417,6.564-6.417,6.572,6.417Z" transform="translate(-23.44 -110.325)" fill="#f6d184"/>
          </g>
          <path id="Path_65" data-name="Path 65" d="M6.044,0,2.3,0A2.271,2.271,0,0,0,.461.982a2.555,2.555,0,0,0-.37,2.145C25.746,96.185,36.865,69.944,36.865,69.944,20.238,56.686,8.321,30.722,6.044,0Z" transform="matrix(0.999, 0.035, -0.035, 0.999, 19.378, 71.082)" fill="#e1892b" opacity="0.3"/>
          <g id="Group_27" data-name="Group 27" transform="translate(18.338 72.457)" clip-path="url(#clip-path-2)">
            <path id="Path_66" data-name="Path 66" d="M180.024,112.71a30.224,30.224,0,0,0-21.149,8.605,30.15,30.15,0,0,0-18.91-6.633c-16.732,0-30.3,13.252-30.3,29.6,0,9.821,3.939,15.523,10.522,22.339,4.11,4.259,3.791,8.563,7.073,13.153,2.364,3.294,7.2,6.751,8.975,1.318a.4.4,0,0,1,.019-.065c1.03-3.567-3.391-8.875-5.133-11.747,1.878-.38,3.531,1.113,5.6.726,4.6-.862,4.235-8.673,9.776-8.358,6.564.38,5.654,10.47,13.835,4.711a12.855,12.855,0,0,0,1.233-1.007c3.647,1.14,5.541-2.9,9.643-2.154,2.426.437,2.244,1.717,2.955,3.583.9,2.371,2.384,3.153,3.923,5.079,1.808,2.279.517,5.847,1.921,8.339,2.877,5.114,5.895-.141,6.093-3.469.183-3.066,1.069-3.6,3.787-4.939,10.468-5.106,20.43-17.6,20.43-29.5C210.314,125.945,196.75,112.706,180.024,112.71Z" transform="translate(-128.008 -146.526)" fill="#d68e29" opacity="0.45"/>
          </g>
          <path id="Path_68" data-name="Path 68" d="M164.546,55.028a32.883,32.883,0,0,1-3.737-11.99A30.263,30.263,0,0,1,191.042,11c16.726,0,30.289,13.25,30.291,29.6,0,9.285-7.932,16.036-6.933,24.645.552,4.764,4.4,16-2.2,18.471-7.287,2.724-4.775-16.667-8.24-19.189-4.277-3.127-5.782,2.526-9.675,1.8-4.608-.866-4.238-8.673-9.78-8.358-6.56.38-5.65,10.474-13.835,4.711A21.7,21.7,0,0,1,164.546,55.028Z" transform="translate(-140.88 -11)" fill="#fded4a"/>
          <path id="Path_69" data-name="Path 69" d="M166.461,137.262a32.839,32.839,0,0,0,3.733-11.99A30.27,30.27,0,0,0,139.965,93.23c-16.732,0-30.3,13.252-30.3,29.6,0,9.821,3.939,15.523,10.522,22.339,4.11,4.259,3.791,8.563,7.073,13.153,2.364,3.294,7.2,6.736,8.975,1.307a.407.407,0,0,1,.019-.065c1.03-3.571-3.391-8.875-5.133-11.747,1.878-.38,3.531,1.113,5.6.726,4.6-.862,4.235-8.673,9.776-8.358,6.564.38,5.654,10.47,13.835,4.711A21.646,21.646,0,0,0,166.461,137.262Z" transform="translate(-109.67 -61.99)" fill="#c77625"/>
          <path id="Path_70" data-name="Path 70" d="M142.43,173.821a35.3,35.3,0,0,1-31.944-20.591,28.872,28.872,0,0,0-.817,6.8c0,9.821,3.939,15.523,10.522,22.339,4.11,4.259,3.791,8.563,7.073,13.153,2.364,3.294,7.2,6.736,8.975,1.307a.405.405,0,0,1,.019-.065c1.03-3.571-3.391-8.875-5.133-11.747,1.878-.38,3.531,1.113,5.6.726,4.6-.862,4.235-8.673,9.776-8.358,6.564.38,5.654,10.47,13.835,4.711a22.051,22.051,0,0,0,6.128-7.655,32.84,32.84,0,0,0,3.733-11.99c.058-.832.07-1.653.058-2.473A35,35,0,0,1,142.43,173.821Z" transform="translate(-109.67 -99.195)" fill="#9f570e"/>
          <path id="Path_71" data-name="Path 71" d="M216.482,132.043a32.868,32.868,0,0,1-3.733-11.99A30.275,30.275,0,0,1,242.978,88a30.66,30.66,0,0,1,21.434,8.681,29.257,29.257,0,0,1,8.861,20.952c0,11.906-9.962,24.4-20.43,29.5-2.722,1.326-3.6,1.858-3.787,4.939-.2,3.328-3.216,8.582-6.093,3.469-1.4-2.5-.113-6.079-1.921-8.339-1.555-1.926-3.021-2.713-3.923-5.079-.712-1.865-.529-3.146-2.955-3.583-4.759-.862-6.54,4.719-11.553,1.185A22.24,22.24,0,0,1,216.482,132.043Z" transform="translate(-172.624 -58.747)" fill="#e3a177"/>
          <path id="Path_72" data-name="Path 72" d="M244.011,179.922a36.243,36.243,0,0,1-31.267-17.65,29.267,29.267,0,0,0,0,3.836,32.815,32.815,0,0,0,3.733,11.99,21.833,21.833,0,0,0,6.128,7.655c5.012,3.533,6.793-2.048,11.553-1.185,2.426.437,2.244,1.717,2.955,3.583.9,2.367,2.384,3.153,3.923,5.079,1.808,2.279.517,5.843,1.921,8.339,2.877,5.114,5.895-.141,6.093-3.469.183-3.07,1.069-3.6,3.787-4.939,9.962-4.859,19.442-16.408,20.356-27.779A36.326,36.326,0,0,1,244.011,179.922Z" transform="translate(-172.627 -104.801)" fill="#bc6f3e"/>
          <g id="Group_28" data-name="Group 28" transform="translate(78.465 36.516)" opacity="0.5">
            <path id="Path_73" data-name="Path 73" d="M313.7,115.431c.44.3.486.331.14.087.225.186.443.38.653.585s.416.418.61.634c.953,1.018-.428-.642.408.494a25.249,25.249,0,0,1,2.119,3.579c1.1,2.166,4.188,2.754,6.222,1.592a4.475,4.475,0,0,0,1.633-6.079,21.884,21.884,0,0,0-7.19-8.567c-2.042-1.379-5.036-.38-6.222,1.6a4.482,4.482,0,0,0,1.629,6.079Z" transform="translate(-311.459 -107.117)" fill="#fffcf5"/>
          </g>
          <g id="Group_29" data-name="Group 29" transform="translate(9.794 36.995)" opacity="0.5">
            <path id="Path_74" data-name="Path 74" d="M147.2,116.687c-.436.3-.482.331-.14.087-.222.186-.439.38-.649.585s-.416.414-.611.634c-.953,1.018.428-.642-.408.494a25.25,25.25,0,0,0-2.119,3.579c-1.1,2.166-4.188,2.754-6.222,1.592a4.474,4.474,0,0,1-1.629-6.079,21.846,21.846,0,0,1,7.19-8.563c2.041-1.379,5.036-.38,6.222,1.592A4.479,4.479,0,0,1,147.2,116.687Z" transform="translate(-134.857 -108.377)" fill="#fffcf5"/>
          </g>
          <g id="Group_30" data-name="Group 30" transform="translate(19.858)" clip-path="url(#clip-path-3)">
            <path id="Path_75" data-name="Path 75" d="M201.527,20.362a23.972,23.972,0,0,0,.167,4.361c.54,2.238,3.048,6.542,5.755,5,3.27-1.854,1.05-7.306,2.073-10.072,2.644-7.135,5.335,3.94,8.784,3.64,2.687-.228,3.045-4.244,6.07-4.939,2.862-.657,3.437,2.029,5.794,2.23,5.514.471.75-7.864-.49-9.574-2.5-3.442-6.61-5.144-10.713-5.968-7.9-1.584-19.765-.733-25.466,5.668-1.357,1.52-3.13,5-1.691,6.937,1.657,2.23,3.865,0,6.027-.217C200.862,17.137,201.445,18.524,201.527,20.362Z" transform="translate(-179.401 -6.879)" fill="#76311e"/>
          </g>
          <g id="Group_31" data-name="Group 31" transform="translate(57.256 5.918)" opacity="0.5">
            <path id="Path_77" data-name="Path 77" d="M259.16,34.887c.439.3.486.331.14.087.225.186.443.38.653.585s.412.414.61.634c.953,1.018-.428-.642.408.494a25.605,25.605,0,0,1,2.115,3.579c1.1,2.166,4.188,2.754,6.221,1.592a4.474,4.474,0,0,0,1.629-6.079,21.835,21.835,0,0,0-7.186-8.563,4.619,4.619,0,0,0-6.222,1.592A4.478,4.478,0,0,0,259.16,34.887Z" transform="translate(-256.915 -26.577)" fill="#fffcf5"/>
          </g>
          <path id="Path_78" data-name="Path 78" d="M271.518,128.928a.9.9,0,0,0-.673,1.071h0a.917.917,0,0,0,.883.916l6.552-.657a.905.905,0,0,0,.677-1.071h0a.914.914,0,0,0-.887-.912Z" transform="translate(-208.159 -83.718)" fill="#fff"/>
          <path id="Path_79" data-name="Path 79" d="M335.558,112.375a.925.925,0,0,0-1.167.521h0a.887.887,0,0,0,.21,1.238l5.833,3.039a.932.932,0,0,0,1.167-.517h0a.894.894,0,0,0-.21-1.246Z" transform="translate(-246.908 -73.818)" fill="#fff"/>
          <path id="Path_80" data-name="Path 80" d="M299.791,104.444a.891.891,0,0,0-.28-1.227h0a.953.953,0,0,0-1.291-.049L294,108.107a.9.9,0,0,0,.284,1.231h0a.932.932,0,0,0,1.287.042Z" transform="translate(-222.235 -68.011)" fill="#fff"/>
          <path id="Path_81" data-name="Path 81" d="M259.726,105.036a.941.941,0,0,0-1.256.277h0a.886.886,0,0,0-.05,1.254l5.055,4.145a.937.937,0,0,0,1.256-.27h0a.891.891,0,0,0,.054-1.261Z" transform="translate(-200.435 -69.222)" fill="#fff"/>
          <path id="Path_82" data-name="Path 82" d="M262.768,89.56a.9.9,0,0,0-.778,1h0a.9.9,0,0,0,.778,1l6.61.027a.908.908,0,0,0,.778-1h0a.912.912,0,0,0-.778-1Z" transform="translate(-202.757 -59.714)" fill="#fff"/>
          <path id="Path_83" data-name="Path 83" d="M257.909,146.025a.932.932,0,0,0-1.256.262h0a.886.886,0,0,0-.07,1.254l5.016,4.179a.94.94,0,0,0,1.264-.258h0a.9.9,0,0,0,.062-1.258Z" transform="translate(-199.318 -94.634)" fill="#fff"/>
          <path id="Path_84" data-name="Path 84" d="M193.383,89.7a.919.919,0,0,0-.98.817h0a.9.9,0,0,0,.556,1.14l6.451,1.337a.92.92,0,0,0,.984-.817h0a.9.9,0,0,0-.556-1.14Z" transform="translate(-160.203 -59.791)" fill="#fff"/>
          <path id="Path_85" data-name="Path 85" d="M216.474,112.272a.937.937,0,0,0,1.287,0h0a.9.9,0,0,0,.346-1.212l-3.974-5.148a.937.937,0,0,0-1.287,0h0a.9.9,0,0,0-.342,1.212Z" transform="translate(-172.449 -69.695)" fill="#fff"/>
          <path id="Path_86" data-name="Path 86" d="M167.458,96.061a.933.933,0,0,0,1.283,0h0a.889.889,0,0,0,.346-1.212l-3.97-5.136a.937.937,0,0,0-1.287,0h0a.893.893,0,0,0-.346,1.212Z" transform="translate(-142.49 -59.65)" fill="#fff"/>
          <path id="Path_87" data-name="Path 87" d="M130.556,112.605a.9.9,0,0,0,.614,1.106h0a.938.938,0,0,0,1.252-.293l2.683-5.889a.9.9,0,0,0-.614-1.106h0a.938.938,0,0,0-1.252.293Z" transform="translate(-122.414 -70.093)" fill="#fff"/>
          <path id="Path_88" data-name="Path 88" d="M182.755,103.729a.919.919,0,0,0-.929.87h0a.9.9,0,0,0,.622,1.1l6.521.973a.92.92,0,0,0,.933-.874h0a.9.9,0,0,0-.626-1.1Z" transform="translate(-153.759 -68.495)" fill="#fff"/>
          <path id="Path_89" data-name="Path 89" d="M207.079,133.371c-.066.418.331.824.89.908h0a.925.925,0,0,0,1.128-.6l1.027-6.364c.066-.422-.331-.828-.887-.916h0a.933.933,0,0,0-1.135.6Z" transform="translate(-169.197 -82.535)" fill="#fff"/>
          <path id="Path_90" data-name="Path 90" d="M187.231,140.069a.92.92,0,0,0,1.279.141h0a.892.892,0,0,0,.47-1.166l-3.387-5.535a.944.944,0,0,0-1.279-.148h0a.9.9,0,0,0-.474,1.174Z" transform="translate(-154.957 -86.76)" fill="#fff"/>
          <path id="Path_91" data-name="Path 91" d="M243.117,113.775c-.07.418.323.832.883.919h0a.926.926,0,0,0,1.132-.593l1.081-6.356c.074-.422-.323-.832-.879-.923h0a.925.925,0,0,0-1.132.593Z" transform="translate(-191.222 -70.397)" fill="#fff"/>
        </g>
      </g>
      <path id="blob_2_" data-name="blob (2)" d="M9.309.479c1.219.3,2.61.761,2.833,1.443s-.721,1.589-1.228,2.557-.6,2-1.348,2.356-2.155.049-3.692.177-3.219.7-3.829.31S1.874,5.58,1.505,4.484-.066,2.548,0,1.873,1.385.679,2.6.375A12.42,12.42,0,0,1,5.978,0,15.45,15.45,0,0,1,9.309.479Z" transform="translate(1030.484 -561.594) rotate(2)" fill="none" stroke="#ffed99" stroke-width="1"/>
      <path id="blob_5_" data-name="blob (5)" d="M-63.479-66.779c1.877,1.257,3.847,2.831,3.449,4.266s-3.179,2.768-4.809,3.834-2.111,1.9-2.839,2.311a3.032,3.032,0,0,1-2.534.063,27.8,27.8,0,0,1-3.249-2.082c-1.666-1.066-4.27-2.552-4.551-4.088s1.748-3.1,3.648-4.342S-70.67-69.014-68.9-69-65.356-68.036-63.479-66.779Z" transform="matrix(0.695, -0.719, 0.719, 0.695, 1038.277, -531.542)" fill="none" stroke="#5c76ff" stroke-width="1"/>
      <path id="blob_5_2" data-name="blob (5)" d="M-69.767-67.739c1.066.714,2.186,1.609,1.959,2.424s-1.806,1.573-2.733,2.179-1.2,1.082-1.613,1.313a1.723,1.723,0,0,1-1.44.036,15.8,15.8,0,0,1-1.846-1.183c-.946-.606-2.426-1.45-2.586-2.323s.993-1.76,2.073-2.467A5.911,5.911,0,0,1-72.846-69,5.914,5.914,0,0,1-69.767-67.739Z" transform="matrix(0.695, -0.719, 0.719, 0.695, 1040.296, -500.66)" fill="none" stroke="#ffed99" stroke-width="1"/>
      <path id="blob_5_3" data-name="blob (5)" d="M-71.976-68.076c.782.524,1.6,1.179,1.436,1.777s-1.324,1.153-2,1.6-.879.793-1.182.962a1.263,1.263,0,0,1-1.055.026,11.579,11.579,0,0,1-1.353-.867c-.694-.444-1.778-1.063-1.9-1.7s.728-1.29,1.519-1.809A4.333,4.333,0,0,1-74.233-69,4.335,4.335,0,0,1-71.976-68.076Z" transform="matrix(0.695, -0.719, 0.719, 0.695, 1057.239, -482.267)" fill="none" stroke="#5c76ff" stroke-width="0.5"/>
    </g>
  </g>
</svg>
