<svg xmlns="http://www.w3.org/2000/svg" xmlns:xlink="http://www.w3.org/1999/xlink" width="343" height="561" viewBox="0 0 343 561">
  <defs>
    <clipPath id="clip-path">
      <path id="Path_123" data-name="Path 123" d="M271.634,355.659a15.479,15.479,0,1,0-30.959,0L230.11,470.487a21.094,21.094,0,0,0,21.082,21.094h9.913A21.094,21.094,0,0,0,282.2,470.487Z" transform="translate(-230.11 -340.18)" fill="none"/>
    </clipPath>
    <clipPath id="clip-path-2">
      <path id="Path_127" data-name="Path 127" d="M392.561,405.839,376.309,137.63a105.047,105.047,0,0,0-210,0l-16.3,268.209a33.651,33.651,0,0,0,33.579,35.68H358.982a33.627,33.627,0,0,0,33.579-35.68Z" transform="translate(-149.949 -35.768)" fill="none"/>
    </clipPath>
    <clipPath id="clip-ice-cream-5">
      <rect width="343" height="561"/>
    </clipPath>
  </defs>
  <g id="ice-cream-5" clip-path="url(#clip-ice-cream-5)">
    <g id="ice-cream-img4" transform="translate(-63.125 175.24) rotate(-10)">
      <g id="Layer_1" data-name="Layer 1" transform="translate(85.279 -120.116)">
        <path id="Path_115" data-name="Path 115" d="M248.45,342.35h0Z" transform="translate(-129.516 37.209)" fill="#af7b43"/>
        <path id="Path_116" data-name="Path 116" d="M269.184,358.174a15.479,15.479,0,1,0-30.947,0L227.66,472.989a21.094,21.094,0,0,0,21.094,21.094h9.913a21.094,21.094,0,0,0,21.094-21.094Z" transform="translate(-133.829 37.191)" fill="#af7b43"/>
        <path id="Path_117" data-name="Path 117" d="M250.9,339.9h0Z" transform="translate(-129.008 36.701)" fill="#f2bf6d"/>
        <path id="Path_118" data-name="Path 118" d="M271.634,355.659a15.479,15.479,0,1,0-30.959,0L230.11,470.487a21.094,21.094,0,0,0,21.082,21.094h9.913A21.094,21.094,0,0,0,282.2,470.487Z" transform="translate(-133.321 36.759)" fill="#f2bf6d"/>
        <g id="Group_67" data-name="Group 67" transform="translate(96.789 376.939)" clip-path="url(#clip-path)">
          <path id="Path_119" data-name="Path 119" d="M273.65,390.622c6.581-14.284,24.5-28.52,40.691-25.791,1.859.314,2.656-2.524.773-2.837-14.912-2.524-27.312,6.532-37.032,16.977A45.17,45.17,0,0,0,269.63,392.6c-3.115,7.559-3.127,15.975-6.641,23.364-5.24,11.012-17.786,9.442-27.916,9.889-9.056.386-16.24,3.791-20.442,12.074-.869,1.69,1.678,3.188,2.548,1.5,9.3-18.3,32.058-4.335,44.977-17.122C270.2,414.3,269.1,400.487,273.65,390.622Z" transform="translate(-233.358 -335.743)" fill="#f9d895"/>
          <path id="Path_120" data-name="Path 120" d="M311.509,420.51c-4.975,9.66-10.155,17.206-21.879,17.822-5.578.3-9.961,1.678-14.212,5.289-5.1,4.323-9.116,9.9-13.825,14.61-3.767,3.779-15.7,10.867-16.735.881-1.1-10.143,10.77-22.809,16.469-30.041,6.363-8.078,13.7-15.552,19.524-24.04,1.087-1.582-1.473-3.055-2.548-1.5-7.547,11.012-17.194,20.527-25.091,31.393-4.335,5.941-16.252,20.985-9.66,28.894,9.321,11.169,22.615-6.037,28.314-12.328a46.231,46.231,0,0,1,8.561-7.981c4.311-2.874,9.841-1.69,14.646-2.632,9.72-1.908,14.779-10.65,18.969-18.848C314.926,420.305,312.379,418.808,311.509,420.51Z" transform="translate(-227.725 -327.175)" fill="#f9d895"/>
          <path id="Path_121" data-name="Path 121" d="M275.873,423.285c1.715-.821.217-3.369-1.485-2.548A41.39,41.39,0,0,0,256.143,437.5a1.485,1.485,0,0,0,.881,2.161c11.048,2,20.007-9.309,27.264-15.866,1.413-1.28-.676-3.369-2.089-2.089-5.8,5.24-13.608,15.19-22.277,15.274A39.676,39.676,0,0,1,275.873,423.285Z" transform="translate(-224.75 -323.502)" fill="#f9d895"/>
          <path id="Path_122" data-name="Path 122" d="M224.277,405.772c10.07,6.544,21.4,7.969,27.131-4.371,8.138-17.508-2.9-34.219-4.987-51.509-.229-1.871-3.176-1.884-2.946,0,1.558,12.908,8.09,24.692,7.933,37.829-.072,6.484-2.113,14.852-7.559,18.909s-13.282-.278-18.112-3.405C224.168,402.235,222.695,404.734,224.277,405.772Z" transform="translate(-231.461 -338.457)" fill="#f9d895"/>
        </g>
        <path id="Path_124" data-name="Path 124" d="M274.6,400.021l-4.081-44.361a15.479,15.479,0,1,0-30.959,0l-4.081,44.373Z" transform="translate(-132.207 36.759)" fill="#ecb55c"/>
        <path id="Path_125" data-name="Path 125" d="M392.561,405.839,376.309,137.63a105.047,105.047,0,0,0-210,0l-16.3,268.209a33.651,33.651,0,0,0,33.579,35.68H358.982a33.627,33.627,0,0,0,33.579-35.68Z" transform="translate(-149.949 -26.389)" fill="#76311e"/>
        <g id="Group_68" data-name="Group 68" transform="translate(0 9.379)" clip-path="url(#clip-path-2)">
          <path id="Path_126" data-name="Path 126" d="M427.433,2.3c-45.557-34.1-109.056-34.376-162.172-22.024-51.92,12.074-98.044,39.64-128.52,83.845-28.7,41.657-35.221,90.268-38.457,139.411-2.753,41.777-5.965,86.03,4.661,126.987,3.622,14.079,11.229,31.72,26.093,37.081,22.012,7.945,28.339-6.037,35.716-21.891a6.037,6.037,0,0,0,3.49-3.151c31.2-61.809,89.351-98.5,154.553-116.868,32.07-9.032,64.695-12,97.694-15.178,24.837-2.415,51.98-9.032,62.1-34.726C505.868,116.528,476.89,39.36,427.433,2.3Z" transform="translate(-161.227 -48.824)" fill="#853621"/>
        </g>
        <path id="Path_128" data-name="Path 128" d="M166.679,99.35H156.21l-5.24,16.361h15.709Z" transform="translate(-34.33 -46.017)" fill="#f4a202"/>
        <path id="Path_129" data-name="Path 129" d="M202.4,76.071l-.785-10.444-16.7-4,1.171,15.661Z" transform="translate(-27.288 -53.842)" fill="#f4a202"/>
        <path id="Path_130" data-name="Path 130" d="M128.019,80.54,116.5,92.059l11.519,3.671,10.469-7.595Z" transform="translate(-41.481 -49.919)" fill="#f4a202"/>
        <path id="Path_131" data-name="Path 131" d="M225.955,90.557,213.809,79.69,210.79,91.4l8.174,10.034Z" transform="translate(-21.921 -50.096)" fill="#f4a202"/>
        <path id="Path_132" data-name="Path 132" d="M124.083,117.759,116.5,115.67v17.8l15.178,3.659Z" transform="translate(-41.481 -42.632)" fill="#f4a202"/>
        <path id="Path_133" data-name="Path 133" d="M209.768,117.2l4.347-6.568-16.928-5.518L189,118.416Z" transform="translate(-26.441 -44.822)" fill="#f4a202"/>
        <path id="Path_134" data-name="Path 134" d="M191.168,80.87l-17.508,1.8,7.112,9.708,7.365-2.789Z" transform="translate(-29.623 -49.851)" fill="#f4a202"/>
        <path id="Path_135" data-name="Path 135" d="M105.48,100.37l3.357,10.927,5.289-5.772-2.717-4.335Z" transform="translate(-43.767 -45.806)" fill="#f4a202"/>
        <path id="Path_136" data-name="Path 136" d="M113.768,75.78,96.26,77.567l7.112,9.72,7.365-2.8Z" transform="translate(-45.679 -50.907)" fill="#f4a202"/>
        <path id="Path_137" data-name="Path 137" d="M131.732,74.159l-2.656-17.4-9.346,7.595,3.151,7.208Z" transform="translate(-40.811 -54.852)" fill="#f4a202"/>
        <path id="Path_138" data-name="Path 138" d="M158.483,87.747,156.732,76.24l-6.182,5.023,2.089,4.769Z" transform="translate(-34.417 -50.811)" fill="#f4a202"/>
        <path id="Path_139" data-name="Path 139" d="M132.51,110.745l11.253-2.97-5.651-5.615-4.528,2.584Z" transform="translate(-38.16 -45.434)" fill="#f4a202"/>
        <path id="Path_140" data-name="Path 140" d="M147.778,70.188,162.5,60.517,151.7,55.18l-5.252,5.88Z" transform="translate(-35.268 -55.18)" fill="#f4a202"/>
        <path id="Path_141" data-name="Path 141" d="M109.67,100.95l-4.19-.58,3.357,10.927,3.007-3.272Z" transform="translate(-43.767 -45.806)" fill="#f4a202"/>
        <path id="Path_142" data-name="Path 142" d="M110.773,84.157l-3.828,1.449L100.559,76.9l-4.3.435,7.112,9.72,7.365-2.8Z" transform="translate(-45.679 -50.674)" fill="#f4a202"/>
        <path id="Path_143" data-name="Path 143" d="M120.062,132.031V116.648l-3.562-.978v17.8l15.178,3.659-1-2.536Z" transform="translate(-41.481 -42.632)" fill="#f4a202"/>
        <path id="Path_144" data-name="Path 144" d="M136.072,109.308l1.087-6,1.328-.761-.374-.386-4.528,2.584-1.075,6,11.253-2.97-.4-.4Z" transform="translate(-38.16 -45.434)" fill="#f4a202"/>
        <path id="Path_145" data-name="Path 145" d="M202.4,76.071l-.085-1.171-12.666.942-.99-13.318-3.743-.894,1.171,15.661Z" transform="translate(-27.288 -53.842)" fill="#f4a202"/>
        <path id="Path_146" data-name="Path 146" d="M130.482,93.943l-10.42-3.32,9.189-9.189-1.232-.894L116.5,92.059l11.519,3.671Z" transform="translate(-41.481 -49.919)" fill="#f4a202"/>
        <path id="Path_147" data-name="Path 147" d="M131.732,74.159l-.4-2.6-4.878-1.437-3.163-7.221,5.989-4.854-.205-1.292-9.346,7.595,3.151,7.208Z" transform="translate(-40.811 -54.852)" fill="#f4a202"/>
        <path id="Path_148" data-name="Path 148" d="M192.574,116.967l6.846-11.133-2.234-.724L189,118.416l20.768-1.219.857-1.28Z" transform="translate(-26.441 -44.822)" fill="#f4a202"/>
        <path id="Path_149" data-name="Path 149" d="M184.334,90.708l-6.387-8.718-4.286.447,7.112,9.708,7.365-2.789.036-.109Z" transform="translate(-29.623 -49.618)" fill="#f4a202"/>
        <path id="Path_150" data-name="Path 150" d="M150.024,59.611l3.26-3.646L151.7,55.18l-5.252,5.88,1.328,9.128,3.453-2.27Z" transform="translate(-35.268 -55.18)" fill="#f4a202"/>
        <path id="Path_151" data-name="Path 151" d="M214.364,89.953,216.4,82.02l-2.6-2.33L210.79,91.4l8.174,10.034,2.089-3.26Z" transform="translate(-21.921 -50.096)" fill="#f4a202"/>
        <path id="Path_152" data-name="Path 152" d="M154.532,114.274l4.781-14.924h-3.1l-5.24,16.361h15.709v-1.437Z" transform="translate(-34.33 -46.017)" fill="#f4a202"/>
        <path id="Path_153" data-name="Path 153" d="M158.483,87.747l-.4-2.608-1.884-.555-2.089-4.769,2.813-2.282-.193-1.292-6.182,5.023,2.089,4.769Z" transform="translate(-34.417 -50.811)" fill="#f4a202"/>
        <path id="Path_154" data-name="Path 154" d="M388.4,330.824c-21.975,47.392-53.127,77.035-87.781,77.035-66.494,0-120.418-109.225-120.418-243.988a464.869,464.869,0,0,1,10.179-98.2c-2.149,2.608-4.226,5.289-6.134,8.126A104.347,104.347,0,0,0,166.3,131.415L150.011,399.636a33.651,33.651,0,0,0,33.579,35.68H358.982a33.627,33.627,0,0,0,33.579-35.68Z" transform="translate(-149.949 -20.186)" fill="#561305"/>
        <g id="Group_69" data-name="Group 69" transform="translate(177.007 122.816)" opacity="0.2">
          <path id="Path_155" data-name="Path 155" d="M296.708,138.028c12.316,58.839,10.263,119.3,10.239,179.052,0,8.549,13.282,8.561,13.282,0,0-61,1.859-122.531-10.71-182.589-1.751-8.355-14.55-4.83-12.811,3.538Z" transform="translate(-296.546 -129.716)" fill="#fffcf5"/>
        </g>
        <g id="Group_70" data-name="Group 70" transform="translate(184.184 355.893)" opacity="0.2">
          <path id="Path_156" data-name="Path 156" d="M315.772,335.67v-6.279a6.641,6.641,0,0,0-13.282,0v6.279a6.641,6.641,0,0,0,13.282,0Z" transform="translate(-302.49 -322.75)" fill="#fffcf5"/>
        </g>
      </g>
    </g>
  </g>
</svg>
