<svg xmlns="http://www.w3.org/2000/svg" xmlns:xlink="http://www.w3.org/1999/xlink" width="824" height="995" viewBox="0 0 824 995">
  <defs>
    <clipPath id="clip-path">
      <path id="Path_368" data-name="Path 368" d="M430.4,142h713.988a55.4,55.4,0,0,1,55.4,55.4v937.1H375V197.4A55.4,55.4,0,0,1,430.4,142Z" transform="translate(527.1 -74.78)" fill="none"/>
    </clipPath>
    <clipPath id="clip-path-2">
      <path id="Path_349" data-name="Path 349" d="M1168.562,437.374c.987-64.562-22.158-111.2-61.069-159.944-8.248-10.369-137.835-136.385-142.008-118.025-7.429,33.268,13.2,72.859-8.169,105.1-26.638,40.075-84.461,31.018-127.772,34.037-72.78,5.032-138.121,21.281-169.021,93.419-27.733,65.045,4.6,131.837,57.971,172.484,46.369,35.221,106.373,49.724,159.9,69.712,45.56,16.959,81.57,34.284,131.215,26.756a23.853,23.853,0,0,0,3.779-.987c.651-.1,1.273-.089,1.973-.257C1124.757,634.039,1166.885,541.38,1168.562,437.374Z" transform="translate(-650.374 -157.581)" fill="none"/>
    </clipPath>
    <clipPath id="clip-path-4">
      <path id="Path_357" data-name="Path 357" d="M1150.366,684.734c-40.381-66.1-121.251-91.752-189.729-118.39L796.43,502.216c-65.519-25.651-119.08-47.188-191.318-44.968-100.937,3.108-162.125,80.643-156.866,177.831,5.327,100.73,96.7,186.227,184.244,224.891a21.106,21.106,0,0,0,5.525,1.588c42.275,64.8,98.214,100.631,185.181,105.564,93.469,5.377,197.8-2.23,270.964-65.055C1151.036,853.547,1193.44,755.245,1150.366,684.734Z" transform="translate(-447.932 -457.09)" fill="none"/>
    </clipPath>
    <clipPath id="clip-path-6">
      <path id="Path_364" data-name="Path 364" d="M967.39,961.668a23.027,23.027,0,0,0-12.766-16.012L495.351,729.969a22.751,22.751,0,0,0-30.367,10.616,22.16,22.16,0,0,0-1.884,6.225L329.487,1627.846a23.066,23.066,0,0,0,19.376,26,22.819,22.819,0,0,0,20.59-7.241L962.29,981.251A22.4,22.4,0,0,0,967.39,961.668Z" transform="translate(-329.262 -727.71)" fill="none"/>
    </clipPath>
    <clipPath id="clip-ice-cream3-3">
      <rect width="824" height="995"/>
    </clipPath>
  </defs>
  <g id="ice-cream3-3" clip-path="url(#clip-ice-cream3-3)">
    <g id="ice-cream-img3-3" transform="translate(-902.1 -67.22)" opacity="0.2" clip-path="url(#clip-path)">
      <g id="Group_219" data-name="Group 219" transform="translate(1173.779 82.592)" clip-path="url(#clip-path-2)">
        <path id="Path_346" data-name="Path 346" d="M1168.562,437.374c.987-64.562-22.158-111.2-61.069-159.944-8.248-10.369-137.835-136.385-142.008-118.025-7.429,33.268,13.2,72.859-8.169,105.1-26.638,40.075-84.461,31.018-127.772,34.037-72.78,5.032-138.121,21.281-169.021,93.419-27.733,65.045,4.6,131.837,57.971,172.484,46.369,35.221,106.373,49.724,159.9,69.712,45.56,16.959,81.57,34.284,131.215,26.756a23.853,23.853,0,0,0,3.779-.987c.651-.1,1.273-.089,1.973-.257C1124.757,634.039,1166.885,541.38,1168.562,437.374Z" transform="translate(-650.374 -157.581)" fill="#fbdbdc"/>
        <path id="Path_347" data-name="Path 347" d="M1149.65,450.114c-8.682-81.955-51.115-155.229-98.49-224.25-27.131-39.532-67.472-71.715-103.1-103.384,51.894,65.252,73.994,184.491,39.878,260.832-34.866,77.871-155.278,70.1-224.131,91.535s-41.15,121.892,27.279,118.745c59.284-2.743,119.84-25.454,171.29-52.891,54.735-29.252,78.7-78.8,90.519-136.839,2.427-11.839,4.065-23.678,5.308-35.389,20.541,46.369,37.678,102.427,21.379,151.785-17.67,53.483-72.218,78.088-125.947,74.842-50.7-3.078-52.417,70.56-2.348,68.252,93.37-4.351,192.66-64.513,199.349-163.772a285.345,285.345,0,0,0-.987-49.467Z" transform="translate(-651.362 -157.11)" fill="#f37d8d" opacity="0.3"/>
        <path id="Path_348" data-name="Path 348" d="M816.509,389.313c68.765-31.373,127.8-78.522,122.721-160.892-.523-8.317-13.329-8.8-14.69-.681C909.78,317.7,795.9,335.811,723.721,364.688,679.414,382.446,558.8,446.475,613.53,511.037c10.063,11.839,29.38,15.983,39.927,2.259,20.531-26.3,17.768-49.24,48.944-69.317C737.129,421.564,778.881,406.42,816.509,389.313Z" transform="translate(-649.692 -158.444)" fill="#f37d8d" opacity="0.5"/>
      </g>
      <g id="Group_220" data-name="Group 220" transform="translate(1173.779 82.592)" opacity="0.61" clip-path="url(#clip-path-2)">
        <path id="Path_350" data-name="Path 350" d="M880.572,92.756c42.857-28.927,99.3-18.281,144.87-.543,27.378,10.724,50.789,28.7,71.034,49.507,21.9,22.386,40.8,46.636,69.061,61.513,53.552,28.137,122.77-.2,173.638,35.389,18.745,13.062,31.038,30.712,43.558,49.428,15.272,22.543,34.224,38.753,56.492,54.262,35.882,24.931,75.71,46.951,97.977,85.931,17.048,29.923,21.942,71.517,3.828,101.095-12.293,20.136-35.25,75.641-66.959,68.015-17.758-4.3-9.2-35.517-30.673-35.754-16.288-.227-20.58,24.1-27.013,35.162-11.405,19.584-60.4,54.065-75.848,21.261-10.4-22.109,6.7-56.324,19.288-74.132,15.618-22,28.147-58,8.564-81.886-26.825-32.774-55.1,15.923-69.209,36.089-19.939,28.611-49.724,97.119-93.626,93.2-23.037-2.1-33.958-28.058-35.369-47.563-2.23-29.292,7.7-57.754,14.8-85.833,6.62-26.3,6.2-52.891,11.01-79.361,7.34-40.331,9.915-103.591-46.241-108.11-22.859-1.865-33.544,8.741-30.663,30.988,2.476,19.238,14.3,40.766-2.96,57.32-24.221,23.2-43.715-24.812-53.907-38.477-18.064-24.26-43.5-26.766-64.078-4.676-27.516,29.518-31.936,116.249-81.077,120.767-38.6,3.65-24.832-49.674-23.214-71.428.74-10.31,4.834-30.012-5.11-37.9-16.15-12.559-41.515,12.372-59.53,10.162C727.287,324.74,846.13,116,880.572,92.756Z" transform="translate(-652.232 -156.47)" fill="#ffa42c"/>
      </g>
      <path id="Path_352" data-name="Path 352" d="M926.9,512.675C832.524,468.348,757.484,404.043,709.635,333.67a134.472,134.472,0,0,0-49.013,60.694c-27.723,65.055,4.6,131.847,57.971,172.494,46.369,35.221,106.373,49.724,159.905,69.7,45.56,16.969,81.57,34.284,131.215,26.766a22.362,22.362,0,0,0,3.779-.987c.661-.089,1.273-.089,1.973-.247,60.418-14.226,100.266-49.053,124.141-95.008A566.151,566.151,0,0,1,926.9,512.675Z" transform="translate(523.403 -77.352)" fill="#fbdbdc"/>
      <g id="Group_224" data-name="Group 224" transform="translate(974.053 378.082)" clip-path="url(#clip-path-4)">
        <path id="Path_353" data-name="Path 353" d="M1150.366,684.734c-40.381-66.1-121.251-91.752-189.729-118.39L796.43,502.216c-65.519-25.651-119.08-47.188-191.318-44.968-100.937,3.108-162.125,80.643-156.866,177.831,5.327,100.73,96.7,186.227,184.244,224.891a21.106,21.106,0,0,0,5.525,1.588c42.275,64.8,98.214,100.631,185.181,105.564,93.469,5.377,197.8-2.23,270.964-65.055C1151.036,853.547,1193.44,755.245,1150.366,684.734Z" transform="translate(-447.932 -457.09)" fill="#fbdbdc"/>
        <g id="Group_221" data-name="Group 221" transform="translate(-134.851 138.09)" opacity="0.3">
          <path id="Path_354" data-name="Path 354" d="M1058.831,598.974c-29.6,41.8-76.49,70.432-121.557,93.725-48.688,25.1-101.115,42.916-153.907,57.577C686.476,777.15,585.993,788.753,485.224,777.4a416.336,416.336,0,0,1-84.274-17.364c-25.2-8.317-49.615-23.865-75.967-27.624a11.938,11.938,0,0,0-11.78,18.35c12.194,21.863,38.151,33.258,60.724,41.762a397.877,397.877,0,0,0,79.5,20.274c55.633,8.7,112.6,7.419,168.212.9,105.979-12.431,212.016-46.369,306.521-94.07,54.9-27.713,103.532-63.338,137.579-114.887,3.137-4.736-3.542-10.695-6.906-5.919Z" transform="translate(-311.247 -597.058)" fill="#f37d8d"/>
        </g>
        <g id="Group_222" data-name="Group 222" transform="translate(-124.021 96.76)" opacity="0.3">
          <path id="Path_355" data-name="Path 355" d="M977.754,561.01c-19.3,18.045-46.162,29.154-70.56,39.118a467.21,467.21,0,0,1-69.712,21.892c-50.661,11.839-103.492,15.331-155.268,16.4-59.678,1.135-120.363-.533-179.094-12.826a436.87,436.87,0,0,1-84.915-27.18c-27.792-12.125-52.506-30.357-80.357-42.186a10.931,10.931,0,0,0-13.723,16.032c32.607,51.628,106.955,75.1,163.467,86.819,64.947,13.437,131.807,14.029,197.474,8.4A909.534,909.534,0,0,0,847.081,639.4a390.065,390.065,0,0,0,75.2-28.394c23.323-11.967,40.844-28.67,58.7-47.356,1.727-1.855-1.223-4.2-2.96-2.506Z" transform="translate(-322.224 -555.167)" fill="#f37d8d"/>
        </g>
        <g id="Group_223" data-name="Group 223" transform="translate(248.742 35.15)" opacity="0.3">
          <path id="Path_356" data-name="Path 356" d="M701.974,921.172c191.051,37.7,361.365-122.78,431.846-282.951a478.938,478.938,0,0,0,25.572-71.872c5.426-20.9,9.935-47.78,3.1-69.061-2.121-6.4-10.27-5.554-13.21-.681-9.58,15.677-14.266,36.839-19.515,54.548-5.761,19.406-12.007,38.743-19.564,57.429a618.277,618.277,0,0,1-61.937,116.111C998.678,797.435,934.807,864.533,850.9,897.642c-47.2,18.617-97.2,26.638-148.066,18.528a2.585,2.585,0,0,0-2.772,2.417,2.644,2.644,0,0,0,1.973,2.674Z" transform="translate(-700.057 -492.719)" fill="#f37d8d"/>
        </g>
      </g>
      <g id="Group_225" data-name="Group 225" transform="translate(974.053 378.082)" opacity="0.44" clip-path="url(#clip-path-4)">
        <path id="Path_358" data-name="Path 358" d="M1225.955,655.7c-5.1-51.46-49.329-88.112-92.077-111.839-25.74-14.236-54.519-20.768-83.445-23.056-31.245-2.585-61.947-1.628-91.466-13.921-55.85-23.254-78.265-94.623-138.121-111.119-22-6.058-43.41-4.272-65.864-1.973-27.111,2.644-51.677-1.588-77.831-8.83-42.088-11.711-84.432-28.285-128.65-20.531-33.948,5.919-69.061,28.749-80.288,61.582-7.607,22.287-35.714,75.424-9.6,94.949,14.661,10.931,33.277-15.6,47.129.8,10.576,12.391-5.436,31.215-9.866,43.242-7.764,21.241-3.049,81,32.054,71.9,23.678-6.077,39.088-41.071,44.722-62.155,6.995-26.046,26.638-58.692,57.557-58.83,42.354-.276,22.938,52.575,16.387,76.292-9.294,33.642-43,100.246-11.928,131.59,16.318,16.377,43.271,8.218,59.195-3.147,26.638-18.982,43.992-50.03,63.536-75.385,14.937-19.337,40.894-45.383,68.005-43.469,46.646,3.3,5.318,43.212,25.158,63.546,14.493,14.878,39.009,11.1,53.966.3,20.491-14.8,32.123-43.706,61.6-42.038,45.56,2.555,38.654,61.415,38.477,92.6-.187,24.122,1.233,50.848,21.369,67.413,17.522,14.444,49.171,13.289,62.7-4.844,16.772-22.514,2.851-60.438,27.21-78.167,38.19-27.822,45.481,46.014,53.956,66.7a5.7,5.7,0,0,0,8.514,2.743C1211.9,740.942,1230.355,700.4,1225.955,655.7Z" transform="translate(-447.929 -455.82)" fill="#ffa42c"/>
      </g>
      <path id="Path_360" data-name="Path 360" d="M730.092,799.392C607.7,741.9,511.456,659.446,455.182,573.14a194.636,194.636,0,0,0-6.906,63.585c5.367,100.69,96.744,186.188,184.293,224.852a21.192,21.192,0,0,0,5.525,1.579c42.275,64.808,98.214,100.631,185.181,105.564,93.479,5.377,197.8-2.23,270.964-65.055a215.418,215.418,0,0,0,40.45-47.356C1024.37,885.136,875.524,867.713,730.092,799.392Z" transform="translate(526.121 -80.566)" fill="#fbdbdc"/>
      <path id="Path_361" data-name="Path 361" d="M967.39,961.668a23.027,23.027,0,0,0-12.766-16.012L495.351,729.969a22.751,22.751,0,0,0-30.367,10.616,22.16,22.16,0,0,0-1.884,6.225L329.487,1627.846a23.066,23.066,0,0,0,19.376,26,22.819,22.819,0,0,0,20.59-7.241L962.29,981.251A22.4,22.4,0,0,0,967.39,961.668Z" transform="translate(527.714 -82.64)" fill="#ecb55c"/>
      <g id="Group_226" data-name="Group 226" transform="translate(856.976 645.07)" clip-path="url(#clip-path-6)">
        <path id="Path_362" data-name="Path 362" d="M1503.628,1617.051l-9.511-25.572-208.77,73.411-29.074-78.66,208.8-73.481-9.481-25.651-208.8,73.471-29.035-78.759,208.77-73.332-9.471-25.651-208.8,73.481-29.055-78.65,208.77-73.5-9.481-25.651-208.8,73.48-29.045-78.65,208.829-73.441-9.609-25.651-208.741,73.52-29.1-78.522,208.8-73.48-9.471-25.651-208.81,73.48-29.173-78.857,208.81-73.481L1262.7,965.6l-208.81,73.481-29.1-78.63,208.81-73.481-9.165-25.473-208.987,73.431L986.344,856.3l208.8-73.48-9.461-25.651-208.8,73.421-28.946-78.6,208.682-73.579-9.471-25.651-208.81,73.49-29.094-78.631,208.839-73.461-9.511-25.651-208.81,73.481-29.045-78.65,208.8-73.51-9.442-25.779L861.246,517.7,784.509,309.93l-25.779,9.077,76.736,207.626-79.1,27.831L679.587,346.976l-25.779,9.077,76.756,207.616L651.449,591.51,574.664,383.894l-25.76,9.037,76.667,207.626-79.055,27.822-76.7-207.586-25.829,9.086,76.756,207.665-79.114,27.841L364.8,457.641,339,466.747l76.756,207.616-79.094,27.812L260.033,494.618l-25.779,9.067,76.953,207.7-79.134,27.841-76.953-207.7L129.331,540.6l76.7,207.754-79.015,27.7L50.385,568.483,24.606,577.56l76.756,207.616-79.242,27.8L-54.607,605.371l-25.809,9.057L-3.66,822.034l-79.065,27.822L-159.5,642.279l-25.779,9.076,76.786,207.468-79.065,27.822L-264.314,679.03l-25.8,9.106,76.776,207.586-79.173,27.93L-369.3,716.105l-25.8,9.106,76.805,207.517-208.81,73.481,9.461,25.651,208.82-73.52,29.1,78.63-208.81,73.54,9.461,25.651,208.81-73.48,29.065,78.621L-450,1214.861l9.52,25.651,208.8-73.481,29.045,78.65-208.82,73.431,9.511,25.651,208.77-73.5,29.084,78.66L-372.9,1423.4l9.55,25.839,208.81-73.48,29.075,78.67-208.869,73.283,9.471,25.651,208.8-73.48,29.252,78.749-208.968,73.382,9.481,25.651,208.8-73.48,29.065,78.62L-257.2,1736.3l9.382,25.474,208.81-73.52,29.065,78.62-208.81,73.48,9.511,25.651,208.81-73.451,29.015,78.926-208.7,73.441,9.461,25.651,208.82-73.51,29.084,78.66-208.81,73.48,9.481,25.651,208.8-73.48,29.084,78.67-208.8,73.48,9.471,25.651,208.76-73.3L191.989,2313.5l25.819-9.057-76.716-207.8,79.074-27.851L296.922,2276.4l25.819-9.057-76.786-207.636,79.1-27.841,76.746,207.656,25.8-9.106-76.657-207.5L429.982,1995l76.746,207.656,25.8-9.106-76.756-207.626,79.055-27.822,76.953,207.468,25.779-9.067-76.736-207.655,79.134-27.763,76.756,207.626,25.779-9.076-77.1-207.665,79.055-27.822,76.8,207.616,25.779-9.067L770.4,1875.111l79.074-27.861L926.1,2054.974l25.819-9.057-76.766-207.626,79.084-27.851L1031,2018.056l25.779-9.067L980.05,1801.384l79.084-27.861,76.756,207.626,25.927-9.126-76.746-207.616,79.094-27.812,76.756,207.626,25.8-9.106-76.756-207.626,79.094-27.891,76.756,207.626,25.779-9.077-76.746-207.655Zm-282.616-47.356-79.114,27.792-29.065-78.611,79.084-27.861ZM539.078,1249.332l79.065-27.822,29.084,78.66L568.1,1327.983Zm3.256,87.806-79.065,27.822-29.045-78.65,79.055-27.821Zm-12.707-113.447-29.035-78.759,79.045-27.7,29.114,78.512Zm-25.789,9.077-79.143,27.822-29.065-78.611,79.084-27.861Zm-104.883,36.918-79.134,27.881-29.055-78.64,79.035-27.911Zm9.461,25.651,29.094,78.63L358.4,1401.808l-29.045-78.591Zm38.556,104.3,29.094,78.63-79.114,27.841-29.045-78.65Zm25.829-9.087,79.065-27.821,29.094,78.63-79.134,27.871Zm104.844-36.9,79.114-27.841,29.094,78.63-79.114,27.841Zm104.992-36.868,79.074-27.851,29.065,78.611L711.7,1395.406Zm-9.511-25.651L644,1212.3l79.114-27.841,29.084,78.66ZM634.579,1186.8l-29.065-78.611,79.084-27.861L713.683,1159Zm-38.654-104.311-29.055-78.65,79.084-27.861,29.075,78.67Zm-25.789,9.067-79.094,27.812-29.065-78.621,79.084-27.851Zm-104.864,36.77-79.094,27.8-29.065-78.571L436.2,1049.7ZM360.25,1165.365,281.2,1193.2l-29.084-78.67,79.094-27.8Zm-104.893,36.888L176.283,1230.1l-29.084-78.66,79.094-27.812Zm9.491,25.651,29.065,78.611-79.005,27.891-29.084-78.67Zm38.526,104.281,29.1,78.63-79.094,27.831L224.339,1360Zm38.575,104.262,29.084,78.67-79.114,27.841-29.025-78.66Zm38.7,104.38,29.084,78.66-79.114,27.841-29.055-78.65Zm25.809-9.057,79.084-27.861,29.074,78.67-79.094,27.8Zm104.844-36.888,79.094-27.812,29.094,78.63-79.1,27.841ZM616.3,1458.014l79.065-27.822,29.065,78.611-79.084,27.861Zm104.864-36.928,79.055-27.822,29.1,78.63-79.114,27.841Zm104.893-36.908,79.094-27.812,29.065,78.611-79.084,27.861Zm-9.521-25.651-29.094-78.8,79.1-27.841,29.1,78.611ZM778,1254.275l-29.045-78.65,79.074-27.851,29.084,78.66Zm-38.556-104.3-29.183-78.709,79.114-27.841,29.074,78.66Zm-38.565-104.3-29.183-78.611,79.055-27.822,29.1,78.631ZM662.252,941.3l-29.035-78.64,79.055-27.8,29.094,78.63ZM636.374,950.5l-79.124,27.841L528.2,899.688l79.065-27.822ZM531.481,987.4l-79.1,27.841L423.322,936.6l79.084-27.851Zm-104.893,36.75-79.065,27.822-29.094-78.631L397.543,945.5Zm-104.765,36.809L242.758,1088.8l-29.094-78.631,79.114-27.841ZM216.88,1097.981,137.8,1125.832l-29.065-78.611,79.094-27.871Zm-104.7,37.007-79.1,27.841-29.045-78.65L83.1,1056.357Zm9.313,25.552,29.094,78.63-79.124,27.881-29.084-78.67Zm38.556,104.3,29.065,78.621-79.084,27.851-29.065-78.68Zm38.575,104.272,28.966,78.65-79.084,27.851-29.075-78.66Zm38.526,104.282,29.055,78.709-79.124,27.871-29.045-78.64Zm38.556,104.3,29.084,78.66-79.035,27.8-29.065-78.611Zm38.575,104.341,29.084,78.67-79.084,27.772-29.045-78.65Zm25.819-9.057,79.074-27.851,29.094,78.64-79.094,27.812Zm104.854-36.928,79.114-27.841,29.084,78.67L474.013,1714.7Zm104.992-36.868,79.084-27.851,29.075,78.66L579,1677.834Zm104.864-36.928,79.065-27.822,29.094,78.63L683.908,1640.9Zm104.893-36.908,79.005-27.891,29.065,78.621L788.7,1603.929Zm104.656-37.026,79.065-27.822,29.094,78.631-79.114,27.841Zm104.893-36.908,79.064-27.831,29.074,78.67-78.926,27.871Zm-9.511-25.651-29.005-78.749,79.084-27.861,29.212,78.729ZM921.22,1321.471l-29.094-78.63,79.1-27.831,29.055,78.64Zm-38.575-104.262-29.084-78.66,79.114-27.841,29.074,78.66Zm-38.556-104.3-28.877-78.4,79.065-27.822,29,78.582Zm-38.565-104.292-28.946-78.6,79.1-27.812,29.114,78.67Zm-38.546-104.3-29.065-78.621L817,797.844l29.094,78.63ZM728.57,800.122l-29.065-78.611L778.6,693.621l29.084,78.67Zm-25.789,9.086-79.1,27.812L594.622,758.41l79.045-27.841Zm-104.9,36.859-79.1,27.831-29.055-78.64,79.065-27.822ZM492.857,883.074l-79.074,27.861L384.767,832.3l79.094-27.812ZM388,920l-79.114,27.841L279.8,869.183l79.143-27.841ZM283.11,956.92l-78.986,27.743-29.045-78.65,79.074-27.861ZM178.532,993.68l-79.055,27.8-29.232-78.69,79.084-27.861ZM73.451,1030.647l-79.094,27.8L-34.7,979.887l79.074-27.861Zm-104.874,36.878-79.114,27.841-29.114-78.68,79.065-27.822Zm9.471,25.651,29.1,78.63-79.134,27.871-29.045-78.64ZM16.6,1197.458,45.847,1276.2l-79.1,27.841-29.065-78.65ZM55.18,1301.72l29.084,78.719-79.094,27.8-29.015-78.66Zm38.556,104.3,29.084,78.66-79.134,27.881-29.055-78.67Zm38.556,104.3,28.966,78.65-79.065,27.821-29.084-78.63ZM170.768,1614.6l29.094,78.63-79.1,27.841L91.7,1642.425Zm38.556,104.3,29.1,78.63-79.055,27.851-29.045-78.65Zm38.585,104.341L277,1901.876l-79.114,27.841-28.986-78.68Zm25.829-9.086,79.055-27.821,29.1,78.63-79.114,27.841Zm104.943-36.9,79.065-27.841,29.065,78.621-79.094,27.8ZM483.671,1740.4l79.074-27.861,29.035,78.621-79.074,27.851Zm104.854-36.928,79.114-27.841,29.045,78.64-79.094,27.812ZM693.4,1666.547l79.114-27.841,29.045,78.65L722.5,1745.178Zm104.656-37.026L877.12,1601.7l29.094,78.63-79.1,27.841Zm104.893-36.908,79.213-27.792,29.1,78.63-79.114,27.881Zm104.893-36.918,79.064-27.822,29.331,78.739-79.114,27.841Zm174.753-90.41L1103.5,1493.1l-29.163-78.67,79.084-27.851Zm-38.556-104.3-79.094,27.812-29.065-78.621,79.074-27.851Zm-38.555-104.291-79.114,27.841-29.341-78.63,79.094-27.812ZM1066.7,1152.608l-79.084,27.851-29.075-78.66,79.094-27.812Zm-38.477-104.42-79.114,27.841-29.075-78.66,79.094-27.812ZM989.649,943.926l-79.094,27.8-28.966-78.561,79.084-27.861ZM951.1,839.655,871.97,867.5l-29.094-78.631,79.114-27.841Zm-38.556-104.3-79.055,27.812-29.1-78.611,79.074-27.861Zm-67.61-182.942,29.084,78.66-79.114,27.841-29.045-78.65ZM740.044,589.32l29.084,78.67-79.094,27.762L660.97,617.141ZM635.191,626.238l29.084,78.66-79.143,27.831-29.065-78.621ZM530.3,663.195l28.927,78.571-79.065,27.822-29.094-78.631Zm-104.933,36.9,29.1,78.63-79.114,27.841-29.084-78.67ZM320.471,736.971l29.035,78.768-79.045,27.7-29.114-78.512ZM215.6,773.86l29.252,78.759L165.736,880.44l-29.045-78.65ZM110.7,810.768l29.084,78.66L60.675,917.269,31.63,838.629ZM5.811,847.685l29.144,78.532-79.094,27.8-29.134-78.65ZM-99.042,884.613-70,963.254l-79.065,27.831-29.084-78.67ZM-283.03,949.3l79.094-27.812,29.065,78.621-79.084,27.851Zm38.556,104.291,79.114-27.831,29.055,78.611-79.074,27.861ZM-206,1157.866l79.065-27.821,29.094,78.63-79.045,27.871Zm38.565,104.3,79.074-27.861,29.084,78.67-79.015,27.9Zm38.556,104.3,79.074-27.861,29.321,78.779-79.282,27.752Zm38.556,104.291,79.084-27.851,29.075,78.66-79.045,27.871ZM-51.8,1575.042l79.114-27.832,29.065,78.611-78.986,27.9Zm38.585,104.331,79.143-27.841L95,1730.152,15.874,1758Zm38.556,104.3,79.065-27.861,29.094,78.631-79.1,27.841Zm38.615,104.36,79.084-27.851,29.055,78.66L93,1966.685Zm67.67,182.9-29.045-78.65,79.084-27.861,29.075,78.67Zm104.893-36.918-29.1-78.6,79.074-27.851,29.045,78.66Zm104.893-36.908-29.114-78.68L391.4,1890.62l29.1,78.63Zm104.893-36.918-29-78.571,79.065-27.831,29.055,78.62Zm104.844-36.977-29.045-78.65,79.055-27.822,29.1,78.63Zm104.923-36.9-29.094-78.69,79.094-27.812,29.045,78.65Zm104.844-36.9-29.193-78.67,79.074-27.861,29.084,78.66Zm104.874-36.859-29.045-78.65,79.074-27.9,29.084,78.66Zm104.893-36.918L941.642,1697l79.065-27.831,29.173,78.719Zm104.893-36.908-29.045-78.65,79.055-27.821,29.1,78.63Zm104.893-36.918-29.084-78.68,79.094-27.812,29.1,78.63Z" transform="translate(-317.77 -722.103)" fill="#da741d"/>
        <path id="Path_363" data-name="Path 363" d="M1508.178,1607.363l-9.481-25.651-208.8,73.481-29.094-78.631,208.79-73.451-9.481-25.651-208.8,73.53-29.1-78.63,208.869-73.53-9.461-25.651-208.849,73.5-29.045-78.65,208.77-73.5-9.451-25.651-208.8,73.481-29.055-78.64,208.81-73.48-9.609-25.651-208.741,73.461-29.045-78.64,208.8-73.48-9.471-25.651-208.81,73.481-29.213-78.729,208.8-73.48-9.471-25.651-208.81,73.481-29.094-78.631,208.81-73.48-9.165-25.523-208.958,73.431-29.1-78.6,208.8-73.48-9.461-25.651L981.443,820.92l-28.956-78.571,208.77-73.49-9.481-25.651-208.8,73.441-29.183-78.709,208.83-73.461-9.511-25.651-208.76,73.382-29.045-78.65,208.75-73.382-9.511-25.651-208.77,73.5L789,300.39l-25.779,9.067,76.756,207.6L760.912,544.8,684.107,337.3l-25.779,9.077,76.756,207.616L655.97,581.832,579.214,374.216l-25.779,9.067,76.687,207.586-79.065,27.8L474.37,411.1l-25.829,9.1,76.786,207.636-79.094,27.8L369.348,447.992l-25.8,9.106,76.756,207.626L341.25,692.487,264.583,484.93,238.8,494.006,315.757,701.7l-79.114,27.841L159.72,521.848l-25.779,9.067L210.7,738.54l-79.1,27.841L54.935,558.825l-25.779,9.067,76.756,207.646L26.669,803.29l-76.7-207.665-25.809,9.057L.88,812.3l-79.114,27.92L-154.97,632.572l-25.8,9.106,76.756,207.616-79.025,27.861-76.756-207.616-25.848,9.116,76.756,207.626-79.074,27.772-76.756-207.616L-390.5,715.5l76.736,207.655-208.8,73.481,9.471,25.651,208.81-73.481,29.075,78.67-208.78,73.441,9.461,25.651,208.8-73.48,29.065,78.621-208.77,73.49,9.491,25.651,208.81-73.51,29.065,78.611L-406.9,1309.415l9.511,25.651,208.77-73.49,29.075,78.66-208.8,73.481,9.609,25.651,208.81-73.48,29.075,78.66-208.938,73.421,9.481,25.651,208.8-73.48,29.282,78.68-209,73.471,9.471,25.651,208.81-73.48,29.045,78.65-208.77,73.49,9.461,25.651,208.8-73.481,29.065,78.611-208.8,73.48,9.511,25.651,208.79-73.382,29.065,78.63-208.79,73.451,9.471,25.651,208.81-73.52,29.075,78.67-208.849,73.579,9.481,25.651,208.8-73.481,29.084,78.66-208.8,73.5,9.471,25.651,208.889-73.569,76.756,207.626,25.809-9.057-76.756-207.625,79.084-27.871,76.756,207.616,25.809-9.057-76.835-207.675,79.114-27.841,76.766,207.636,25.789-9.106-76.618-207.557,79.065-27.831,76.756,207.626,25.779-9.076L460.39,1976.206l79.055-27.822,76.865,207.675,25.789-9.106-76.766-207.6,79.1-27.831,76.756,207.616,25.789-9.077L669.95,1902.212l79.074-27.861,76.8,207.636,25.779-9.067-76.648-207.5,79.074-27.851,76.687,207.586,25.819-9.057-76.7-207.586,79.084-27.861,76.756,207.626,25.779-9.077L984.728,1791.6l79.084-27.851,76.736,207.655,25.829-9.1-76.756-207.616,79.114-27.841,76.707,207.636,25.8-9.106-76.756-207.656,79.094-27.812,76.756,207.626,25.779-9.077-76.756-207.616Zm-282.636-47.356-79.094,27.812-29.065-78.621,79.074-27.851ZM543.618,1239.674l79.074-27.861,29.084,78.719-79.1,27.8Zm3.266,87.717-79.114,27.92L438.7,1276.72l79.124-27.95ZM534.147,1214l-29.055-78.611,79.134-27.989,29.084,78.66Zm-25.789,9.106-79.094,27.812L400.2,1172.3l79.074-27.851Zm-104.893,36.918-79.183,27.891L295.227,1209.3l79.074-27.851Zm9.471,25.651,29.084,78.66-79.065,27.812-29.065-78.611Zm38.565,104.3,29.094,78.63-79.114,27.841-29.045-78.65Zm25.809-9.057,79.084-27.861,29.094,78.63-79.114,27.841Zm104.864-36.928,79.114-27.812,29.075,78.66-79.173,27.891Zm104.992-36.869,79.074-27.861,29.055,78.65-79.065,27.821Zm-9.491-25.651-29.1-78.63,79.074-28.019,29.084,78.66Zm-38.684-104.4-29.045-78.64,79.074-27.861,29.1,78.709Zm-38.477-104.281-29.055-78.64,79.084-27.861,29.075,78.66Zm-25.789,9.076-79.143,27.822-29.035-78.63,79.074-27.851Zm-104.933,37L390.7,1146.679l-29.065-78.611,79.114-28.009ZM364.8,1155.736l-79.065,27.821-29.094-78.63,79.114-27.841Zm-104.893,36.918-79.035,27.95-29.1-78.63,79.114-27.841Zm9.511,25.651,29.055,78.64-79.065,27.822-29.1-78.63Zm38.526,104.281,29.1,78.63-79.114,27.841-29.055-78.65Zm38.565,104.291,29.094,78.63-79.114,27.841-29.045-78.64ZM385.183,1531.2l29.075,78.591-79.065,27.831L306.128,1559Zm25.809-9.057,79.084-27.861,29.075,78.67-79.1,27.831Zm104.883-36.977,79.1-27.841,29.084,78.66-79.134,27.831ZM620.867,1448.3l79.065-27.822,29.045,78.611-79.084,27.861Zm104.844-36.9,79.074-27.851,29.065,78.65-79.222,27.871Zm104.883-36.908,79.114-27.841,29.045,78.64-79.065,27.831Zm-9.5-25.651-29.065-78.611,79.074-28.019,29.055,78.65Zm-38.644-104.331-28.946-78.6,79.065-27.861,29.084,78.67Zm-38.565-104.3-29.074-78.66,79.1-27.841L823,1112.365Zm-38.585-104.3-29.045-78.65,79.094-27.812,29.094,78.631ZM666.822,931.624l-29.045-78.65,79.065-27.822,29.075,78.64ZM641.043,940.7l-79.114,27.841-29.045-78.65,79.065-27.822ZM536.13,977.609l-79.114,27.8L427.971,926.8l79.074-27.851Zm-104.992,36.869L352.1,1042.328l-29.084-78.66,79.114-27.841Zm-104.893,36.908-79.065,27.831-29.094-78.63,79.242-27.95ZM221.42,1088.332l-79.065,27.822-29.065-78.611,79.084-27.861Zm-104.7,37.007-79.341,27.832L8.329,1074.55,87.4,1046.7Zm9.481,25.651,29.084,78.66-79.1,27.8-29.075-78.66Zm38.556,104.291,29.065,78.66-79.074,27.851-29.084-78.66Zm38.565,104.311,29.055,78.611-79.074,27.841-29.1-78.66ZM241.8,1463.874l29.1,78.63-79.094,27.812-29.065-78.62Zm38.575,104.272,29.084,78.66-79.094,27.8L201.3,1596Zm38.477,104.232,29.075,78.581-79.084,27.891-29.075-78.7Zm25.819-9.057,79.074-27.861,29.084,78.67-79.1,27.8ZM449.5,1626.374l79.1-27.841,29.084,78.67L478.592,1705Zm105.012-36.908,79.084-27.851,29.074,78.66-79.1,27.841Zm104.864-36.928,79.074-27.851,29.084,78.66L688.458,1631.2Zm104.893-36.908,79.094-27.782,29.045,78.65-79.065,27.822Zm104.637-37L948,1450.822l29.074,78.66-79.005,27.969ZM973.8,1441.725l79.084-27.861,29.074,78.67-79.094,27.871Zm-9.491-25.651-29.065-78.611,79.272-27.93,29.084,78.67Zm-38.477-104.281-29.134-78.63,79.1-27.841,29.055,78.65Zm-38.575-104.262-29.084-78.67,79.114-27.831,29.084,78.66Zm-38.6-104.3-28.818-78.542L898.9,996.867l29.094,78.63Zm-38.565-104.3-28.946-78.6,79.055-27.8,29.1,78.631ZM771.528,894.637l-29.065-78.65,79.074-27.851,29.1,78.63ZM733.14,790.415l-29.1-78.63,79.114-27.841,29.055,78.65Zm-25.8,9.106-79.094,27.8-29.065-78.611,79.074-27.861ZM602.467,836.4l-79.114,27.841-29.045-78.65,79.055-27.812Zm-105,36.869-79.074,27.851-29.084-78.66,79.124-27.683ZM392.612,910.2,313.5,938.037,284.423,859.4l79.1-27.841ZM287.719,947.1l-79.045,27.871-29.045-78.64L258.7,868.473ZM183.062,984.13l-79.094,27.8L74.874,933.321l78.976-28.068ZM78.169,1021.038-.925,1048.82-29.99,970.209l79.074-27.861Zm-105.061,36.839-79.143,27.91-29.084-78.749,79.084-27.861Zm9.481,25.651,29.144,78.611-79.114,27.841-29.045-78.65ZM21.164,1187.8l29.242,78.739-79.124,27.822-29.055-78.65ZM59.7,1292.111l29.1,78.63L9.69,1398.582l-29.045-78.65Zm38.575,104.262,29.084,78.65-79.124,27.822-29.1-78.63Zm38.565,104.3,28.976,78.611-79.1,27.831-29.094-78.63Zm38.477,104.282,29.114,78.6-79.094,27.8-29.065-78.611Zm38.565,104.3,29.075,78.66-79.094,27.812-29.045-78.65Zm38.585,104.311,29.1,78.631-79.114,27.841-29.045-78.65Zm25.819-9.057,79.074-27.851,29.084,78.66-79.094,27.812ZM383.141,1767.5l79.114-27.841,29.084,78.69-79.055,27.782Zm105-36.79,79.074-27.851,29.045,78.65-79.055,27.822ZM593,1693.787l79.114-27.841,29.045,78.65-79.094,27.812Zm104.893-36.908,79.094-27.812,29.065,78.621L727,1735.539Zm104.656-37.026,79.065-27.822,29.094,78.63L831.6,1698.5Zm104.883-36.878,79.074-27.861,29.094,78.63-78.926,27.91Zm104.923-36.918,79.084-27.851,29.331,78.739-79.262,27.891Zm174.733-90.292-79.094,27.812-29.065-78.6,79.035-28.029Zm-38.556-104.3-79.183,27.8-29.055-78.65,79.084-27.861Zm-38.565-104.292-79.094,27.841-29.292-78.759,79.1-27.812Zm-38.556-104.3-79.074,27.851-29.084-78.66,78.926-27.753Zm-38.477-104.281-79.114,27.841-29.075-78.67,79.094-27.8ZM994.357,934.317l-79.094,27.812L886.2,883.518l79.084-27.861Zm-38.7-104.341-79.094,27.8-29.1-78.63,79.114-27.831Zm-38.565-104.3-79.094,27.812-29.1-78.581,79.084-27.851ZM849.487,542.7l29.084,78.66-79.114,27.891-29.045-78.67ZM744.594,579.642l29.084,78.67-79.1,27.8L665.52,607.5ZM639.7,616.559,668.8,695.2,589.7,723.012,560.636,644.4ZM534.837,653.487l28.956,78.64-79.065,27.822-29.1-78.63ZM429.954,690.4l29.094,78.631-79.114,27.841-29.084-78.66Zm-104.982,37,29.1,78.63-79.065,27.723-29.055-78.63ZM220.1,764.27l29.3,78.65-79.114,27.841-29.045-78.65ZM115.254,801.09l29.084,78.66L65.225,907.591,36.18,828.941ZM10.42,837.869,39.5,916.529-39.57,944.341l-29.193-78.512ZM-94.5,874.925l29.055,78.65L-144.512,981.4l-29.094-78.591Zm-184,64.759,79.1-27.841,29.045,78.65-79.114,27.92Zm38.556,104.3,79.114-27.841,29.065,78.611-79.084,27.861Zm38.477,104.232,79.084-27.861,29.075,78.67-79.045,27.871Zm38.575,104.291,79.074-27.851,29.1,78.7-79.045,27.871Zm38.625,104.331,79.094-27.831,29.282,78.719-79.124,27.831Zm38.556,104.3,79.094-27.851,29.084,78.66-79.094,27.812Zm38.556,104.222,79.114-27.841,29.1,78.64L-18,1643.994ZM-8.6,1669.655l79.114-27.841,29.065,78.621-79.055,27.871Zm38.6,104.3,79.065-27.822,29.094,78.63-79.065,27.812ZM68.55,1878.248l79.065-27.822,29.1,78.63-79.153,27.881Zm67.63,183-29.065-78.611,79.074-27.861,29.084,78.65Zm104.874-36.878-29.045-78.68,79.065-27.822,29.094,78.631Zm104.893-36.918-29.114-78.68,79.094-27.8,29.1,78.63Zm104.893-36.9-29-78.581,79.074-27.861,29.055,78.65ZM555.7,1913.627l-29.065-78.7,79.074-27.851,29.084,78.66Zm104.923-36.9-29.094-78.63,79.1-27.841,29.055,78.65Zm104.854-36.967-29.223-78.7,79.074-27.851,29.074,78.66Zm104.883-36.878-29.045-78.65,79.055-27.861,29.084,78.67Zm104.893-36.918-29.055-78.65,79.084-27.851,29.144,78.69Zm104.943-36.908-29.055-78.65,79.065-27.822,29.094,78.63Zm104.8-36.839-29.075-78.66,79.094-27.8,29.084,78.66Z" transform="translate(-317.831 -721.975)" fill="#f6d184"/>
      </g>
      <path id="Path_365" data-name="Path 365" d="M529.074,745.755,495.53,729.969a22.751,22.751,0,0,0-30.377,10.625,22.248,22.248,0,0,0-1.894,6.235L329.627,1627.915a23.106,23.106,0,0,0,39.927,18.745l162.2-182.044C434.1,1282.573,428.65,1013.611,529.074,745.755Z" transform="translate(527.712 -82.64)" fill="#e1892b" opacity="0.3"/>
      <path id="Path_366" data-name="Path 366" d="M1016.541,1000.785c-9.57,20.333-34.067,28.946-54.735,19.238L442.065,775.874c-20.659-9.708-29.667-34.057-20.107-54.4h0c9.55-20.333,34.047-28.966,54.716-19.278L996.414,946.345C1017.093,956.053,1026.11,980.431,1016.541,1000.785Z" transform="translate(526.521 -82.244)" fill="#ecb55c"/>
      <path id="Path_367" data-name="Path 367" d="M977.176,987.418,457.465,743.269a41.328,41.328,0,0,1-23.727-36.129,39.591,39.591,0,0,0-11.79,14.453c-9.56,20.343-.552,44.692,20.107,54.4L961.8,1020.143c20.669,9.708,45.166,1.1,54.736-19.238a39.63,39.63,0,0,0,3.631-18.271,41.338,41.338,0,0,1-43,4.785Z" transform="translate(526.521 -82.364)" fill="#e1892b" opacity="0.3"/>
    </g>
  </g>
</svg>
