<svg xmlns="http://www.w3.org/2000/svg" xmlns:xlink="http://www.w3.org/1999/xlink" viewBox="0 0 551.45 645.84"><defs><style>.cls-1{fill:none;}.cls-2{isolation:isolate;}.cls-3,.cls-8{fill:#ecb55c;}.cls-4{clip-path:url(#clip-path);}.cls-5{fill:#da741d;}.cls-6{fill:#f6d184;}.cls-7{fill:#e1892b;opacity:0.3;}.cls-12,.cls-14,.cls-7,.cls-8{mix-blend-mode:multiply;}.cls-12,.cls-9{fill:#fdf9d6;}.cls-10{clip-path:url(#clip-path-3);}.cls-11{fill:#ebd09b;}.cls-13,.cls-14{fill:#eea453;}.cls-15{clip-path:url(#clip-path-4);}.cls-16{clip-path:url(#clip-path-5);}.cls-17{clip-path:url(#clip-path-6);}</style><clipPath id="clip-path" transform="translate(32.12 -2.15)"><path class="cls-1" d="M315.13,233.21a6,6,0,0,0-4.83-2.41H176.91a6,6,0,0,0-5.8,7.73l66.7,228.13a6,6,0,0,0,11.59,0l66.69-228.13A6,6,0,0,0,315.13,233.21Z"/></clipPath><clipPath id="clip-path-3" transform="translate(32.12 -2.15)"><path class="cls-1" d="M237.3,155.93c-3.57-1.25-7-2.4-10.11-3.47-27-9.15-68.39,5.8-70.75,37.68-2.84,38.36,30.77,61.08,64,68.64,31.91,7.27,119,7.4,96.22-49.28C305.77,182.44,265.89,166,237.3,155.93Z"/></clipPath><clipPath id="clip-path-4" transform="translate(32.12 -2.15)"><path class="cls-1" d="M239.16,112.71c-3.33-1.17-6.49-2.25-9.42-3.24-25.17-8.51-63.66,5.4-65.86,35.08-2.64,35.71,28.65,56.86,59.56,63.9,29.71,6.76,110.78,6.88,89.57-45.88C302.89,137.38,265.77,122.06,239.16,112.71Z"/></clipPath><clipPath id="clip-path-5" transform="translate(32.12 -2.15)"><path class="cls-1" d="M240.75,79.79c-2.8-1-5.47-1.89-7.94-2.73-21.2-7.17-53.63,4.55-55.48,29.55-2.22,30.08,24.13,47.9,50.17,53.83,25,5.7,93.32,5.8,75.46-38.65C294.44,100.57,263.17,87.66,240.75,79.79Z"/></clipPath><clipPath id="clip-path-6" transform="translate(32.12 -2.15)"><path class="cls-1" d="M281.48,69a30.08,30.08,0,0,0-6.73-4.75c-10.28-5.29-39.77-4.14-28.22-24.51C257.44,20.46,273.64,37.45,280,48c4.15-8.52-2.52-26.67-9.82-32C243.63-3.47,196,53.77,195,76.75c-1.64,40.42,68.93,46.41,89.92,22.9C293.62,89.9,290.14,77.08,281.48,69Z"/></clipPath></defs><title>ice-cream-img1</title><g class="cls-2"><g id="Layer_1" data-name="Layer 1"><path class="cls-3" d="M315.13,233.21a6,6,0,0,0-4.83-2.41H176.91a6,6,0,0,0-5.8,7.73l66.7,228.13a6,6,0,0,0,11.59,0l66.69-228.13A6,6,0,0,0,315.13,233.21Z" transform="translate(32.12 -2.15)"/><g class="cls-4"><path class="cls-5" d="M519.32,330.79l-5.12-5.12-41.47,41.47L457,351.43,498.49,310l-5.12-5.12L451.9,346.3l-15.7-15.7,41.46-41.47L472.54,284l-41.47,41.47-15.71-15.71,41.47-41.47-5.12-5.12-41.47,41.47-15.71-15.71L436,247.47l-5.12-5.12-41.47,41.47-15.7-15.71,41.47-41.47-5.13-5.12L368.59,263l-15.71-15.71,41.47-41.47-5.13-5.12-41.47,41.47-15.7-15.71L373.51,185l-5.12-5.12-41.47,41.47-15.71-15.71,41.47-41.47L347.56,159,306.09,200.5l-15.71-15.71,41.47-41.47-5.12-5.12-41.47,41.47L269.55,164,311,122.49l-5.12-5.12-41.47,41.47-15.71-15.71,41.47-41.47-5.12-5.12L243.6,138,202.13,96.54,197,101.66l41.47,41.47-15.71,15.71L181.3,117.37l-5.12,5.12L217.65,164l-15.71,15.71L160.47,138.2l-5.12,5.12,41.47,41.47L181.11,200.5,139.64,159l-5.12,5.12L176,205.62l-15.71,15.71-41.47-41.47L113.69,185l41.47,41.47-15.71,15.71L98,200.69l-5.12,5.12,41.47,41.47L118.62,263,77.15,221.52,72,226.64l41.47,41.47L97.79,283.82,56.32,242.35l-5.12,5.12,41.47,41.47L77,304.65,35.49,263.18l-5.12,5.12,41.47,41.47L56.13,325.48,14.66,284l-5.12,5.12L51,330.6,35.3,346.3-6.17,304.84-11.29,310l41.47,41.47L14.47,367.14-27,325.67l-5.12,5.12L9.35,372.26l-41.47,41.47,5.12,5.12,41.47-41.47,15.71,15.71-41.47,41.47,5.12,5.12L35.3,398.21,51,413.92,9.54,455.39l5.12,5.12L56.13,419l15.71,15.71L30.37,476.22l5.12,5.12L77,439.87l15.71,15.71L51.2,497.05l5.12,5.12L97.79,460.7l15.71,15.71L72,517.88,77.15,523l41.47-41.47,15.71,15.71L92.86,538.71,98,543.83l41.47-41.46,15.7,15.7-41.46,41.47,5.12,5.12,41.47-41.47L176,538.9l-41.47,41.47,5.12,5.12L181.11,544l15.71,15.71L155.35,601.2l5.12,5.12,41.47-41.47,15.71,15.71L176.18,622l5.12,5.12,41.47-41.47,15.71,15.71L197,642.86l5.12,5.12,41.47-41.47L285.07,648l5.12-5.12-41.47-41.47,15.71-15.71,41.47,41.47L311,622l-41.47-41.47,15.71-15.71,41.47,41.47,5.12-5.12-41.47-41.47L306.09,544l41.47,41.47,5.12-5.12L311.21,538.9l15.71-15.71,41.47,41.47,5.12-5.12L332,518.07l15.71-15.71,41.47,41.47,5.13-5.12-41.48-41.47,15.71-15.71L410.05,523l5.13-5.12L373.7,476.41l15.71-15.71,41.47,41.47,5.12-5.12-41.47-41.47,15.71-15.71,41.47,41.47,5.12-5.12-41.47-41.47L431.07,419l41.47,41.47,5.12-5.12L436.2,413.92l15.7-15.71,41.47,41.47,5.12-5.12L457,393.09l15.7-15.71,41.47,41.47,5.12-5.12-41.46-41.47Zm-72.54,20.64-15.71,15.71-15.71-15.71,15.71-15.71Zm-198.06,0,15.71-15.71,15.71,15.71-15.71,15.71Zm10.59,20.83L243.6,388l-15.71-15.71,15.71-15.71Zm-15.71-26-15.71-15.7,15.71-15.71,15.71,15.71Zm-5.12,5.13-15.71,15.71-15.71-15.71,15.71-15.71Zm-20.83,20.83L201.94,388l-15.71-15.71,15.71-15.71Zm5.12,5.12,15.71,15.71L222.77,408.8l-15.71-15.71Zm20.83,20.83,15.71,15.71L243.6,429.63l-15.71-15.71Zm5.12-5.12,15.71-15.71,15.71,15.71L264.43,408.8Zm20.83-20.83,15.71-15.71L301,372.26,285.26,388Zm20.83-20.83,15.71-15.71,15.71,15.71-15.71,15.71Zm-5.12-5.12L269.55,330.6l15.71-15.71L301,330.6Zm-20.83-20.83-15.71-15.71,15.71-15.71,15.71,15.71ZM243.6,304.65l-15.71-15.71,15.71-15.71,15.71,15.71Zm-5.12,5.12-15.71,15.71-15.71-15.71,15.71-15.71ZM217.65,330.6l-15.71,15.71L186.23,330.6l15.71-15.71Zm-20.83,20.83-15.71,15.71L165.4,351.43l15.71-15.71ZM176,372.26,160.28,388l-15.71-15.71,15.71-15.71Zm5.12,5.12,15.71,15.71L181.11,408.8,165.4,393.09Zm20.83,20.83,15.71,15.71-15.71,15.71-15.71-15.71ZM222.77,419l15.71,15.71-15.71,15.71-15.71-15.71Zm20.83,20.83,15.71,15.71L243.6,471.29l-15.71-15.71Zm5.12-5.12L264.43,419l15.71,15.71-15.71,15.71Zm20.83-20.83,15.71-15.71L301,413.92l-15.71,15.71Zm20.83-20.83,15.71-15.71,15.71,15.71L306.09,408.8Zm20.83-20.83,15.71-15.71,15.71,15.71L326.92,388ZM332,351.43l15.71-15.71,15.71,15.71-15.71,15.71Zm-5.12-5.13-15.71-15.7,15.71-15.71,15.71,15.71Zm-20.83-20.82-15.71-15.71,15.71-15.71,15.71,15.71Zm-20.83-20.83-15.71-15.71,15.71-15.71L301,288.94Zm-20.83-20.83-15.71-15.71,15.71-15.71,15.71,15.71ZM243.6,263l-15.71-15.71,15.71-15.71,15.71,15.71Zm-5.12,5.12-15.71,15.71-15.71-15.71,15.71-15.71Zm-20.83,20.83-15.71,15.71-15.71-15.71,15.71-15.71Zm-20.83,20.83-15.71,15.71L165.4,309.77l15.71-15.71ZM176,330.6l-15.71,15.7-15.71-15.7,15.71-15.71Zm-20.84,20.83-15.7,15.71-15.71-15.71,15.71-15.71Zm-20.82,20.83L118.62,388l-15.71-15.71,15.71-15.71Zm5.12,5.12,15.71,15.71L139.45,408.8l-15.71-15.71Zm20.83,20.83L176,413.92l-15.71,15.71-15.71-15.71ZM181.11,419l15.71,15.71-15.71,15.71L165.4,434.75Zm20.83,20.83,15.71,15.71-15.71,15.71-15.71-15.71Zm20.83,20.83,15.71,15.71-15.71,15.71-15.71-15.71Zm20.83,20.83,15.71,15.71L243.6,513l-15.71-15.71Zm5.12-5.12,15.71-15.71,15.71,15.71-15.71,15.71Zm20.83-20.83,15.71-15.71L301,455.58l-15.71,15.71Zm20.83-20.83L306.09,419l15.71,15.71-15.71,15.71Zm20.83-20.83,15.71-15.71,15.71,15.71-15.71,15.71ZM332,393.09l15.71-15.71,15.71,15.71L347.75,408.8Zm20.83-20.83,15.71-15.71,15.71,15.71L368.58,388Zm20.83-20.83,15.71-15.71,15.71,15.71-15.71,15.71Zm-5.12-5.13-15.71-15.7,15.71-15.71,15.71,15.71Zm-20.83-20.82-15.7-15.71,15.7-15.71,15.71,15.71Zm-20.83-20.83-15.71-15.71,15.71-15.71,15.71,15.71Zm-20.83-20.83-15.71-15.71,15.71-15.71,15.71,15.71ZM285.26,263l-15.71-15.71,15.71-15.71L301,247.28Zm-20.83-20.83-15.71-15.71,15.71-15.71,15.71,15.71ZM243.6,221.33l-15.71-15.71,15.71-15.71,15.71,15.71Zm-5.12,5.12-15.71,15.71-15.71-15.71,15.71-15.71Zm-20.83,20.83L201.94,263l-15.71-15.71,15.71-15.71Zm-20.83,20.83-15.71,15.71-15.7-15.71,15.7-15.71ZM176,288.94l-15.71,15.71-15.71-15.71,15.71-15.71Zm-20.83,20.83-15.71,15.71-15.71-15.71,15.71-15.71ZM134.33,330.6l-15.71,15.71L102.91,330.6l15.71-15.71ZM113.5,351.43,97.79,367.14,82.08,351.43l15.71-15.71ZM92.67,372.26,77,388,61.25,372.26,77,356.55Zm5.12,5.12,15.71,15.71L97.79,408.8,82.08,393.09Zm20.83,20.83,15.71,15.71-15.71,15.71-15.71-15.71ZM139.45,419l15.71,15.71-15.71,15.71-15.71-15.71Zm20.83,20.83L176,455.58l-15.71,15.71-15.71-15.71Zm20.83,20.83,15.71,15.71-15.71,15.71-15.7-15.71Zm20.83,20.83,15.71,15.71L201.94,513l-15.71-15.71Zm20.83,20.83,15.71,15.71-15.71,15.71-15.71-15.71Zm20.83,20.83,15.71,15.71L243.6,554.61,227.89,538.9Zm5.12-5.12,15.71-15.71,15.71,15.71-15.71,15.71Zm20.83-20.83,15.71-15.71L301,497.24,285.26,513Zm20.83-20.83,15.71-15.71,15.71,15.71-15.71,15.71Zm20.83-20.83,15.71-15.71,15.71,15.71-15.71,15.71Zm20.84-20.83L347.75,419l15.71,15.71-15.71,15.71Zm20.82-20.83,15.71-15.71,15.71,15.71-15.71,15.71Zm20.83-20.83,15.71-15.71,15.71,15.71L389.41,408.8Zm20.83-20.83,15.71-15.71L426,372.26,410.24,388ZM426,330.6l-15.71,15.71L394.53,330.6l15.71-15.71Zm-20.83-20.83-15.71,15.71L373.7,309.77l15.71-15.71Zm-20.83-20.83-15.71,15.71-15.7-15.71,15.71-15.71Zm-20.83-20.83-15.71,15.71-15.7-15.71,15.7-15.71Zm-20.83-20.83L326.92,263l-15.71-15.71,15.71-15.71ZM321.8,226.45l-15.71,15.71-15.71-15.71,15.71-15.71ZM301,205.62l-15.71,15.71-15.71-15.71,15.71-15.71Zm-20.83-20.83L264.43,200.5l-15.71-15.71,15.71-15.71ZM243.6,148.25,259.31,164,243.6,179.67,227.89,164Zm-20.83,20.83,15.71,15.71L222.77,200.5l-15.71-15.71Zm-20.83,20.83,15.71,15.71-15.71,15.71-15.71-15.71Zm-20.83,20.83,15.71,15.71-15.71,15.71L165.4,226.45Zm-20.83,20.83L176,247.28,160.28,263l-15.71-15.71ZM139.45,252.4l15.71,15.71-15.71,15.71-15.71-15.71Zm-20.83,20.83,15.71,15.71-15.71,15.71-15.71-15.71ZM97.79,294.06l15.71,15.71L97.79,325.48,82.08,309.77ZM77,314.89,92.67,330.6,77,346.31,61.25,330.6ZM56.13,335.72l15.71,15.71L56.13,367.14,40.42,351.43ZM19.59,372.26,35.3,356.55,51,372.26,35.3,388Zm20.83,20.83,15.71-15.71,15.71,15.71L56.13,408.8Zm20.83,20.83L77,398.21l15.71,15.71L77,429.63Zm20.83,20.83L97.79,419l15.71,15.71L97.79,450.46Zm20.83,20.83,15.71-15.71,15.71,15.71-15.71,15.71Zm20.83,20.83,15.71-15.71,15.71,15.71-15.71,15.71Zm20.83,20.83,15.71-15.7L176,497.24,160.28,513Zm20.83,20.83,15.71-15.71,15.71,15.71-15.71,15.71Zm20.83,20.83,15.71-15.71,15.71,15.71-15.71,15.71Zm20.83,20.83L222.77,544l15.71,15.71-15.71,15.71Zm36.54,36.54-15.71-15.71,15.71-15.71,15.71,15.71Zm20.83-20.83-15.71-15.71L264.43,544l15.71,15.71Zm20.83-20.83L269.55,538.9l15.71-15.71L301,538.9Zm20.83-20.83-15.71-15.71,15.71-15.71,15.71,15.71ZM326.92,513l-15.71-15.71,15.71-15.71,15.71,15.71Zm20.83-20.83L332,476.41l15.71-15.71,15.71,15.71Zm20.83-20.83-15.71-15.71,15.71-15.71,15.71,15.71Zm20.83-20.83L373.7,434.75,389.41,419l15.71,15.71Zm20.83-20.83-15.71-15.71,15.71-15.71L426,413.92Zm20.83-20.83-15.71-15.71,15.71-15.71,15.71,15.71ZM451.9,388l-15.7-15.71,15.7-15.71,15.71,15.71Z" transform="translate(32.12 -2.15)"/><path class="cls-6" d="M519.32,328l-5.12-5.12-41.47,41.47L457,348.61l41.46-41.47L493.37,302,451.9,343.49l-15.7-15.71,41.46-41.47-5.12-5.12-41.47,41.47L415.36,307l41.47-41.47-5.12-5.12-41.47,41.47-15.71-15.71L436,244.65l-5.12-5.12L389.41,281l-15.7-15.71,41.47-41.47-5.13-5.12-41.46,41.47-15.71-15.71L394.35,203l-5.13-5.12-41.47,41.47-15.7-15.71,41.46-41.47L368.39,177l-41.47,41.47L311.21,202.8l41.47-41.47-5.12-5.12-41.47,41.47L290.38,182l41.47-41.47-5.12-5.12-41.47,41.47-15.71-15.71L311,119.67l-5.12-5.12L264.43,156l-15.71-15.71,41.47-41.47-5.12-5.12L243.6,135.19,202.13,93.72,197,98.84l41.47,41.47L222.77,156,181.3,114.55l-5.12,5.12,41.47,41.47-15.71,15.71-41.47-41.47-5.12,5.12L196.82,182l-15.71,15.71-41.47-41.47-5.12,5.12L176,202.8l-15.71,15.71L118.81,177l-5.12,5.12,41.47,41.47-15.71,15.71L98,197.87,92.86,203l41.47,41.47-15.71,15.71L77.15,218.7,72,223.82l41.47,41.47L97.79,281,56.32,239.53l-5.12,5.12,41.47,41.47L77,301.83,35.49,260.36l-5.12,5.12L71.84,307,56.13,322.66,14.66,281.19l-5.12,5.12L51,327.78,35.3,343.49-6.17,302l-5.12,5.12,41.47,41.47L14.47,364.32-27,322.85-32.12,328,9.35,369.44l-41.47,41.47L-27,416l41.47-41.47,15.71,15.71-41.47,41.47,5.12,5.12L35.3,395.4,51,411.1,9.54,452.57l5.12,5.12,41.47-41.46,15.71,15.7L30.37,473.4l5.12,5.12L77,437.05l15.71,15.71L51.2,494.23l5.12,5.12,41.47-41.47,15.71,15.71L72,515.06l5.12,5.12,41.47-41.47,15.71,15.71L92.86,535.89,98,541l41.47-41.47,15.7,15.71-41.46,41.47,5.12,5.12,41.47-41.46L176,536.08l-41.47,41.47,5.12,5.12,41.47-41.47,15.71,15.71-41.47,41.47,5.12,5.12L201.94,562l15.71,15.71-41.47,41.47,5.12,5.12,41.47-41.47,15.71,15.71L197,640l5.12,5.12,41.47-41.47,41.47,41.47,5.12-5.12-41.47-41.47,15.71-15.71,41.47,41.47,5.12-5.12-41.47-41.47L285.26,562l41.47,41.47,5.12-5.12-41.47-41.47,15.71-15.7,41.47,41.46,5.12-5.12-41.47-41.47,15.71-15.7,41.47,41.46,5.12-5.12L332,515.25l15.71-15.71L389.22,541l5.13-5.12-41.48-41.47,15.71-15.71,41.47,41.47,5.13-5.12L373.7,473.59l15.71-15.71,41.47,41.47,5.12-5.12-41.47-41.47,15.71-15.71,41.47,41.47,5.12-5.12-41.47-41.47,15.71-15.71,41.47,41.47,5.12-5.12L436.2,411.1l15.7-15.71,41.47,41.47,5.12-5.12L457,390.27l15.7-15.71L514.2,416l5.12-5.12-41.46-41.47Zm-72.54,20.64-15.71,15.71-15.71-15.71,15.71-15.7Zm-198.06,0,15.71-15.71,15.71,15.71-15.71,15.71Zm10.59,20.83L243.6,385.15l-15.71-15.71,15.71-15.71ZM243.6,343.49l-15.71-15.71,15.71-15.71,15.71,15.71Zm-5.12,5.12-15.71,15.71-15.71-15.71,15.71-15.71Zm-20.83,20.83-15.71,15.71-15.71-15.71,15.71-15.71Zm5.12,5.12,15.71,15.71L222.77,406l-15.71-15.71ZM243.6,395.4l15.71,15.7L243.6,426.81,227.89,411.1Zm5.12-5.13,15.71-15.71,15.71,15.71L264.43,406Zm20.83-20.83,15.71-15.71L301,369.44l-15.71,15.71Zm20.83-20.83,15.71-15.7,15.71,15.7-15.71,15.71Zm-5.12-5.12-15.71-15.71,15.71-15.71L301,327.78Zm-20.83-20.83L248.72,307l15.71-15.71L280.14,307ZM243.6,301.83l-15.71-15.71,15.71-15.71,15.71,15.71ZM238.48,307l-15.71,15.71L207.06,307l15.71-15.71Zm-20.83,20.83-15.71,15.71-15.71-15.71,15.71-15.71Zm-20.83,20.83-15.71,15.71L165.4,348.61l15.71-15.71ZM176,369.44l-15.71,15.71-15.71-15.71,15.71-15.71Zm5.12,5.12,15.71,15.71L181.11,406,165.4,390.27Zm20.83,20.84,15.71,15.7-15.71,15.71L186.23,411.1Zm20.83,20.83,15.71,15.7-15.71,15.71-15.71-15.71Zm20.83,20.82,15.71,15.71L243.6,468.47l-15.71-15.71Zm5.12-5.12,15.71-15.71,15.71,15.71-15.71,15.71Zm20.83-20.83,15.71-15.71L301,411.1l-15.71,15.71Zm20.83-20.83,15.71-15.71,15.71,15.71L306.09,406Zm20.83-20.83,15.71-15.71,15.71,15.71-15.71,15.71ZM332,348.61l15.71-15.71,15.71,15.71-15.71,15.71Zm-5.12-5.12-15.71-15.71,15.71-15.71,15.71,15.71Zm-20.83-20.83L290.38,307l15.71-15.71L321.8,307Zm-20.83-20.83-15.71-15.71,15.71-15.71L301,286.12ZM264.43,281l-15.71-15.71,15.71-15.71,15.71,15.71ZM243.6,260.17l-15.71-15.71,15.71-15.71,15.71,15.71Zm-5.12,5.12L222.77,281l-15.71-15.71,15.71-15.71Zm-20.83,20.83-15.71,15.71-15.71-15.71,15.71-15.71ZM196.82,307l-15.71,15.71L165.4,307l15.71-15.71ZM176,327.78l-15.71,15.71-15.71-15.71,15.71-15.71Zm-20.84,20.83-15.7,15.71-15.71-15.71,15.71-15.7Zm-20.82,20.83-15.71,15.71-15.71-15.71,15.71-15.71Zm5.12,5.12,15.71,15.71L139.45,406l-15.71-15.71Zm20.83,20.84L176,411.1l-15.71,15.71L144.57,411.1Zm20.83,20.83,15.71,15.7-15.71,15.71L165.4,431.93Zm20.83,20.83,15.71,15.7-15.71,15.71-15.71-15.71Zm20.83,20.82,15.71,15.71L222.77,489.3l-15.71-15.71Zm20.83,20.83,15.71,15.71L243.6,510.13l-15.71-15.71Zm5.12-5.12,15.71-15.71,15.71,15.71L264.43,489.3Zm20.83-20.83,15.71-15.71L301,452.76l-15.71,15.71Zm20.83-20.83,15.71-15.71,15.71,15.71-15.71,15.71Zm20.83-20.83,15.71-15.71,15.71,15.71-15.71,15.71ZM332,390.27l15.71-15.71,15.71,15.71L347.75,406Zm20.83-20.83,15.71-15.71,15.71,15.71-15.71,15.71Zm20.83-20.83,15.71-15.71,15.71,15.71-15.71,15.71Zm-5.12-5.12-15.71-15.71,15.71-15.71,15.71,15.71Zm-20.83-20.83L332.05,307l15.7-15.7L363.46,307Zm-20.83-20.83-15.71-15.71,15.71-15.71,15.71,15.71ZM306.09,281l-15.71-15.71,15.71-15.71,15.71,15.71Zm-20.83-20.83-15.71-15.71,15.71-15.71L301,244.46Zm-20.83-20.83-15.71-15.71,15.71-15.71,15.71,15.71ZM243.6,218.51,227.89,202.8l15.71-15.71,15.71,15.71Zm-5.12,5.12-15.71,15.71-15.71-15.71,15.71-15.71Zm-20.83,20.83-15.71,15.71-15.71-15.71,15.71-15.71Zm-20.83,20.83L181.11,281l-15.7-15.71,15.7-15.71ZM176,286.12l-15.71,15.71-15.71-15.71,15.71-15.71ZM155.16,307l-15.71,15.71L123.74,307l15.71-15.7Zm-20.83,20.83-15.71,15.71-15.71-15.71,15.71-15.71ZM113.5,348.61,97.79,364.32,82.08,348.61l15.71-15.7ZM92.67,369.44,77,385.15,61.25,369.44,77,353.73Zm5.12,5.12,15.71,15.71L97.79,406,82.08,390.27Zm20.83,20.83,15.71,15.71-15.71,15.71L102.91,411.1Zm20.83,20.84,15.71,15.7-15.71,15.71-15.71-15.71Zm20.83,20.82L176,452.76l-15.71,15.71-15.71-15.71Zm20.83,20.84,15.71,15.7L181.11,489.3l-15.7-15.71Zm20.83,20.82,15.71,15.71-15.71,15.71-15.71-15.71Zm20.83,20.83,15.71,15.71L222.77,531l-15.71-15.71Zm20.83,20.84,15.71,15.7L243.6,551.79l-15.71-15.71Zm5.12-5.13,15.71-15.71,15.71,15.71L264.43,531Zm20.83-20.83,15.71-15.71L301,494.42l-15.7,15.71Zm20.83-20.83,15.71-15.71,15.71,15.71L306.09,489.3Zm20.83-20.83,15.71-15.71,15.71,15.71-15.71,15.71Zm20.84-20.83,15.7-15.7,15.71,15.7-15.71,15.71Zm20.82-20.83,15.71-15.7,15.71,15.7-15.71,15.71Zm20.83-20.83,15.71-15.71,15.71,15.71L389.41,406Zm20.83-20.83,15.71-15.71L426,369.44l-15.71,15.7ZM426,327.78l-15.71,15.71-15.71-15.71,15.71-15.71ZM405.12,307l-15.71,15.71L373.7,307l15.71-15.71Zm-20.83-20.83-15.71,15.71-15.7-15.71,15.71-15.7Zm-20.83-20.83L347.75,281l-15.7-15.71,15.7-15.71Zm-20.83-20.83-15.71,15.71-15.71-15.71,15.71-15.71ZM321.8,223.63l-15.71,15.71-15.71-15.71,15.71-15.71ZM301,202.8l-15.71,15.71L269.55,202.8l15.71-15.7ZM280.14,182l-15.71,15.71L248.72,182l15.71-15.71ZM243.6,145.43l15.71,15.71L243.6,176.85l-15.71-15.71Zm-20.83,20.83L238.48,182l-15.71,15.71L207.06,182Zm-20.83,20.83,15.71,15.71-15.71,15.71L186.23,202.8Zm-20.83,20.83,15.71,15.71-15.71,15.71L165.4,223.63Zm-20.83,20.83L176,244.46l-15.71,15.71-15.71-15.71Zm-20.83,20.83,15.71,15.71L139.45,281l-15.71-15.71Zm-20.83,20.83,15.71,15.71-15.71,15.71-15.71-15.71ZM97.79,291.25,113.5,307,97.79,322.66,82.08,307ZM77,312.07l15.71,15.71L77,343.49,61.25,327.78ZM56.13,332.9l15.71,15.71L56.13,364.32,40.42,348.61ZM19.59,369.44,35.3,353.73,51,369.44,35.3,385.15Zm20.83,20.83,15.71-15.71,15.71,15.71L56.13,406ZM61.25,411.1,77,395.39,92.67,411.1,77,426.81Zm20.83,20.83,15.71-15.71,15.71,15.71L97.79,447.64Zm20.83,20.83,15.71-15.71,15.71,15.71-15.71,15.71Zm20.83,20.83,15.71-15.71,15.71,15.71L139.45,489.3Zm20.83,20.83,15.71-15.71L176,494.42l-15.71,15.71Zm20.83,20.83,15.71-15.71,15.71,15.71L181.11,531Zm20.83,20.83,15.71-15.71,15.71,15.71-15.71,15.71Zm20.83,20.83,15.71-15.71,15.71,15.71-15.71,15.71Zm36.54,36.54-15.71-15.71L243.6,562l15.71,15.71Zm20.83-20.83-15.71-15.71,15.71-15.71,15.71,15.71Zm20.83-20.83-15.71-15.71,15.71-15.7L301,536.08ZM306.09,531l-15.71-15.71,15.71-15.71,15.71,15.71Zm20.83-20.83-15.71-15.71,15.71-15.71,15.71,15.71Zm20.83-20.83L332,473.59l15.71-15.71,15.71,15.71Zm20.83-20.83-15.71-15.71,15.71-15.71,15.71,15.71Zm20.83-20.83L373.7,431.93l15.71-15.71,15.71,15.71Zm20.83-20.83L394.53,411.1l15.71-15.71L426,411.1ZM431.07,406l-15.71-15.71,15.71-15.71,15.71,15.71Zm20.83-20.83-15.7-15.71,15.7-15.71,15.71,15.71Z" transform="translate(32.12 -2.15)"/></g><path class="cls-7" d="M186.7,230.8h-9.79a6,6,0,0,0-5.8,7.73l66.7,228.13a6,6,0,0,0,11.59,0l18.25-62.44C224.08,371.32,192.74,306.94,186.7,230.8Z" transform="translate(32.12 -2.15)"/><g class="cls-4"><path class="cls-8" d="M316.14,227.42a26,26,0,0,0-6-14.63c-10.37-12.21-25.24-20.11-39.52-26.81-20.94-9.82-46.31-21.86-69.82-17.4-18,3.41-29,15.56-29.39,34-.42,19.33,9.45,48.94,23.77,62.48,7,6.66,18.42,9.29,27.69,11.41,1.95.44,4.1.85,6.42,1.23,5.74,7,4.53,19.07,9.16,26.84,4.12,6.9,13.73,5.47,17.38-.87,3.25-5.67.38-14.85,5.91-19.3,6.13-4.93,7.37-.88,8.47,4.65,2.15,10.81-6.82,36.32,12.27,36,16.46-.27,8.25-33.67,9.32-42.86,1.17-10,10.68-15.93,16.25-25.2C313.22,248.36,317.11,237.46,316.14,227.42Z" transform="translate(32.12 -2.15)"/></g><path class="cls-9" d="M316.64,209.5c-10.87-27.06-50.75-43.52-79.34-53.57-3.57-1.25-7-2.4-10.11-3.47-27-9.15-68.39,5.8-70.75,37.68-2.84,38.36,30.77,61.08,64,68.64,1.94.45,4.1.86,6.42,1.24,5.74,7,4.52,19.07,9.16,26.84,4.11,6.9,13.73,5.47,17.37-.88,3.26-5.66.38-14.84,5.91-19.29,6.13-4.93,7.38-.89,8.48,4.65,2.14,10.81-6.82,36.31,12.26,36,15.88-.25,7.75-35.1,9.63-49.41C312.23,251.72,327.93,237.58,316.64,209.5Z" transform="translate(32.12 -2.15)"/><g class="cls-10"><path class="cls-11" d="M169.18,149.51A33.76,33.76,0,0,0,165.47,174c1.92,8.07,6.64,15.23,12.06,21.38a112.64,112.64,0,0,0,19,16.72,113.31,113.31,0,0,0,19.24,11.4A121.34,121.34,0,0,0,260.52,234a118,118,0,0,0,45.66-6.72c14.34-5.26,27.62-13.71,37.53-25.44,1.28-1.51,2.5-3.08,3.68-4.67a2.52,2.52,0,0,0-.9-3.42,2.56,2.56,0,0,0-3.42.9c-8.58,11.65-20.54,20.38-33.77,26.05a110,110,0,0,1-42.58,8.42,118.69,118.69,0,0,1-43.22-7.74,114.82,114.82,0,0,1-37-23.87C175.76,187.26,165.87,173,171,157.59A32.21,32.21,0,0,1,173.5,152c1.57-2.82-2.75-5.34-4.32-2.53Z" transform="translate(32.12 -2.15)"/></g><path class="cls-12" d="M289.65,245.07a83.39,83.39,0,0,0-.07,13.55c0-.22,0-.46.07-.67,19.59-5.41,34-16.77,30.09-38C316.89,233.1,304.84,240.88,289.65,245.07Z" transform="translate(32.12 -2.15)"/><path class="cls-12" d="M267.76,258.46c-1.1-5.54-2.35-9.58-8.48-4.65-5.53,4.45-2.65,13.63-5.91,19.29-3.64,6.35-13.26,7.78-17.37.88-4.64-7.77-3.42-19.88-9.16-26.84-2.32-.38-4.48-.79-6.42-1.24-29.9-6.8-60.11-25.91-63.76-57.65-.08.63-.17,1.25-.22,1.89-2.84,38.36,30.77,61.08,64,68.64,1.94.45,4.1.86,6.42,1.24,5.74,7,4.52,19.07,9.16,26.84,4.11,6.9,13.73,5.47,17.37-.88,3.26-5.66.38-14.84,5.91-19.29,6.09-4.9,7.36-.94,8.46,4.54C268,266.38,268.41,261.74,267.76,258.46Z" transform="translate(32.12 -2.15)"/><path class="cls-12" d="M280,294.48c-8.4.13-11.37-4.75-12.23-11.17-.72,11.35-1.38,24.26,12.23,24.05,10.15-.16,10.49-14.46,9.9-28.49C289.32,287.62,287,294.37,280,294.48Z" transform="translate(32.12 -2.15)"/><path class="cls-13" d="M239.16,112.71c-3.33-1.17-6.49-2.25-9.42-3.24-25.17-8.51-63.66,5.4-65.86,35.08-2.64,35.71,28.65,56.86,59.56,63.9,29.71,6.76,110.78,6.88,89.57-45.88C302.89,137.38,265.77,122.06,239.16,112.71Z" transform="translate(32.12 -2.15)"/><path class="cls-14" d="M231.49,192.35c-30.91-7-62.2-28.19-59.56-63.9a36.19,36.19,0,0,1,.6-4.23,34.44,34.44,0,0,0-8.65,20.33c-2.64,35.71,28.65,56.86,59.56,63.9,25.68,5.84,89.75,6.72,92.93-27.25C297.74,198.54,252.17,197.05,231.49,192.35Z" transform="translate(32.12 -2.15)"/><g class="cls-15"><path class="cls-9" d="M186.15,113.61a41.13,41.13,0,0,0-3.37,19.13,33.53,33.53,0,0,0,5.72,15.86,48.45,48.45,0,0,0,13,12.59A83.29,83.29,0,0,0,220,170.4a128.54,128.54,0,0,0,22.17,5.75,161.08,161.08,0,0,0,24,2.23,157.46,157.46,0,0,0,24-1.36A122.84,122.84,0,0,0,312.48,172a79,79,0,0,0,18.57-8.74,47.38,47.38,0,0,0,13.23-12.59,37.34,37.34,0,0,0,2.19-3.64c.29-.57-.57-1.07-.87-.5a41.67,41.67,0,0,1-11.47,13.31,69.13,69.13,0,0,1-17.29,9.53,111.62,111.62,0,0,1-21.23,5.82,148.44,148.44,0,0,1-23.43,2.22,161.73,161.73,0,0,1-24-1.33,136.81,136.81,0,0,1-22.47-4.8,93.88,93.88,0,0,1-19.32-8.18A54.8,54.8,0,0,1,192,151.52a34.21,34.21,0,0,1-7.6-14.81,35.93,35.93,0,0,1,1-18,50.42,50.42,0,0,1,1.74-4.87c.24-.59-.73-.85-1-.26Z" transform="translate(32.12 -2.15)"/></g><path class="cls-9" d="M240.75,79.79c-2.8-1-5.47-1.89-7.94-2.73-21.2-7.17-53.63,4.55-55.48,29.55-2.22,30.08,24.13,47.9,50.17,53.83,25,5.7,93.32,5.8,75.46-38.65C294.44,100.57,263.17,87.66,240.75,79.79Z" transform="translate(32.12 -2.15)"/><path class="cls-12" d="M229.11,146c-24-5.46-48.2-21-50.15-46.92a28.25,28.25,0,0,0-1.63,7.58c-2.22,30.08,24.13,47.9,50.17,53.83,23.34,5.31,84.28,5.74,77.91-30.27C295,151.43,248.76,150.42,229.11,146Z" transform="translate(32.12 -2.15)"/><g class="cls-16"><path class="cls-11" d="M189,79.91c-.82,9.84.81,19.94,5.92,28.5,4.61,7.74,11.68,13.73,19.6,17.89a84.53,84.53,0,0,0,27.12,8.44,124.35,124.35,0,0,0,29.55.78A105.5,105.5,0,0,0,297.33,130c.89-.33,1.78-.67,2.66-1a2.58,2.58,0,0,0,1.75-3.08,2.52,2.52,0,0,0-3.08-1.74,81.64,81.64,0,0,1-11.33,3.63c-2.08.51-4.18,1-6.28,1.35-1.11.2-2.22.38-3.33.55l-1.57.23-.44.06-.85.11a124.62,124.62,0,0,1-28.37.25c-2.39-.26-4.09-.5-6.61-1-2.3-.4-4.59-.89-6.85-1.46s-4.5-1.23-6.71-2-4.14-1.52-5.88-2.3a58.77,58.77,0,0,1-11.14-6.55l-.31-.24-.63-.51-1.22-1q-1.19-1.05-2.31-2.19c-.74-.75-1.46-1.53-2.14-2.33q-.48-.57-.93-1.14c-.18-.22,0,0,0,.06l-.21-.27c-.18-.24-.36-.48-.53-.73-5.32-7.39-7.47-15.78-7.32-24.8,0-1.35.1-2.69.21-4a2.51,2.51,0,0,0-2.5-2.5,2.56,2.56,0,0,0-2.5,2.5Z" transform="translate(32.12 -2.15)"/></g><path class="cls-13" d="M281.48,69a30.08,30.08,0,0,0-6.73-4.75c-10.28-5.29-39.77-4.14-28.22-24.51C257.44,20.46,273.64,37.45,280,48c4.15-8.52-2.52-26.67-9.82-32C243.63-3.47,196,53.77,195,76.75c-1.64,40.42,68.93,46.41,89.92,22.9C293.62,89.9,290.14,77.08,281.48,69Z" transform="translate(32.12 -2.15)"/><path class="cls-14" d="M259.41,26.84a23.36,23.36,0,0,0-1.9,4.18c8.86-.82,18.06,9.63,22.5,16.94,3.7-7.59-1.2-22.8-7.47-29.8C268,17.69,263.34,19.91,259.41,26.84Z" transform="translate(32.12 -2.15)"/><path class="cls-14" d="M207.89,63.87c.39-9.4,8.59-24.52,20-37.79C210.28,41,195.53,64.07,195,76.75c-1.64,40.42,68.93,46.41,89.92,22.9a20.24,20.24,0,0,0,3.7-5.89C261.34,108.4,206.44,99.58,207.89,63.87Z" transform="translate(32.12 -2.15)"/><g class="cls-17"><path class="cls-9" d="M275.86,2.16A81.06,81.06,0,0,0,259,8.65a69,69,0,0,0-15,10.4A49.67,49.67,0,0,0,233,33.21a38.18,38.18,0,0,0-4.24,17A30.12,30.12,0,0,0,232,63.54a38,38,0,0,0,8.54,11,54,54,0,0,0,12.22,8.24A64.77,64.77,0,0,0,267,87.86a59.48,59.48,0,0,0,14.68,1.61A42.67,42.67,0,0,0,295,87.2c1-.35,2-.76,2.94-1.2.59-.27.08-1.14-.5-.87a37.42,37.42,0,0,1-12.61,3.18,55.75,55.75,0,0,1-14.13-.7,64.1,64.1,0,0,1-14.21-4.2A56.62,56.62,0,0,1,244,76.12,40.86,40.86,0,0,1,234.57,66,30,30,0,0,1,230,53.6a34.38,34.38,0,0,1,2.27-16.2,45.25,45.25,0,0,1,9.43-14.73,63.38,63.38,0,0,1,14-11.07,78.87,78.87,0,0,1,16.39-7.31c1.34-.42,2.69-.81,4.05-1.16a.5.5,0,0,0-.27-1Z" transform="translate(32.12 -2.15)"/></g></g></g></svg>