<svg xmlns="http://www.w3.org/2000/svg" xmlns:xlink="http://www.w3.org/1999/xlink" width="587" height="1607" viewBox="0 0 587 1607">
  <defs>
    <clipPath id="clip-path">
      <path id="Path_38" data-name="Path 38" d="M688.271,239.221a21.715,21.715,0,0,0-17.322-8.42H192.57a21.72,21.72,0,0,0-17.409,8.381,20.528,20.528,0,0,0-3.392,18.627l239.207,797.048a21.671,21.671,0,0,0,41.565,0L691.714,257.808A20.529,20.529,0,0,0,688.271,239.221Z" transform="translate(-170.855 -230.8)" fill="none"/>
    </clipPath>
    <clipPath id="clip-path-3">
      <path id="Path_44" data-name="Path 44" d="M446.865,171.209c-12.8-4.367-25.1-8.385-36.258-12.124-96.831-31.968-245.268,20.264-253.732,131.648C146.69,424.757,267.226,504.137,386.4,530.55c114.44,25.4,426.772,25.854,345.076-172.176C692.42,263.831,549.4,206.392,446.865,171.209Z" transform="translate(-156.272 -149.803)" fill="none"/>
    </clipPath>
    <clipPath id="clip-path-4">
      <path id="Path_51" data-name="Path 51" d="M434.262,126.95c-11.942-4.088-23.275-7.861-33.783-11.32C310.211,85.9,172.174,134.5,164.284,238.194c-9.468,124.765,102.748,198.659,213.6,223.256,106.55,23.618,397.292,24.038,321.227-160.3C662.818,213.143,529.694,159.617,434.262,126.95Z" transform="translate(-163.724 -107)" fill="none"/>
    </clipPath>
    <clipPath id="clip-path-5">
      <path id="Path_55" data-name="Path 55" d="M405.113,91.788c-10.042-3.494-19.617-6.6-28.475-9.538C300.608,57.2,184.3,98.147,177.669,185.493c-7.962,105.095,86.538,167.355,179.926,188.073,89.658,19.915,334.675,20.264,270.624-135.037C597.663,164.39,485.519,119.285,405.113,91.788Z" transform="translate(-177.199 -74.979)" fill="none"/>
    </clipPath>
    <clipPath id="clip-path-6">
      <path id="Path_60" data-name="Path 60" d="M505.218,211.078a107.929,107.929,0,0,0-24.136-16.6C444.214,176,338.454,180.018,379.876,108.848c39.127-67.361,97.225-8,120.034,28.859,14.883-29.767-9.038-93.181-35.218-111.8C369.475-42.12,198.659,157.867,195.073,238.155c-5.882,141.221,247.2,162.149,322.482,80.009C548.755,284.1,536.275,239.308,505.218,211.078Z" transform="translate(-194.972 -12.028)" fill="none"/>
    </clipPath>
    <clipPath id="clip-ice-cream-img-1">
      <rect width="587" height="1607"/>
    </clipPath>
  </defs>
  <g id="ice-cream-img-1" clip-path="url(#clip-ice-cream-img-1)">
    <g id="ice-cream-img1" transform="translate(-188.392 -9.878)">
      <g id="Layer_1" data-name="Layer 1" transform="translate(188.392 9.878)">
        <path id="Path_35" data-name="Path 35" d="M688.271,239.221a21.715,21.715,0,0,0-17.322-8.42H192.57a21.72,21.72,0,0,0-17.409,8.381,20.528,20.528,0,0,0-3.392,18.627l239.207,797.048a21.671,21.671,0,0,0,41.565,0L691.714,257.808A20.529,20.529,0,0,0,688.271,239.221Z" transform="translate(-118.555 533.552)" fill="#ecb55c"/>
        <g id="Group_20" data-name="Group 20" transform="translate(52.3 764.351)" clip-path="url(#clip-path)">
          <path id="Path_36" data-name="Path 36" d="M1945.52,914.971l-18.362-17.888-148.725,144.889-56.413-54.888,148.8-144.75-18.362-17.888L1703.73,969.16l-56.305-54.853,148.689-144.889-18.362-17.923L1629.027,896.384,1572.686,841.5l148.725-144.889-18.362-17.888L1554.324,823.607l-56.341-54.888,148.724-144.854-18.362-17.889L1479.621,750.865l-56.305-54.888,148.725-144.889-18.4-17.888L1404.954,678.124l-56.341-54.888,148.725-144.889-18.4-17.888L1330.215,605.347l-56.305-54.888L1422.6,405.6l-18.362-17.888L1255.512,532.606l-56.341-54.888L1347.9,332.828l-18.362-18.063L1180.809,459.759l-56.341-54.888,148.724-144.889-18.362-17.888L1106.106,386.983l-56.341-54.748,148.653-145.029-18.362-17.888L1031.331,314.206,974.99,259.318l148.725-144.889L1105.353,96.54,956.7,241.394,807.975,96.54l-18.4,17.888L938.3,259.318l-56.341,54.888L733.272,169.317,714.91,187.205,863.635,332.234l-56.341,54.888L658.569,242.093l-18.362,17.888L788.932,404.871l-56.341,54.888L583.866,314.765,565.5,332.653l148.76,144.994-56.341,54.888L509.2,387.646,490.8,405.6,639.526,550.494l-56.341,54.888L434.532,460.423,416.17,478.311,564.895,623.2l-56.413,54.923L359.757,533.2l-18.47,17.888L490.012,695.977l-56.233,54.888L285.054,605.976l-18.362,17.889L415.417,768.754l-56.2,54.888L210.351,678.753l-18.362,17.889L340.714,841.53l-56.341,54.888L135.648,751.494l-18.362,17.888L265.975,914.307,209.67,969.16,60.945,824.306,42.583,842.334,191.308,987.223l-56.341,54.749L-13.758,897.083-32.12,914.971,116.6,1059.86-32.12,1204.75l18.362,17.888,148.725-144.889,56.341,54.888L42.583,1277.526l18.362,17.889,148.725-144.89,56.305,54.888L117.286,1350.3l18.362,17.888,148.725-145.029,56.341,54.888L191.989,1423.079l18.362,17.888,148.868-144.889,56.341,54.888L266.692,1495.856l18.362,17.888,148.725-144.889,56.341,54.888L341.288,1568.632l18.47,17.889,148.725-144.89,56.341,54.888L416.1,1641.409l18.434,17.889,148.725-144.855,56.305,54.853L490.873,1714.186l18.362,17.889L657.96,1587.185l56.3,54.888L565.54,1786.962l18.362,17.889,148.688-144.959,56.341,54.888L640.207,1859.739l18.362,17.888,148.725-144.889,56.341,54.888L714.91,1932.411l18.362,17.888L882,1805.41l56.341,54.888L789.577,2005.292l18.362,17.888,148.725-144.889,148.761,144.959,18.362-17.889L975.062,1860.473l56.341-54.888,148.725,144.889,18.29-18.063-148.725-144.889,56.341-54.889,148.725,144.89,18.362-17.888L1124.4,1714.745l56.413-54.854,148.724,144.889,18.362-17.889-148.725-144.819,56.341-54.888,148.725,144.89,18.362-17.889L1273.73,1569.3l56.341-54.888L1478.8,1659.3l18.4-17.889L1348.433,1496.52l56.341-54.888,148.868,144.89,18.4-17.889L1423.28,1423.743l56.341-54.888,148.725,144.889,18.362-17.888-148.725-144.889,56.341-54.888,148.725,144.889,18.362-17.888L1572.686,1278.19l56.341-55.028,148.725,144.889,18.362-17.888-148.689-144.75,56.305-54.888,148.725,144.889,18.362-17.888-148.8-144.889,56.305-54.888,148.725,144.889,18.362-17.888-148.689-144.89Zm-260.152,72.113-56.341,54.888-56.341-54.888,56.341-54.888Zm-710.307,0L1031.4,932.2l56.341,54.888-56.341,54.888Zm37.979,72.777L956.7,1114.853l-56.341-54.888,56.341-54.888ZM956.7,969.02l-56.341-54.853L956.7,859.279l56.341,54.888Zm-18.362,17.924L882,1041.832l-56.341-54.888L882,932.056Zm-74.7,72.777-56.341,55.133-56.341-54.888,56.341-54.888ZM882,1077.609l56.341,54.888L882,1187.525l-56.341-54.888Zm74.7,72.776,56.341,54.888L956.7,1260.3l-56.341-54.888Zm18.362-17.889,56.341-54.888,56.341,54.888-56.341,55.028Zm74.7-72.776,56.341-54.888,56.449,55.028-56.449,54.993Zm74.7-72.777,56.341-54.888,56.341,54.888-56.341,54.888Zm-18.362-17.888-56.341-54.749,56.341-54.888,56.449,54.888Zm-74.7-72.777-56.341-54.888L1031.4,786.5l56.341,54.888Zm-74.7-72.637-56.341-54.888L956.7,713.866l56.341,54.888ZM938.338,841.53,882,896.418,825.656,841.53,882,786.642Zm-74.7,72.777L807.294,969.2l-56.341-54.888,56.341-54.888Zm-74.7,72.776-56.341,54.888L676.25,987.083,732.591,932.2Zm-74.667,72.777-56.377,54.993-56.341-54.888,56.341-54.888Zm18.362,17.889,56.341,54.888-56.377,54.888-56.341-54.888Zm74.7,72.776,56.341,54.888L807.33,1260.3l-56.341-54.888ZM882,1223.162l56.341,54.888L882,1332.938l-56.341-54.888Zm74.7,72.777,56.341,54.888L956.7,1405.855l-56.341-54.888Zm18.362-17.889,56.341-54.888,56.341,54.888-56.341,54.888Zm74.7-72.776,56.341-54.888,56.449,55.028-56.341,54.888Zm74.7-72.777,56.341-54.888,56.341,54.888-56.341,55.028Zm74.7-72.776,56.341-54.888,56.341,54.888-56.341,55.133Zm74.56-72.637,56.341-54.888,56.341,54.888-56.341,54.888Zm-18.362-17.923-56.341-54.853,56.341-54.888,56.341,54.888Zm-74.7-72.742-56.341-54.888,56.341-54.888,56.341,54.888Zm-74.7-72.776-56.341-54.888,56.341-54.888,56.592,54.888Zm-74.7-72.777-56.341-54.888,56.341-54.888,56.341,54.888ZM956.7,678.124l-56.341-54.888L956.7,568.347l56.341,54.888Zm-18.362,17.888L882,750.9l-56.341-54.888L882,641.124Zm-74.7,72.776-56.341,54.888-56.341-54.888L807.294,713.9Zm-74.7,72.776-56.341,54.888L676.25,841.53l56.341-54.888Zm-74.667,72.742L657.924,969.16l-56.341-54.853,56.341-54.888Zm-74.739,72.776-56.305,54.888L526.88,987.083,583.221,932.2Zm-74.667,72.777-56.377,54.993-56.341-54.888,56.341-54.888Zm18.362,17.888,56.341,54.888-56.377,54.888-56.341-54.888Zm74.7,72.776,56.341,54.888L657.924,1260.3l-56.341-54.888Zm74.667,72.637,56.341,54.888-56.341,54.888L676.25,1278.19Zm74.7,72.777,56.341,54.888-56.341,54.888-56.341-54.888Zm74.7,72.776,56.341,54.888L882,1478.491,825.656,1423.6Zm74.7,72.777,56.341,54.888-56.341,55.2-56.341-54.888Zm18.362-17.889,56.341-54.888,56.341,54.888-56.341,54.888Zm74.7-72.777,56.341-54.888,56.449,55.028-56.341,54.888Zm74.7-72.776,56.341-54.888,56.341,54.888-56.341,54.888Zm74.7-72.776,56.341-54.888,56.341,54.888-56.341,54.888Zm74.56-72.637,56.341-54.888,56.341,54.888-56.2,54.888Zm74.7-72.777,56.341-54.888,56.341,54.888-56.2,54.993Zm74.7-72.776,56.341-54.888,56.341,54.888-56.341,54.888Zm-18.362-17.924-56.341-54.853,56.341-54.888,56.341,54.888Zm-74.7-72.742-56.305-54.888,56.305-54.888,56.341,54.888Zm-74.7-72.777-56.341-54.888,56.341-54.888,56.341,54.888Zm-74.7-72.776-56.341-54.888,56.341-54.888,56.341,54.888Zm-74.56-72.742-56.341-54.888,56.341-54.888,56.449,54.853Zm-74.7-72.777-56.341-54.888,56.341-54.888,56.341,54.888Zm-74.7-72.811-56.341-54.888L956.7,422.759l56.341,54.888Zm-18.362,17.888L882,605.312l-56.341-54.888L882,495.536Zm-74.7,72.776-56.341,54.923-56.341-54.888,56.341-54.888Zm-74.7,72.776-56.341,54.888-56.3-54.888,56.3-54.888Zm-74.667,72.777-56.341,54.888-56.341-54.888,56.341-54.888Zm-74.7,72.776-56.341,54.888L526.88,841.53l56.341-54.888Zm-74.739,72.777L508.482,969.2l-56.341-54.888,56.341-54.888Zm-74.7,72.776-56.341,54.888-56.341-54.888L433.779,932.2Zm-74.7,72.777-56.2,54.993-56.485-54.993,56.485-54.888Zm18.362,17.889,56.341,54.888-56.341,54.888-56.341-54.888Zm74.7,72.776,56.341,54.888L508.482,1260.3l-56.341-54.888Zm74.7,72.637,56.341,54.888-56.341,54.888-56.341-54.888Zm74.7,72.777,56.377,55.028-56.341,54.888-56.341-54.888Zm74.7,72.776,56.341,54.888-56.341,54.888-56.3-54.888Zm74.7,72.777,56.341,54.888-56.341,55.2-56.341-54.888Zm74.7,72.776,56.341,54.888L882,1624.044l-56.341-54.888Zm74.7,72.777,56.341,54.888L956.7,1696.961l-56.341-54.888Zm18.362-17.889,56.341-54.888,56.341,54.888-56.341,54.888Zm74.7-72.776,56.341-54.888,56.449,55.028-56.449,55.063Zm74.7-72.777,56.341-54.888,56.341,54.888-56.341,54.888Zm74.7-72.776,56.341-54.888,56.341,54.888-56.341,54.888Zm74.739-72.776,56.306-54.888,56.341,54.888-56.341,54.888Zm74.667-72.776,56.341-54.888,56.341,54.888-56.341,54.888Zm74.7-72.777,56.341-54.888,56.341,54.888-56.341,55.028Zm74.7-72.777,56.341-54.888,56.521,55.028-56.521,54.993Zm112.862-145.414L1554.5,969.2l-56.52-54.888,56.341-54.888Zm-74.7-72.776L1479.8,896.419l-56.52-54.888,56.341-54.888Zm-74.7-72.777L1405.1,823.642l-56.306-54.888,56.341-54.888Zm-74.7-72.776-56.341,54.888-56.305-54.888,56.305-54.888Zm-74.7-72.777-56.52,54.923-56.341-54.888,56.341-54.888Zm-74.882-72.777-56.341,54.888-56.341-54.888,56.341-54.888Zm-74.6-72.777-56.341,54.888-56.341-54.888,56.341-54.888Zm-74.7-72.777L1031.4,459.759l-56.341-54.888,56.341-54.888ZM956.7,277.206l56.341,55.028L956.7,386.983l-56.341-54.748ZM882,349.983l56.341,54.888L882,459.759l-56.341-54.888Zm-74.7,72.777,56.341,54.888-56.341,54.888-56.341-54.888Zm-74.7,72.777,56.341,54.888-56.341,54.888L676.25,550.424Zm-74.7,72.777L714.265,623.2l-56.377,54.923-56.341-54.888Zm-74.7,72.777,56.341,54.888-56.341,54.888-56.341-54.888Zm-74.7,72.777,56.341,54.888-56.341,54.888-56.341-54.888Zm-74.7,72.777L490.12,841.53l-56.341,54.888L377.438,841.53Zm-74.56,72.777,56.2,54.888-56.2,54.888-56.485-54.888ZM284.373,932.2l56.341,54.888-56.341,54.888-56.341-54.888ZM153.329,1059.86l56.341-54.888,56.305,54.888-56.305,54.993Zm74.7,72.777,56.341-54.888,56.341,54.888-56.341,54.888Zm74.7,72.777,56.485-54.888,56.341,54.888L359.219,1260.3Zm74.7,72.776,56.341-55.028,56.341,54.888-56.341,55.028Zm74.7,72.776,56.341-54.888,56.341,54.888-56.341,54.888Zm74.7,72.777,56.341-54.888,56.341,54.888-56.341,54.888Zm74.7,72.777,56.341-54.854,56.377,54.854-56.377,55.063Zm74.7,72.776,56.341-54.888,56.341,54.888-56.341,54.888Zm74.7,72.777,56.341-54.888,56.341,54.888-56.341,54.888Zm74.7,72.777L882,1659.891l56.341,54.888L882,1769.668ZM956.7,1842.514l-56.341-54.888,56.341-54.888,56.341,54.888Zm74.7-72.776-56.341-54.888,56.341-54.958,56.341,54.888Zm74.7-72.776-56.341-54.888,56.341-54.888,56.449,54.888Zm74.7-72.777-56.341-54.888,56.341-54.888,56.341,54.888Zm74.7-72.6-56.341-54.888,56.341-54.888,56.341,54.888Zm74.7-72.777-56.485-55.063,56.341-54.888,56.341,54.888Zm74.7-72.776-56.341-54.888,56.341-54.888,56.341,54.888Zm74.7-72.777-56.341-55.063,56.341-55.028,56.341,54.888Zm74.7-72.776-56.341-54.888,56.341-54.888,56.521,54.713Zm74.7-72.776-56.341-54.888,56.341-54.888,56.341,54.888Zm74.7-72.847-56.305-54.888,56.305-54.888,56.341,54.888Z" transform="translate(-695.813 -565.621)" fill="#da741d"/>
          <path id="Path_37" data-name="Path 37" d="M1945.52,912.306l-18.362-17.889-148.725,144.889-56.413-54.993L1870.71,839.424l-18.254-17.958L1703.73,966.425l-56.305-54.888,148.689-144.889-18.362-17.888L1629.027,893.648l-56.341-54.714,148.725-144.889-18.362-17.888L1554.324,821.046l-56.341-54.888,148.725-145.064-18.362-17.888L1479.621,748.1l-56.305-54.888,148.725-144.889-18.4-17.888L1404.954,675.319l-56.341-54.888,148.725-144.854-18.4-17.888L1330.215,602.577l-56.305-54.888L1422.6,402.8l-18.362-18.063L1255.512,529.626l-56.341-54.748L1347.9,329.988,1329.533,312.1,1180.809,456.989l-56.341-54.783,148.724-144.889-18.362-17.888L1106.106,384.317l-56.341-54.888,148.653-144.994-18.362-17.888L1031.4,311.366l-56.341-54.888,148.725-144.889L1105.425,93.7,956.7,238.659,807.975,93.77l-18.4,17.888L938.3,256.548,882,311.366,733.272,166.546,714.91,184.435,863.635,329.324l-56.341,54.888L658.569,239.323l-18.362,17.888L788.932,402.206l-56.341,54.888L583.866,312.2,565.5,330.093l148.76,144.784-56.341,54.888L509.163,384.737,490.8,402.625,639.526,547.514,583.185,602.4,434.532,457.653,416.1,475.576,564.823,620.465l-56.341,54.888L359.757,530.429l-18.47,17.888L490.012,693.207,433.779,748.1,285.054,603.206l-18.362,17.888L415.417,765.984l-56.2,54.888L210.351,675.982l-18.362,17.888L340.714,838.935l-56.341,54.714L135.648,748.759l-18.362,17.888L265.975,911.537,209.67,966.425,60.945,821.466,42.583,839.354,191.308,984.244,134.967,1039.2-13.758,894.312-32.12,912.306,116.6,1057.09-32.12,1201.98l18.362,17.783,148.725-144.889,56.341,54.888L42.583,1274.651l18.362,17.889L209.67,1147.79l56.305,54.853-148.689,144.89,18.362,17.888,148.725-144.855,56.341,54.853-148.725,144.89,18.362,17.888,148.868-144.89L415.56,1348.2,266.692,1493.086l18.362,17.889,148.725-144.89,56.341,54.888L341.288,1565.863l18.362,17.888,148.725-144.889,56.341,54.888L416.1,1638.639l18.434,17.854L583.257,1511.6l56.305,54.888L490.873,1711.38l18.362,17.889L657.96,1584.414l56.3,54.889L565.54,1784.192l18.362,17.889,148.724-144.889,56.341,54.888-148.725,144.89,18.362,17.888,148.689-144.994,56.341,54.888L714.91,1929.641l18.362,17.888L882,1802.64l56.341,54.888L789.577,2002.382l18.362,17.889,148.725-144.89,148.725,144.89,18.362-17.889L975.026,1857.493l56.341-54.888,148.725,144.89,18.362-17.889-148.725-144.889,56.377-54.854,148.725,144.889,18.362-17.889-148.724-144.889,56.341-54.853,148.724,144.855,18.362-17.889L1199.171,1639.2l56.341-54.854L1404.237,1729.2l18.362-17.889L1273.73,1566.526l56.341-54.888,148.868,144.854,18.4-17.888-148.761-144.89,56.341-54.888,148.725,144.89,18.4-17.889L1423.28,1420.974l56.341-54.888,148.725,144.89,18.362-17.889L1497.983,1348.2l56.341-54.888,148.725,144.89,18.362-17.888-148.725-144.89,56.341-54.888,148.725,144.89,18.362-17.888-148.689-144.89,56.305-54.888,148.725,144.89,18.362-17.889-148.8-144.889,56.305-54.888,148.832,144.785,18.362-17.889-148.689-144.889Zm-260.152,72.113-56.341,54.888-56.341-54.888,56.341-54.853Zm-710.307,0L1031.4,929.53l56.341,54.888-56.341,54.888Zm37.979,72.777L956.7,1111.978l-56.341-54.888L956.7,1002.2ZM956.7,966.425l-56.341-54.888L956.7,856.649l56.341,54.888Zm-18.362,17.888L882,1039.2l-56.341-54.888L882,929.425Zm-74.7,72.777-56.341,54.888-56.341-54.888,56.341-54.888ZM882,1074.978l56.341,54.888L882,1184.825l-56.341-54.888Zm74.7,72.812,56.341,54.853L956.7,1257.532l-56.341-54.888Zm18.362-17.923,56.341-54.888,56.341,54.888-56.341,54.958Zm74.7-72.776,56.341-54.888,56.449,54.888-56.341,54.888Zm74.7-72.777,56.341-54.853,56.341,54.853-56.341,54.888Zm-18.362-17.888-56.341-54.888,56.341-54.888,56.449,54.888Zm-74.7-72.776-56.341-54.714,56.341-54.888,56.341,54.888Zm-74.7-72.777-56.341-54.888L956.7,711.1l56.341,54.888Zm-18.362,18.063L882,893.823l-56.341-54.888L882,784.047Zm-74.7,72.776L807.294,966.6l-56.341-54.888,56.341-54.888Zm-74.7,72.776-56.341,54.888L676.25,984.313l56.341-54.888Zm-74.667,72.6-56.341,54.888-56.341-54.888,56.341-54.888Zm18.362,17.888,56.341,54.888-56.377,54.958-56.341-54.958Zm74.7,72.812,56.341,54.853-56.341,54.888-56.377-54.888Zm74.7,72.776,56.341,54.853-56.341,54.888-56.341-54.888Zm74.7,72.742,56.341,54.888L956.7,1403.085,900.359,1348.2ZM975.1,1275.42l56.341-54.888,56.341,54.888-56.341,54.888Zm74.7-72.777,56.341-54.888,56.413,54.888-56.341,54.888Zm74.7-72.776,56.341-54.888,56.341,54.888-56.377,54.958Zm74.7-72.777,56.341-54.888,56.341,54.888-56.341,54.888Zm74.524-72.777,56.341-54.888,56.341,54.888-56.341,54.888Zm-18.362-17.888-56.341-54.888,56.341-54.888,56.341,54.888Zm-74.7-72.776-56.2-54.714,56.341-54.888,56.341,54.888Zm-74.7-72.777-56.341-54.888,56.341-54.888,56.592,54.888ZM1031.4,748.1l-56.341-54.888,56.341-54.888,56.341,54.888Zm-74.7-72.777-56.341-54.888L956.7,565.542l56.341,54.888Zm-18.362,17.888L882,748.1l-56.341-54.888L882,638.319Zm-74.7,72.776-56.341,54.888-56.341-54.888L807.294,711.1Zm-74.7,72.951-56.341,54.888L676.25,838.935l56.341-54.888Zm-74.667,72.6-56.341,54.888-56.341-54.888,56.341-54.888Zm-74.739,72.777L583.221,1039.2,526.88,984.313l56.341-54.853Zm-74.667,72.777-56.341,54.888-56.341-54.888,56.341-54.888Zm18.362,17.888,56.341,54.888-56.377,54.958-56.341-54.888Zm74.7,72.811,56.341,54.853-56.341,54.888-56.377-54.888Zm74.7,72.776,56.341,54.854-56.341,54.888L676.25,1275.42Zm74.7,72.777,56.341,54.853-56.341,54.888L750.989,1348.2Zm74.7,72.742,56.341,54.889L882,1475.861l-56.341-54.888Zm74.7,72.777,56.341,54.888L956.7,1548.638l-56.341-54.888Zm18.362-17.888,56.341-54.889,56.341,54.889-56.377,54.888Zm74.7-72.777,56.341-54.888,56.413,54.888-56.341,54.888Zm74.7-72.777,56.341-54.888,56.341,54.888-56.341,54.888Zm74.7-72.777,56.341-54.888,56.341,54.888-56.341,54.888Zm74.524-72.777,56.341-54.888,56.341,54.888-56.2,54.958Zm74.7-72.776,56.341-54.888,56.341,54.888-56.341,54.888Zm74.7-72.777,56.341-54.888,56.341,54.888-56.341,54.888Zm-18.362-17.888-56.341-54.888,56.341-54.888,56.341,54.888Zm-74.7-72.776-56.162-54.714,56.305-54.853,56.341,54.853Zm-74.7-72.777-56.341-54.888,56.341-54.888,56.341,54.888ZM1180.809,748.1l-56.341-54.888,56.341-54.888,56.341,54.888Zm-74.7-72.777-56.341-54.888,56.341-54.888,56.449,54.888Zm-74.7-72.777-56.341-54.888,56.341-54.888,56.341,54.888Zm-74.7-72.776-56.341-54.888L956.7,419.989l56.341,54.888Zm-18.362,17.888L882,602.542l-56.341-54.888L882,492.766Zm-74.7,72.777-56.341,54.888-56.341-54.888,56.341-54.888Zm-74.7,72.776L732.591,748.1l-56.3-54.888,56.3-54.888Zm-74.667,72.777-56.341,54.888-56.341-54.888L657.924,711.1Zm-74.739,72.951-56.341,54.888-56.341-54.888,56.341-54.853Zm-74.7,72.776L508.482,966.6l-56.341-54.888,56.341-54.888Zm-74.7,72.6L433.779,1039.2l-56.341-54.888,56.341-54.853Zm-74.7,72.777-56.2,54.888-56.485-54.888,56.485-54.888Zm18.362,17.888,56.341,54.888-56.341,54.958-56.341-54.958Zm74.7,72.776,56.341,54.888-56.341,54.888-56.341-54.888Zm74.7,72.812,56.341,54.853-56.341,54.888-56.341-54.888Zm74.7,72.742,56.377,54.888-56.341,54.888L601.583,1348.2Zm74.7,72.812,56.341,54.854-56.341,54.888-56.3-54.888Zm74.7,72.742,56.341,54.888-56.341,54.888-56.341-54.888Zm74.7,72.777,56.341,54.888L882,1621.554l-56.341-54.888Zm74.7,72.812,56.341,54.853L956.7,1694.191,900.359,1639.3Zm18.362-17.923,56.341-54.888,56.341,54.888-56.341,55.028Zm74.7-72.776,56.341-54.888,56.449,54.888-56.305,54.888Zm74.7-72.776,56.341-54.888,56.341,54.888-56.341,54.888Zm74.7-72.777,56.341-54.888,56.341,54.888-56.341,54.888Zm74.739-72.777,56.305-54.853,56.341,54.853-56.341,54.888Zm74.667-72.777,56.341-54.853,56.341,54.853-56.341,54.888Zm74.7-72.776,56.341-54.888,56.341,54.888-56.341,54.958Zm74.7-72.776,56.341-54.888,56.521,54.888-56.341,54.853Zm112.862-145.554L1554.5,966.425l-56.341-54.888,56.341-54.888Zm-74.883-72.6-56.341,54.888-56.341-54.888,56.341-54.888Zm-74.7-72.777-56.341,54.888-56.305-54.888,56.341-54.853Zm-74.7-72.777L1330.215,748.1l-56.305-54.888,56.305-54.888Zm-74.7-72.776-56.341,54.888-56.341-54.888,56.341-54.888Zm-74.7-72.951-56.341,54.888-56.341-54.888,56.341-54.888Zm-74.6-72.777-56.341,54.888-56.449-54.888,56.341-54.853Zm-74.811-72.672L1031.4,457.094l-56.341-54.888,56.341-54.888ZM956.7,274.436l56.341,54.888L956.7,384.212l-56.341-54.888ZM882,347.213l56.341,54.993L882,457.094l-56.341-54.888Zm-74.7,72.777,56.341,54.888-56.341,54.888-56.341-54.888Zm-74.7,72.777,56.341,54.888-56.341,54.888L676.25,547.654Zm-74.7,72.777,56.377,54.888-56.341,54.888-56.341-54.888Zm-74.7,72.777,56.341,54.888L583.185,748.1l-56.341-54.888Zm-74.7,72.776,56.341,54.888-56.341,54.888-56.341-54.888Zm-74.7,72.812,56.341,55.028-56.341,54.714-56.341-54.714Zm-74.56,72.742,56.341,54.888-56.341,54.888-56.485-54.888Zm-74.847,72.777,56.341,54.888L284.373,1039.2l-56.341-54.888ZM153.329,1057.09,209.67,1002.2l56.305,54.888-56.305,54.888Zm74.7,72.776,56.341-54.888,56.341,54.888-56.341,54.958Zm74.7,72.777,56.485-54.888,56.2,54.888-56.2,54.888Zm74.7,72.777,56.341-54.888,56.341,54.888-56.341,54.888Zm74.7,72.777,56.341-54.888,56.341,54.888-56.341,54.888Zm74.7,72.777,56.341-54.888,56.341,54.888-56.341,54.888Zm74.7,72.776,56.341-54.888,56.377,54.888-56.341,54.888Zm74.7,72.776,56.341-54.888,56.341,54.888-56.341,55.028Zm74.7,72.777,56.341-54.888,56.341,54.888-56.341,54.888Zm74.7,72.777L882,1657.191l56.341,54.888L882,1766.968ZM956.7,1839.744l-56.341-54.888,56.341-54.993,56.341,54.888Zm74.7-72.777-56.341-54.888,56.341-54.888,56.341,54.888Zm74.7-72.776-56.341-54.888,56.341-54.853,56.449,54.854Zm74.7-72.637-56.341-54.888,56.341-54.888,56.341,54.888Zm74.7-72.776-56.341-54.888L1255.512,1439l56.341,54.888Zm74.7-72.776-56.484-55.028,56.341-54.888,56.341,54.888Zm74.7-72.776-56.341-54.888,56.341-54.888,56.341,54.888Zm74.7-72.777-56.341-55.028,56.341-54.888,56.341,54.888Zm74.7-72.776-56.341-55.028,56.341-54.888,56.521,54.888Zm74.7-72.847-56.341-54.888,56.341-54.888,56.341,54.888Zm74.7-72.777-56.305-54.888,56.305-54.888,56.341,54.888Z" transform="translate(-695.813 -572.704)" fill="#f6d184"/>
        </g>
        <path id="Path_39" data-name="Path 39" d="M227.68,230.8H192.57a21.72,21.72,0,0,0-17.409,8.381,20.528,20.528,0,0,0-3.392,18.627l239.207,797.048a21.671,21.671,0,0,0,41.565,0L517.993,836.7C361.737,721.754,249.341,496.821,227.68,230.8Z" transform="translate(-118.555 533.552)" fill="#e1892b" opacity="0.3"/>
        <g id="Group_21" data-name="Group 21" transform="translate(52.3 764.351)" clip-path="url(#clip-path)">
          <path id="Path_40" data-name="Path 40" d="M690.491,376.543a89.6,89.6,0,0,0-21.518-51.115c-37.19-42.66-90.519-70.261-141.731-93.67-75.1-34.309-166.082-76.375-250.4-60.793-64.554,11.914-104,54.364-105.4,118.79-1.506,67.536,33.891,170.988,85.247,218.295,25.1,23.269,66.06,32.458,99.305,39.865,6.993,1.537,14.7,2.97,23.024,4.3,20.586,24.457,16.246,66.627,32.851,93.774,14.776,24.107,49.24,19.111,62.33-3.04,11.656-19.81,1.363-51.884,21.2-67.431,21.984-17.225,26.431-3.075,30.376,16.246,7.711,37.768-24.459,126.9,44,125.778C628.807,716.6,599.363,599.9,603.2,567.8c4.2-34.938,38.3-55.657,58.278-88.045C680.019,449.7,693.97,411.621,690.491,376.543Z" transform="translate(-169.453 -388.351)" fill="#ecb55c" opacity="0.6"/>
        </g>
        <path id="Path_42" data-name="Path 42" d="M731.4,358.374C692.42,263.831,549.4,206.322,446.865,171.209c-12.8-4.367-25.1-8.385-36.258-12.124-96.831-31.968-245.268,20.264-253.732,131.648C146.69,424.757,267.226,504.137,386.4,530.55c6.957,1.572,14.7,3,23.024,4.332,20.586,24.457,16.21,66.627,32.851,93.774,14.74,24.107,49.24,19.111,62.294-3.074,11.691-19.775,1.363-51.849,21.2-67.4,21.984-17.225,26.467-3.11,30.412,16.246,7.675,37.768-24.459,126.861,43.968,125.778,56.951-.873,27.794-122.634,34.536-172.63C715.588,505.884,771.893,456.481,731.4,358.374Z" transform="translate(-156.272 331.56)" fill="#fdf9d6"/>
        <path id="Path_45" data-name="Path 45" d="M290.457,307.715a283.852,283.852,0,0,0-.251,47.341,7.338,7.338,0,0,1,.251-2.341c70.256-18.9,121.935-58.592,107.912-132.766C388.148,265.894,344.933,293.076,290.457,307.715Z" transform="translate(187.88 506.494)" fill="#f9f3c1"/>
        <path id="Path_46" data-name="Path 46" d="M556.1,433.552c-3.945-19.356-8.428-33.471-30.412-16.246-19.832,15.548-9.5,47.621-21.2,67.4-13.054,22.186-47.555,27.182-62.294,3.075-16.64-27.147-12.265-69.457-32.851-93.775-8.32-1.328-16.067-2.76-23.024-4.332C279.1,365.912,170.754,299.144,157.664,188.25c-.287,2.2-.61,4.367-.789,6.6C146.69,328.877,267.226,408.257,386.4,434.67c6.958,1.572,14.7,3,23.024,4.332,20.586,24.457,16.21,66.628,32.851,93.775,14.74,24.107,49.24,19.111,62.294-3.075,11.692-19.775,1.363-51.849,21.2-67.4,21.841-17.12,26.4-3.284,30.34,15.862C556.965,461.223,558.435,445.012,556.1,433.552Z" transform="translate(-156.272 427.439)" fill="#f9f3c1"/>
        <path id="Path_47" data-name="Path 47" d="M312.446,333.409c-30.125.454-40.776-16.6-43.861-39.026-2.582,39.655-4.949,84.76,43.861,84.027,36.4-.559,37.62-50.521,35.5-99.539C345.87,309.441,337.55,333.024,312.446,333.409Z" transform="translate(131.283 653.431)" fill="#f9f3c1"/>
        <path id="Path_57" data-name="Path 57" d="M264.324,48.637a80.6,80.6,0,0,0-6.814,14.6c31.775-2.865,64.769,33.646,80.692,59.186,13.27-26.518-4.3-79.659-26.79-104.116C295.13,16.668,278.418,24.425,264.324,48.637Z" transform="translate(105.563 3.113)" fill="#eea453"/>
        <g id="Group_22" data-name="Group 22" transform="translate(0 481.363)" clip-path="url(#clip-path-3)">
          <path id="Path_43" data-name="Path 43" d="M180.982,152.668a115.322,115.322,0,0,0-13.305,85.564c6.886,28.2,23.813,53.211,43.251,74.7a400.9,400.9,0,0,0,68.14,58.417,408.863,408.863,0,0,0,69,39.83,444.72,444.72,0,0,0,160.488,36.685,433.476,433.476,0,0,0,163.751-23.479c51.428-18.377,99.054-47.9,134.595-88.883,4.591-5.276,8.966-10.761,13.2-16.316a8.679,8.679,0,0,0-3.228-11.949,9.319,9.319,0,0,0-12.265,3.144c-30.771,40.7-73.663,71.2-121.11,91.014a403.585,403.585,0,0,1-152.705,29.418,435.713,435.713,0,0,1-155-27.042,413.142,413.142,0,0,1-132.694-83.4c-38.517-35.812-73.986-85.634-55.588-139.474a111.114,111.114,0,0,1,8.966-19.531c5.631-9.853-9.862-18.657-15.493-8.839Z" transform="translate(-134.689 -153.693)" fill="#ebd09b"/>
        </g>
        <path id="Path_48" data-name="Path 48" d="M434.262,126.95c-11.942-4.088-23.275-7.861-33.783-11.32C310.211,85.9,172.174,134.5,164.284,238.194c-9.468,124.765,102.748,198.659,213.6,223.256,106.55,23.618,397.292,24.038,321.227-160.3C662.818,213.143,529.694,159.617,434.262,126.95Z" transform="translate(-136.998 224.815)" fill="#eea453"/>
        <path id="Path_49" data-name="Path 49" d="M406.755,362.255C295.9,337.8,183.686,263.764,193.154,139a123.366,123.366,0,0,1,2.152-14.779,118.786,118.786,0,0,0-31.022,71.03c-9.468,124.765,102.748,198.659,213.6,223.256,92.1,20.4,321.872,23.479,333.277-95.207C644.348,383.882,480.92,378.676,406.755,362.255Z" transform="translate(-136.998 267.759)" fill="#eb912f"/>
        <g id="Group_23" data-name="Group 23" transform="translate(26.725 331.815)" clip-path="url(#clip-path-4)">
          <path id="Path_50" data-name="Path 50" d="M195.084,114.516A140.435,140.435,0,0,0,183,181.353a115.261,115.261,0,0,0,20.514,55.412,171.8,171.8,0,0,0,46.622,43.987,301.931,301.931,0,0,0,66.347,32.178,470.868,470.868,0,0,0,79.509,20.09,592.545,592.545,0,0,0,86.072,7.791,579.447,579.447,0,0,0,86.072-4.752,450.478,450.478,0,0,0,80.011-17.539,286.764,286.764,0,0,0,66.6-30.536A168.119,168.119,0,0,0,762.189,244a129.821,129.821,0,0,0,7.854-12.717c1.04-1.992-2.044-3.738-3.12-1.747a146.736,146.736,0,0,1-41.135,46.5,249.935,249.935,0,0,1-62.007,33.3,408.675,408.675,0,0,1-76.138,20.334,546.042,546.042,0,0,1-84.028,7.756,595.2,595.2,0,0,1-86.071-4.647,501.92,501.92,0,0,1-80.585-16.771,341.553,341.553,0,0,1-69.288-28.579,195.691,195.691,0,0,1-51.607-40.459,118.453,118.453,0,0,1-27.256-51.744,122.431,122.431,0,0,1,3.586-62.889,173.18,173.18,0,0,1,6.24-17.015c.861-2.061-2.618-2.97-3.586-.908Z" transform="translate(-114.657 -91.421)" fill="#fdf9d6"/>
        </g>
        <path id="Path_52" data-name="Path 52" d="M405.113,91.788c-10.042-3.494-19.617-6.6-28.475-9.538C300.608,57.2,184.3,98.147,177.669,185.493c-7.962,105.095,86.538,167.355,179.926,188.073,89.658,19.915,334.675,20.264,270.624-135.037C597.663,164.39,485.519,119.285,405.113,91.788Z" transform="translate(-102.148 144.96)" fill="#fdf9d6"/>
        <path id="Path_53" data-name="Path 53" d="M363.369,263.011C277.3,243.934,190.508,189.64,183.515,99.08a96.519,96.519,0,0,0-5.846,26.483c-7.962,105.095,86.538,167.355,179.926,188.073C441.3,332.189,659.85,333.691,637,207.878,599.671,281.982,433.84,278.453,363.369,263.011Z" transform="translate(-102.148 205.064)" fill="#f9f3c1"/>
        <g id="Group_24" data-name="Group 24" transform="translate(75.051 219.939)" clip-path="url(#clip-path-5)">
          <path id="Path_54" data-name="Path 54" d="M189.52,86.17c-2.941,34.379,2.9,69.667,21.231,99.574,16.533,27.042,41.888,47.97,70.292,62.5A308.987,308.987,0,0,0,378.3,277.736a457.657,457.657,0,0,0,105.976,2.725,387.037,387.037,0,0,0,93.746-19.286c3.192-1.153,6.384-2.341,9.54-3.494a8.754,8.754,0,1,0-4.77-16.84,298.375,298.375,0,0,1-40.633,12.683c-7.459,1.782-14.991,3.494-22.522,4.717-3.981.7-7.962,1.328-11.942,1.922l-5.63.8-1.578.21-3.048.384a458.684,458.684,0,0,1-101.744.874c-8.571-.908-14.668-1.747-23.706-3.494-8.249-1.4-16.461-3.109-24.566-5.1s-16.138-4.3-24.064-6.988-14.847-5.311-21.088-8.036a212.1,212.1,0,0,1-39.952-22.885l-1.112-.839-2.259-1.782-4.375-3.494q-4.268-3.669-8.284-7.651c-2.654-2.62-5.236-5.346-7.675-8.141q-1.721-1.991-3.335-3.983c-.646-.769,0,0,0,.21l-.753-.943c-.646-.839-1.291-1.677-1.9-2.551-19.079-25.819-26.79-55.133-26.252-86.647,0-4.717.359-9.4.753-13.975a8.888,8.888,0,0,0-8.966-8.735,9.065,9.065,0,0,0-8.966,8.735Z" transform="translate(-147.198 -68.941)" fill="#ebd09b"/>
        </g>
        <path id="Path_56" data-name="Path 56" d="M505.218,211.078a107.929,107.929,0,0,0-24.136-16.6C444.214,176,338.454,180.018,379.876,108.848c39.127-67.361,97.225-8,120.034,28.859,14.883-29.767-9.038-93.181-35.218-111.8C369.475-42.12,198.659,157.867,195.073,238.155c-5.882,141.221,247.2,162.149,322.482,80.009C548.755,284.1,536.275,239.308,505.218,211.078Z" transform="translate(-56.181 -12.028)" fill="#eea453"/>
        <path id="Path_58" data-name="Path 58" d="M241.3,158.112c1.4-32.842,30.806-85.669,71.726-132.032C249.872,78.208,196.973,158.811,195.073,203.113c-5.882,141.221,247.2,162.149,322.482,80.009a70.484,70.484,0,0,0,13.269-20.579c-55.766,29.155-143.714,31.68-208.148,5.325C274.195,248.039,239.064,211.761,241.3,158.112Z" transform="translate(-56.181 23.014)" fill="#eb912f"/>
        <g id="Group_25" data-name="Group 25" transform="translate(138.791 0)" clip-path="url(#clip-path-6)">
          <path id="Path_59" data-name="Path 59" d="M397.676,2.28A295.426,295.426,0,0,0,337.21,24.955a247.712,247.712,0,0,0-53.795,36.336,174.223,174.223,0,0,0-39.45,49.473,130.649,130.649,0,0,0-15.206,59.4,103.045,103.045,0,0,0,11.62,46.573,133.286,133.286,0,0,0,30.627,38.432,194.042,194.042,0,0,0,43.825,28.789A236.353,236.353,0,0,0,365.9,301.7a218.724,218.724,0,0,0,52.647,5.625,156.692,156.692,0,0,0,47.77-7.931c3.586-1.223,7.173-2.655,10.544-4.193,2.116-.943.287-3.983-1.793-3.04a137.077,137.077,0,0,1-45.223,11.11,205.148,205.148,0,0,1-50.675-2.446,234.482,234.482,0,0,1-50.962-14.674,204.38,204.38,0,0,1-44.793-25.47A144.313,144.313,0,0,1,249.6,225.326,103.147,103.147,0,0,1,233.207,182a117.289,117.289,0,0,1,8.141-56.6,157.666,157.666,0,0,1,33.819-51.464,226.477,226.477,0,0,1,50.208-38.677,286.636,286.636,0,0,1,58.78-25.54c4.806-1.467,9.647-2.83,14.525-4.053a1.8,1.8,0,0,0,1.309-2.219,1.863,1.863,0,0,0-2.277-1.275Z" transform="translate(-107.585 -36.758)" fill="#fdf9d6"/>
        </g>
      </g>
    </g>
  </g>
</svg>
