<svg xmlns="http://www.w3.org/2000/svg" xmlns:xlink="http://www.w3.org/1999/xlink" width="375" height="529" viewBox="0 0 375 529">
  <defs>
    <clipPath id="clip-path">
      <path id="Path_160" data-name="Path 160" d="M158.465,2.661A6.6,6.6,0,0,0,153.166,0H6.633A6.635,6.635,0,0,0,.267,8.5L73.51,259.024a6.635,6.635,0,0,0,12.731,0L159.484,8.5A6.623,6.623,0,0,0,158.465,2.661Z" transform="translate(0 0)" fill="none"/>
    </clipPath>
    <clipPath id="clip-path-3">
      <path id="Path_166" data-name="Path 166" d="M88.994,6.727c-3.927-1.372-7.655-2.649-11.113-3.81C48.188-7.129,2.774,9.283.183,44.3c-3.107,42.12,33.8,67.077,70.266,75.377,35.051,7.983,130.684,8.124,105.668-54.124C164.23,35.834,120.434,17.758,88.994,6.727Z" transform="translate(0 0)" fill="none"/>
    </clipPath>
    <clipPath id="clip-path-4">
      <path id="Path_173" data-name="Path 173" d="M82.841,6.242C79.183,4.964,75.713,3.78,72.5,2.725,44.859-6.653,2.576,8.657.172,41.246c-2.907,39.224,31.452,62.447,65.4,70.184,32.624,7.42,121.658,7.549,98.377-50.408C152.825,33.344,112.065,16.511,82.841,6.242Z" transform="translate(0 0)" fill="none"/>
    </clipPath>
    <clipPath id="clip-path-5">
      <path id="Path_177" data-name="Path 177" d="M69.813,5.276c-3.071-1.078-6-2.075-8.71-2.989C37.822-5.59,2.209,7.281.145,34.736-2.3,67.77,26.639,87.347,55.242,93.853c27.478,6.26,102.48,6.365,82.868-42.448C128.778,28.136,94.442,13.928,69.813,5.276Z" transform="translate(0 0)" fill="none"/>
    </clipPath>
    <clipPath id="clip-path-6">
      <path id="Path_182" data-name="Path 182" d="M95,62.641a33.444,33.444,0,0,0-7.4-5.217C76.3,51.564,43.921,52.876,56.6,30.463c11.992-21.1,29.776-2.485,36.774,9.05,4.56-9.378-2.778-29.307-10.785-35.168C53.428-16.991,1.063,45.866.031,71.164c-1.805,44.382,75.693,50.97,98.74,25.145C108.325,85.641,104.5,71.574,95,62.641Z" transform="translate(0 0)" fill="none"/>
    </clipPath>
    <clipPath id="clip-ice-cream-img-red">
      <rect width="375" height="529"/>
    </clipPath>
  </defs>
  <g id="ice-cream-img-red" clip-path="url(#clip-ice-cream-img-red)">
    <g id="ice-cream-img5" transform="translate(205.063 0) rotate(24)">
      <g id="Layer_1" data-name="Layer 1" transform="translate(0 0)">
        <path id="Path_157" data-name="Path 157" d="M158.465,2.661A6.6,6.6,0,0,0,153.166,0H6.633A6.635,6.635,0,0,0,.267,8.5L73.51,259.024a6.635,6.635,0,0,0,12.731,0L159.484,8.5A6.623,6.623,0,0,0,158.465,2.661Z" transform="translate(16.035 240.345)" fill="#ecb55c"/>
        <g id="Group_71" data-name="Group 71" transform="translate(16.035 240.345)" clip-path="url(#clip-path)">
          <path id="Path_158" data-name="Path 158" d="M605.593,257.254l-5.627-5.627-45.543,45.543-17.244-17.232,45.543-45.543-5.627-5.615L531.553,274.31,514.3,257.066l45.543-45.543-5.627-5.627L508.67,251.439l-17.244-17.221,45.543-45.543-5.627-5.627L485.8,228.592l-17.256-17.256,45.543-45.543-5.627-5.627-45.531,45.543-17.256-17.244,45.543-45.542-5.627-5.627-45.566,45.5-17.256-17.244L468.309,120l-5.627-5.627L417.139,159.92,399.93,142.665l45.531-45.543L439.835,91.5,394.3,137.038l-17.256-17.244L422.59,74.251l-5.627-5.627-45.543,45.543L354.177,96.911l45.531-45.566-5.627-5.615-45.5,45.554L331.329,74.04,376.872,28.5l-5.627-5.627L325.7,68.413,308.459,51.158,353.966,5.627,348.339,0,302.8,45.543,257.254,0l-5.627,5.627L297.17,51.158,279.914,68.414,234.371,22.871,228.756,28.5,274.287,74.04,257.043,91.284,211.5,45.754l-5.627,5.615,45.543,45.543-17.244,17.256L188.629,68.625,183,74.251l45.543,45.542-17.256,17.244L165.712,91.5l-5.627,5.627,45.543,45.542-17.244,17.256-45.507-45.542-5.627,5.627,45.543,45.531-17.256,17.256-45.543-45.542-5.627,5.627,45.543,45.542-17.244,17.244L97.122,160.132,91.5,165.758l45.543,45.531-17.244,17.256L74.275,183l-5.627,5.627,45.484,45.589-17.221,17.2L51.369,205.873,45.742,211.5l45.543,45.542L74.04,274.287,28.556,228.756l-5.627,5.627,45.484,45.554L51.158,297.17,5.627,251.627,0,257.254,45.543,302.8,0,348.327l5.627,5.627,45.531-45.531,17.256,17.232L22.871,371.21l5.627,5.627L74.04,331.294,91.284,348.55,45.742,394.092l5.627,5.615,45.543-45.531,17.221,17.2L68.624,416.963l5.627,5.627,45.543-45.543L137.038,394.3,91.5,439.834l5.627,5.627,45.543-45.543,17.256,17.256-45.543,45.543L120,468.344,165.536,422.8l17.256,17.244-45.543,45.543,5.627,5.627,45.543-45.543,17.244,17.244L160.12,508.459l5.627,5.627,45.543-45.542L228.533,485.8,183,531.341l5.627,5.627,45.531-45.542,17.256,17.244-45.543,45.578,5.627,5.627,45.543-45.543,17.244,17.256-45.531,45.531,5.615,5.627,45.543-45.531,17.256,17.244-45.543,45.507,5.627,5.627L302.8,560.109l45.543,45.542,5.627-5.627-45.543-45.542,17.244-17.244L371.21,582.78l5.627-5.627-45.543-45.543L348.585,514.3l45.531,45.542,5.627-5.627L354.212,508.67l17.244-17.244L417,536.968l5.627-5.627L377.083,485.8,394.3,468.543l45.543,45.542,5.627-5.615L399.93,462.916l17.256-17.244,45.543,45.543,5.627-5.627-45.543-45.543L440.022,422.8l45.542,45.542,5.627-5.627-45.542-45.543L462.9,399.918l45.531,45.543,5.627-5.627L468.52,394.3l17.256-17.256,45.543,45.542,5.627-5.627-45.519-45.589L508.67,354.13l45.543,45.531,5.627-5.615L514.3,348.5l17.256-17.256,45.542,45.543,5.627-5.627-45.543-45.507,17.244-17.244,45.542,45.542,5.627-5.627L560.05,302.8Zm-79.714,22.66L508.67,297.169l-17.244-17.232,17.244-17.256Zm-217.5,0L325.62,262.67l17.3,17.267-17.256,17.232ZM319.994,302.8,302.75,320.04,285.541,302.8,302.8,285.541ZM302.75,274.287l-17.256-17.244L302.75,239.8l17.244,17.244Zm-5.627,5.627-17.209,17.256L262.67,279.937l17.244-17.256ZM274.287,302.8,257.043,320.04,239.787,302.8l17.256-17.256Zm5.627,5.627,17.256,17.232-17.256,17.256L262.67,325.656ZM302.8,331.294,320.04,348.55,302.8,365.794,285.541,348.55Zm5.627-5.627,17.244-17.244,17.256,17.232-17.256,17.256ZM331.294,302.8l17.291-17.244L365.829,302.8,348.585,320.04Zm22.883-22.859,17.244-17.256,17.244,17.256-17.244,17.232Zm-5.627-5.627-17.256-17.256L348.585,239.8l17.244,17.244Zm-22.883-22.883-17.244-17.209,17.244-17.256,17.256,17.256ZM302.8,228.557,285.541,211.3,302.8,194.057,320.04,211.3Zm-5.627,5.627-17.256,17.244L262.67,234.219l17.244-17.256Zm-22.883,22.871L257.043,274.3l-17.256-17.244L257.043,239.8Zm-22.871,22.883L234.16,297.169l-17.244-17.232,17.244-17.244ZM228.533,302.8,211.289,320.04,194.045,302.8l17.244-17.256Zm5.627,5.627,17.256,17.232L234.16,342.911l-17.244-17.256Zm22.883,22.871,17.244,17.256-17.244,17.244L239.787,348.55Zm22.871,22.883,17.256,17.2L279.914,388.63,262.67,371.374ZM302.8,377.048l17.244,17.244L302.8,411.547,285.541,394.3Zm5.627-5.627,17.244-17.244,17.256,17.2-17.256,17.244Zm22.871-22.871,17.291-17.256,17.244,17.256-17.244,17.244Zm22.883-22.894,17.244-17.244,17.244,17.244-17.244,17.256Zm22.871-22.871L394.3,285.541,411.559,302.8,394.3,320.04Zm22.871-22.847,17.256-17.244,17.244,17.244-17.244,17.232Zm-5.627-5.627-17.244-17.244L394.3,239.8l17.244,17.244Zm-22.871-22.871-17.244-17.221,17.244-17.256,17.256,17.256Zm-22.836-22.894-17.256-17.256,17.256-17.244,17.244,17.244ZM325.7,205.662l-17.244-17.244L325.7,171.163l17.256,17.256Zm-22.871-22.871-17.256-17.244,17.256-17.256,17.244,17.244Zm-5.627,5.627-17.256,17.244L262.7,188.418l17.244-17.256Zm-22.883,22.871-17.244,17.256L239.8,211.289l17.244-17.244Zm-22.906,22.93L234.16,251.463l-17.244-17.244,17.256-17.256ZM228.533,257.09l-17.244,17.244L194.045,257.09l17.244-17.244Zm-22.871,22.848-17.244,17.232-17.256-17.232,17.256-17.256ZM182.791,302.8,165.536,320.04,148.292,302.8l17.244-17.256Zm5.627,5.627,17.244,17.232-17.244,17.256-17.256-17.256Zm22.871,22.871,17.244,17.256-17.244,17.244L194.045,348.55Zm22.871,22.883,17.256,17.2-17.244,17.3-17.256-17.3Zm22.883,22.871L274.287,394.3l-17.244,17.244L239.8,394.3Zm22.871,22.871,17.256,17.256-17.256,17.244L262.67,417.174ZM302.8,422.8l17.244,17.244L302.8,457.3l-17.256-17.256Zm5.627-5.627,17.244-17.256,17.256,17.256-17.256,17.244Zm22.871-22.883,17.291-17.244L365.829,394.3l-17.244,17.244Zm22.883-22.918,17.244-17.244,17.256,17.244L371.421,388.63ZM377.048,348.5,394.3,331.294l17.256,17.256L394.3,365.794Zm22.871-22.848,17.256-17.244,17.244,17.244-17.244,17.256ZM422.8,302.785l17.221-17.244L457.278,302.8,440.022,320.04Zm22.871-22.847,17.256-17.244,17.244,17.244-17.244,17.232Zm-5.627-5.627L422.8,257.066l17.221-17.279,17.256,17.256Zm-22.871-22.871L399.93,234.219l17.244-17.256,17.244,17.256ZM394.3,228.545l-17.256-17.256L394.3,194.045l17.244,17.244Zm-22.883-22.883-17.244-17.244,17.244-17.256,17.256,17.256Zm-22.836-22.871-17.256-17.256,17.256-17.244,17.244,17.256ZM325.7,159.92l-17.279-17.256,17.244-17.244,17.256,17.244ZM302.8,137.038l-17.256-17.244L302.8,102.538l17.244,17.256Zm-5.627,5.627-17.256,17.256L262.67,142.665l17.244-17.244Zm-22.883,22.883-17.244,17.244L239.8,165.547l17.244-17.256Zm-22.871,22.871-17.244,17.244-17.256-17.244,17.256-17.256Zm-22.871,22.871-17.256,17.256-17.244-17.256,17.244-17.244Zm-22.883,22.93-17.244,17.244-17.256-17.244,17.256-17.256ZM182.792,257.09l-17.256,17.244L148.292,257.09l17.244-17.244Zm-22.871,22.848-17.256,17.232-17.256-17.232,17.256-17.256ZM137.038,302.8,119.794,320.04,102.538,302.8l17.256-17.256Zm5.627,5.627,17.244,17.232-17.244,17.268-17.256-17.268Zm22.871,22.871,17.256,17.256-17.256,17.244L148.292,348.55Zm22.883,22.883,17.244,17.2-17.244,17.244-17.256-17.244Zm22.871,22.871L228.545,394.3l-17.256,17.244-17.244-17.256Zm22.883,22.871,17.244,17.256L234.16,434.418l-17.244-17.244ZM257.043,422.8l17.244,17.244L257.043,457.3l-17.256-17.256Zm22.871,22.871,17.256,17.244-17.256,17.256L262.67,462.916ZM302.8,468.543,320.04,485.8,302.8,503.043,285.541,485.8Zm5.627-5.627,17.244-17.244,17.256,17.244-17.256,17.256Zm22.871-22.871L348.585,422.8l17.244,17.244L348.585,457.3Zm22.883-22.871,17.244-17.256,17.244,17.256-17.244,17.244ZM377.048,394.3,394.3,377.048l17.244,17.244L394.3,411.547Zm22.883-22.93,17.244-17.244,17.244,17.244-17.244,17.244ZM422.8,348.5l17.221-17.209,17.256,17.256-17.256,17.244Zm22.871-22.848,17.256-17.244,17.244,17.244-17.244,17.256Zm22.871-22.871L485.8,285.529l17.256,17.256L485.8,320.029Zm34.512-45.718L485.8,274.31l-17.256-17.244L485.8,239.822Zm-22.883-22.847-17.244,17.244-17.256-17.244,17.256-17.256ZM457.3,211.336l-17.279,17.209-17.244-17.256,17.244-17.244ZM434.43,188.465l-17.256,17.244L399.93,188.418l17.244-17.256Zm-22.883-22.871-17.244,17.2-17.256-17.244L394.3,148.292Zm-22.871-22.93L371.421,159.92l-17.244-17.256,17.244-17.244Zm-22.883-22.871-17.209,17.244-17.256-17.244,17.256-17.256ZM342.923,96.911l-17.256,17.256L308.423,96.911l17.244-17.244ZM302.8,56.785,320.041,74.04,302.8,91.284,285.541,74.04ZM279.914,79.667,297.17,96.911l-17.256,17.256L262.67,96.911Zm-22.871,22.871,17.244,17.256-17.244,17.244L239.8,119.794Zm-22.871,22.883,17.244,17.244-17.244,17.256-17.256-17.256Zm-22.883,22.871,17.256,17.256-17.256,17.244-17.244-17.256Zm-22.871,22.871,17.256,17.256-17.256,17.244-17.256-17.244Zm-22.883,22.883,17.256,17.244-17.256,17.256-17.244-17.256Zm-22.871,22.871,17.256,17.3-17.256,17.2-17.256-17.2ZM119.794,239.8l17.244,17.244-17.244,17.244-17.256-17.244ZM96.911,262.67l17.221,17.267L96.911,297.17,79.667,279.937ZM56.785,302.8,74.04,285.541,91.284,302.8,74.04,320.04Zm22.883,22.859,17.244-17.232,17.221,17.232L96.911,342.923Zm22.871,22.883,17.256-17.256,17.244,17.256-17.244,17.256Zm22.871,22.836,17.256-17.244,17.256,17.244-17.256,17.3Zm22.883,22.883L165.536,377l17.256,17.244L165.536,411.5Zm22.871,22.871,17.256-17.256,17.256,17.256-17.256,17.256ZM194.045,440l17.244-17.244L228.533,440l-17.244,17.3Zm22.871,22.871,17.244-17.244,17.256,17.244L234.16,480.125Zm22.871,22.883L257.043,468.5l17.244,17.256L257.043,503Zm22.883,22.871,17.244-17.244,17.256,17.244-17.256,17.256ZM302.8,548.749l-17.256-17.244L302.8,514.25l17.244,17.256Zm22.871-22.871-17.244-17.256,17.244-17.244,17.256,17.244Zm22.918-22.836L331.329,485.8l17.256-17.256L365.829,485.8Zm22.871-22.871-17.244-17.256,17.244-17.244L388.7,462.916ZM394.3,457.3l-17.244-17.256L394.3,422.8l17.256,17.244Zm22.883-22.883L399.93,417.174l17.256-17.256,17.244,17.256Zm22.836-22.871-17.244-17.256,17.244-17.244L457.278,394.3ZM462.9,388.676l-17.232-17.3,17.256-17.244,17.244,17.244Zm22.871-22.883L468.52,348.55l17.256-17.256,17.256,17.256Zm22.871-22.871-17.221-17.267,17.244-17.244,17.256,17.244Zm22.883-22.883L514.3,302.8l17.256-17.256L548.808,302.8Z" transform="translate(-222.874 -147.436)" fill="#da741d"/>
          <path id="Path_159" data-name="Path 159" d="M605.593,257.242l-5.627-5.627-45.543,45.543-17.244-17.244,45.543-45.554-5.627-5.615-45.543,45.543L514.3,257.031l45.543-45.507-5.627-5.627L508.67,251.381l-17.244-17.244,45.543-45.543-5.627-5.627L485.8,228.51l-17.256-17.221,45.543-45.484-5.627-5.627-45.531,45.484-17.256-17.244,45.543-45.543-5.627-5.627-45.566,45.543-17.256-17.256L468.309,120l-5.627-5.627-45.507,45.566L399.93,142.665l45.531-45.542L439.835,91.5,394.3,137.038l-17.256-17.244L422.59,74.251l-5.627-5.627-45.543,45.6L354.177,96.97l45.531-45.542L394.081,45.8l-45.5,45.484L331.329,74.04,376.872,28.5l-5.627-5.627L325.7,68.413,308.423,51.158,353.966,5.627,348.339,0,302.8,45.543,257.254,0l-5.627,5.627L297.17,51.158,279.914,68.413,234.371,22.871,228.756,28.5,274.287,74.04,257.043,91.284,211.5,45.742l-5.627,5.627,45.543,45.543-17.244,17.314-45.542-45.6L183,74.251l45.543,45.543-17.256,17.244L165.712,91.5l-5.627,5.627,45.543,45.542-17.209,17.279-45.543-45.566L137.249,120l45.543,45.531-17.256,17.256-45.543-45.542-5.627,5.627,45.543,45.543-17.244,17.244L97.122,160.132,91.5,165.805l45.543,45.484-17.244,17.256L74.275,183l-5.627,5.627,45.484,45.543L96.911,251.381,51.369,205.873,45.742,211.5l45.543,45.543L74.04,274.3,28.556,228.756l-5.627,5.627,45.484,45.543L51.158,297.169,5.627,251.627,0,257.254,45.543,302.8,0,348.339l5.627,5.627,45.531-45.543,17.256,17.244L22.871,371.21l5.685,5.6L74.04,331.294,91.284,348.55,45.742,394.081l5.627,5.627,45.543-45.531,17.221,17.244L68.624,416.963l5.627,5.627,45.543-45.543,17.244,17.244L91.5,439.834l5.627,5.627,45.543-45.543,17.256,17.256-45.543,45.543L120,468.332,165.536,422.8l17.256,17.244-45.543,45.542,5.627,5.627,45.543-45.543,17.244,17.256L160.12,508.459l5.627,5.627,45.543-45.531,17.244,17.279L183,531.365l5.627,5.627,45.531-45.531L251.416,508.7l-45.543,45.543,5.627,5.627,45.543-45.543,17.244,17.221-45.531,45.531,5.615,5.627,45.543-45.543,17.256,17.256-45.543,45.543,5.627,5.627L302.8,560.05l45.543,45.542,5.627-5.627-45.542-45.542,17.244-17.256L371.21,582.71l5.627-5.615-45.543-45.543L348.585,514.3l45.531,45.543,5.627-5.627L354.212,508.67l17.244-17.244L417,536.968l5.627-5.627-45.578-45.507L394.3,468.555l45.543,45.531,5.627-5.627L399.93,462.928l17.256-17.256,45.543,45.543,5.627-5.627-45.543-45.543L440.022,422.8l45.542,45.542,5.627-5.627-45.542-45.543L462.9,399.918l45.531,45.543,5.627-5.627L468.52,394.292l17.256-17.244,45.543,45.542,5.627-5.627-45.519-45.543,17.244-17.256,45.543,45.543,5.627-5.627L514.3,348.538l17.256-17.244,45.542,45.519,5.627-5.627-45.543-45.543L554.423,308.4l45.542,45.543,5.627-5.627L560.05,302.773Zm-79.714,22.672-17.256,17.244-17.244-17.244,17.244-17.256Zm-217.5,0,17.244-17.256,17.256,17.256L325.62,297.158Zm11.617,22.871L302.75,320.029l-17.256-17.244,17.256-17.256Zm-17.244-28.5-17.256-17.256,17.256-17.244,17.244,17.244Zm-5.627,5.627-17.256,17.244-17.244-17.244,17.244-17.256ZM274.24,302.785,257,320.029,239.74,302.785,257,285.529Zm5.627,5.627,17.256,17.244-17.256,17.256-17.244-17.256Zm22.883,22.871,17.244,17.244-17.2,17.268L285.541,348.55Zm5.627-5.627,17.244-17.244,17.256,17.244L325.62,342.911Zm22.871-22.871,17.338-17.244L365.829,302.8,348.585,320.04Zm22.883-22.871,17.244-17.256,17.244,17.256-17.244,17.244Zm-5.627-5.627-17.256-17.256L348.585,239.8l17.244,17.244Zm-22.836-22.906-17.244-17.244,17.244-17.256,17.256,17.256ZM302.8,228.51l-17.256-17.221L302.8,194.045l17.244,17.244Zm-5.627,5.627-17.256,17.244L262.67,234.137l17.244-17.256Zm-22.883,22.871-17.244,17.256-17.256-17.256,17.256-17.256ZM251.416,279.89,234.16,297.134,216.916,279.89l17.244-17.256Zm-22.883,22.871-17.244,17.244-17.244-17.244,17.244-17.256Zm5.627,5.627,17.256,17.244L234.16,342.888l-17.244-17.256Zm22.883,22.871,17.244,17.256-17.244,17.279L239.787,348.55Zm22.871,22.883,17.256,17.244L279.914,388.63,262.67,371.421ZM302.8,377.012l17.244,17.244L302.8,411.512l-17.256-17.256Zm5.627-5.627,17.244-17.256,17.256,17.256L325.667,388.63ZM331.294,348.5l17.291-17.209,17.244,17.244-17.244,17.256Zm22.883-22.871,17.244-17.244,17.244,17.244-17.244,17.256Zm22.871-22.871L394.3,285.541,411.559,302.8,394.3,320.04Zm22.871-22.871,17.256-17.256,17.244,17.256-17.244,17.244Zm-5.627-5.627-17.244-17.256L394.3,239.8l17.244,17.244Zm-22.871-22.883-17.244-17.244,17.244-17.256,17.256,17.256Zm-22.836-22.836-17.291-17.256,17.291-17.244,17.244,17.244Zm-22.918-22.883-17.244-17.244,17.244-17.256,17.256,17.256ZM302.8,182.791l-17.256-17.256L302.8,148.292l17.244,17.244Zm-5.627,5.627-17.256,17.244L262.67,188.418l17.244-17.256Zm-22.883,22.871-17.244,17.256L239.8,211.289l17.244-17.244Zm-22.871,22.883L234.16,251.381l-17.244-17.244,17.256-17.221Zm-22.883,22.871L211.289,274.3l-17.244-17.256L211.289,239.8Zm-22.871,22.883-17.244,17.244-17.256-17.244,17.256-17.256ZM182.791,302.8,165.536,320.04,148.292,302.8l17.244-17.256Zm5.627,5.627,17.244,17.244-17.244,17.256-17.256-17.256Zm22.871,22.871,17.244,17.256-17.244,17.244L194.045,348.55Zm22.871,22.883,17.256,17.244-17.244,17.256-17.256-17.256Zm22.883,22.871,17.244,17.244-17.244,17.256L239.8,394.3Zm22.871,22.871,17.256,17.256-17.256,17.244L262.67,417.174ZM302.8,422.8l17.244,17.244L302.8,457.3l-17.256-17.256Zm5.627-5.627,17.244-17.256,17.256,17.256-17.256,17.244Zm22.871-22.883,17.291-17.244,17.244,17.244-17.244,17.256Zm22.883-22.871,17.244-17.256,17.256,17.256-17.256,17.244Zm22.871-22.883L394.3,331.294l17.256,17.256L394.3,365.794Zm22.871-22.871,17.256-17.244,17.244,17.244-17.244,17.256ZM422.8,302.8l17.221-17.256L457.278,302.8,440.022,320.04Zm22.871-22.871,17.256-17.256,17.244,17.256-17.244,17.244Zm-5.627-5.627L422.8,257.043l17.221-17.256,17.256,17.256Zm-22.871-22.918L399.93,234.172l17.244-17.256,17.244,17.256ZM394.3,228.545l-17.256-17.256L394.3,194.045l17.244,17.244Zm-22.883-22.883-17.244-17.244,17.244-17.256,17.256,17.256Zm-22.836-22.871-17.256-17.256,17.256-17.244,17.244,17.244Zm-22.918-22.847L308.423,142.7l17.244-17.244L342.923,142.7ZM302.8,137.073l-17.256-17.244L302.8,102.5l17.244,17.256ZM297.17,142.7l-17.256,17.244L262.67,142.688l17.244-17.244Zm-22.883,22.871-17.244,17.256L239.8,165.536l17.244-17.244Zm-22.871,22.883-17.244,17.209-17.256-17.244,17.256-17.256Zm-22.871,22.836-17.256,17.256-17.244-17.256,17.244-17.244Zm-22.883,22.883-17.244,17.209-17.256-17.244,17.256-17.256Zm-22.871,22.871L165.536,274.3l-17.244-17.256L165.536,239.8Zm-22.871,22.883-17.256,17.244-17.256-17.244,17.256-17.256ZM137.038,302.8,119.794,320.04,102.538,302.8l17.256-17.256Zm5.627,5.627,17.244,17.244-17.244,17.256-17.256-17.256Zm22.871,22.871,17.256,17.256-17.256,17.244-17.244-17.256Zm22.883,22.883,17.244,17.244-17.244,17.244-17.256-17.244Zm22.871,22.871L228.545,394.3l-17.256,17.244-17.244-17.256Zm22.883,22.871,17.244,17.256L234.16,434.418l-17.244-17.244ZM257.043,422.8l17.244,17.244L257.043,457.3l-17.256-17.256Zm22.871,22.871,17.256,17.256-17.256,17.244L262.67,462.916ZM302.8,468.555l17.244,17.279L302.8,503.078l-17.256-17.244Zm5.627-5.627,17.244-17.256,17.256,17.256-17.256,17.244Zm22.871-22.883L348.585,422.8l17.244,17.244L348.585,457.3Zm22.883-22.871,17.244-17.256,17.244,17.256-17.244,17.244Zm22.871-22.883L394.3,377.048l17.244,17.244L394.3,411.547Zm22.883-22.871,17.244-17.244,17.244,17.244-17.244,17.244ZM422.8,348.55l17.221-17.256,17.256,17.244-17.256,17.256Zm22.871-22.883,17.256-17.244,17.244,17.244-17.244,17.256ZM468.543,302.8,485.8,285.54,503.055,302.8,485.8,320.04Zm34.512-45.718L485.8,274.334l-17.256-17.256L485.8,239.834Zm-22.883-22.871-17.244,17.174-17.256-17.244,17.256-17.256ZM457.3,211.289l-17.279,17.256L422.8,211.289l17.221-17.244ZM434.43,188.418l-17.256,17.244L399.93,188.418l17.244-17.256Zm-22.883-22.883L394.3,182.791l-17.256-17.256L394.3,148.292Zm-22.871-22.871-17.256,17.279-17.244-17.256,17.244-17.256Zm-22.883-22.871-17.209,17.244-17.256-17.244L348.585,102.5ZM342.923,96.911l-17.256,17.314L308.423,96.97l17.244-17.244ZM302.8,56.785,320.04,74.04,302.8,91.284,285.541,74.04ZM279.914,79.667,297.17,96.911l-17.256,17.314L262.67,96.97ZM257.043,102.5l17.244,17.256L257.043,137,239.8,119.794Zm-22.871,22.918,17.244,17.244-17.244,17.279-17.256-17.256Zm-22.883,22.871,17.256,17.244-17.256,17.256-17.244-17.256Zm-22.871,22.871,17.256,17.256-17.256,17.244-17.256-17.244Zm-22.883,22.883,17.256,17.244-17.256,17.256-17.244-17.256Zm-22.871,22.871,17.256,17.256-17.256,17.209-17.256-17.209ZM119.794,239.8l17.244,17.244L119.794,274.3l-17.256-17.256ZM96.911,262.67l17.221,17.256L96.911,297.169,79.667,279.926ZM56.785,302.8,74.04,285.541,91.284,302.8,74.04,320.04Zm22.883,22.871,17.244-17.244,17.221,17.244L96.911,342.923Zm22.871,22.883,17.256-17.256,17.244,17.244-17.244,17.256Zm22.871,22.871,17.256-17.256,17.256,17.256-17.256,17.244Zm22.883,22.871,17.244-17.244,17.256,17.244-17.256,17.256Zm22.871,22.883,17.256-17.256,17.256,17.256-17.256,17.244Zm22.883,22.871L211.289,422.8l17.244,17.244L211.289,457.3Zm22.871,22.883,17.244-17.256,17.256,17.244L234.16,480.172Zm22.871,22.906,17.256-17.256,17.244,17.256-17.244,17.244ZM262.67,508.7l17.244-17.244L297.169,508.7l-17.256,17.221ZM302.8,548.831l-17.256-17.279L302.8,514.3l17.244,17.256Zm22.871-22.871L308.423,508.7l17.244-17.244L342.923,508.7Zm22.918-22.918-17.291-17.209,17.291-17.279,17.209,17.279Zm22.871-22.871-17.244-17.244,17.244-17.256L388.7,462.928ZM394.3,457.3l-17.244-17.256L394.3,422.8l17.256,17.244Zm22.883-22.883L399.93,417.174l17.256-17.256,17.244,17.256Zm22.836-22.871-17.244-17.256,17.244-17.244,17.256,17.244ZM462.9,388.665l-17.232-17.244,17.256-17.256,17.244,17.256Zm22.871-22.871L468.52,348.538l17.256-17.244,17.256,17.244Zm22.871-22.871L491.4,325.667l17.244-17.244L525.9,325.667Zm22.883-22.883L514.273,302.8l17.256-17.256L548.785,302.8Z" transform="translate(-222.874 -150.531)" fill="#f6d184"/>
        </g>
        <path id="Path_161" data-name="Path 161" d="M17.394,0H6.633A6.635,6.635,0,0,0,.267,8.5L73.51,259.024a6.635,6.635,0,0,0,12.731,0l20.046-68.566C58.435,154.294,24.017,83.594,17.394,0Z" transform="translate(16.082 240.381)" fill="#e1892b" opacity="0.3"/>
        <g id="Group_72" data-name="Group 72" transform="translate(16.035 240.345)" clip-path="url(#clip-path)">
          <path id="Path_162" data-name="Path 162" d="M158.961,65.678a28.474,28.474,0,0,0-6.623-16.06c-11.383-13.411-27.724-22.085-43.374-29.447C85.965,9.385,58.111-3.849,32.3,1.051,12.5,4.814.459,18.154.014,38.423-.443,59.664,10.4,92.183,26.12,107.047c7.737,7.315,20.233,10.21,30.409,12.52,2.134.492,4.5.95,7.034,1.36,6.3,7.655,4.959,20.948,10.058,29.471,4.513,7.585,15.075,6.014,19.085-.949,3.517-6.225.41-16.306,6.483-21.195,6.729-5.416,8.1-.973,9.308,5.111,2.345,11.863-7.491,39.857,13.469,39.552,18.076-.293,9.073-36.973,10.246-47.066,1.278-11.043,11.723-17.5,17.842-27.677C155.761,88.677,160.028,76.709,158.961,65.678Z" transform="translate(0.617 -69.382)" fill="#ecb55c"/>
        </g>
        <path id="Path_164" data-name="Path 164" d="M176.117,65.551c-11.934-29.717-55.73-47.793-87.123-58.824-3.927-1.372-7.655-2.649-11.113-3.81C48.188-7.129,2.774,9.283.183,44.3c-3.107,42.12,33.8,67.077,70.266,75.377,2.134.492,4.5.95,7.034,1.36,6.307,7.643,4.97,20.937,10.07,29.471,4.513,7.585,15.075,6.014,19.073-.961,3.517-6.213.422-16.295,6.494-21.183,6.729-5.416,8.1-.973,9.308,5.1,2.345,11.875-7.491,39.857,13.469,39.564,17.432-.281,8.511-38.556,10.55-54.264C171.287,111.938,188.52,96.417,176.117,65.551Z" transform="translate(0.047 151.384)" fill="#fdf9d6"/>
        <g id="Group_73" data-name="Group 73" transform="translate(0 151.407)" clip-path="url(#clip-path-3)">
          <path id="Path_165" data-name="Path 165" d="M5.026,1.389A37.314,37.314,0,0,0,.947,28.445C3.069,37.3,8.238,45.149,14.182,51.89A123.019,123.019,0,0,0,35,70.236,124.872,124.872,0,0,0,56.1,82.779a133.473,133.473,0,0,0,49.235,11.605,129.863,129.863,0,0,0,50.466-7.42C171.547,81.173,186.106,71.9,197,59.029c1.418-1.676,2.767-3.411,4.068-5.181a2.942,2.942,0,0,0-1.043-4.009,3,3,0,0,0-4.009,1.055c-9.378,12.743-22.449,22.273-36.915,28.5a120.346,120.346,0,0,1-46.891,9.273,130.029,130.029,0,0,1-47.266-8.429A125.432,125.432,0,0,1,24.4,54.094C12.623,42.934,1.756,27.331,7.347,10.5a35.17,35.17,0,0,1,2.743-6.1c1.84-3.294-3.224-6.26-5.064-2.966Z" transform="translate(9.037 -1.812)" fill="#f35c6e"/>
        </g>
        <path id="Path_167" data-name="Path 167" d="M.348,27.654A92.241,92.241,0,0,0,.254,42.495a2.237,2.237,0,0,1,.082-.739C21.847,35.824,37.661,23.34,33.382,0,30.264,14.513,17.029,23.058.348,27.654Z" transform="translate(146.181 228.365)" fill="#fdf9d6"/>
        <path id="Path_168" data-name="Path 168" d="M122.427,77.076c-1.172-6.072-2.579-10.55-9.308-5.1-6.072,4.888-2.919,14.97-6.494,21.195-4,6.963-14.56,8.534-19.073.95-5.1-8.522-3.763-21.816-10.07-29.471-2.544-.41-4.912-.867-7.034-1.348C37.626,55.823,4.439,34.84.43,0,.336.692.242,1.383.183,2.087c-3.107,42.119,33.8,67.077,70.266,75.377,2.134.492,4.5.95,7.034,1.36,6.307,7.643,4.97,20.937,10.07,29.471,4.513,7.585,15.075,6.014,19.073-.961,3.517-6.213.422-16.294,6.494-21.183,6.682-5.381,8.077-1.032,9.284,4.982C122.732,85.775,123.142,80.734,122.427,77.076Z" transform="translate(0.059 193.642)" fill="#fcf5ba" opacity="0.7"/>
        <path id="Path_169" data-name="Path 169" d="M13.788,17.139C4.551,17.279,1.3,11.922.342,4.877c-.785,12.461-1.5,26.634,13.446,26.411C24.925,31.1,25.3,15.415,24.655,0,24,9.613,21.419,17.01,13.788,17.139Z" transform="translate(122.167 293.144)" fill="#fcf5ba" opacity="0.7"/>
        <path id="Path_170" data-name="Path 170" d="M82.841,6.242C79.183,4.964,75.713,3.78,72.5,2.725,44.859-6.653,2.576,8.657.172,41.246c-2.907,39.224,31.452,62.447,65.4,70.184,32.624,7.42,121.658,7.549,98.377-50.408C152.825,33.344,112.065,16.511,82.841,6.242Z" transform="translate(8.24 104.416)" fill="#f35c6e"/>
        <path id="Path_171" data-name="Path 171" d="M74.412,74.861c-34-7.725-68.3-30.96-65.4-70.172A37.178,37.178,0,0,1,9.668,0a37.77,37.77,0,0,0-9.5,22.273C-2.735,61.5,31.624,84.72,65.573,92.457c28.2,6.412,98.564,7.373,102.058-29.928C147.175,81.6,97.166,79.972,74.412,74.861Z" transform="translate(8.24 123.318)" fill="#f35c6e"/>
        <g id="Group_74" data-name="Group 74" transform="translate(8.24 104.416)" clip-path="url(#clip-path-4)">
          <path id="Path_172" data-name="Path 172" d="M3.8.367A45.32,45.32,0,0,0,.091,21.4,36.738,36.738,0,0,0,6.375,38.84,53.092,53.092,0,0,0,20.688,52.685,91.437,91.437,0,0,0,40.992,62.8,140.776,140.776,0,0,0,65.34,69.12a176.276,176.276,0,0,0,26.388,2.45,171.98,171.98,0,0,0,26.329-1.5,135.222,135.222,0,0,0,24.524-5.533,87.266,87.266,0,0,0,20.4-9.613,51.766,51.766,0,0,0,14.536-13.844,40.4,40.4,0,0,0,2.4-3.986c.352-.668-.657-1.266-1.008-.6a45.718,45.718,0,0,1-12.59,14.618A76.08,76.08,0,0,1,147.34,61.571a122.392,122.392,0,0,1-23.316,6.389A163.128,163.128,0,0,1,98.3,70.4a178.183,178.183,0,0,1-26.341-1.454,150.363,150.363,0,0,1-24.676-5.275A102.364,102.364,0,0,1,26.08,54.678,60.149,60.149,0,0,1,10.267,42.005,37.372,37.372,0,0,1,1.932,25.758,39.306,39.306,0,0,1,3.01,6.052,53.678,53.678,0,0,1,4.921.707C5.214,0,4.077-.3,3.749.39Z" transform="translate(20.795 6.86)" fill="#fdf9d6"/>
        </g>
        <path id="Path_174" data-name="Path 174" d="M69.813,5.276c-3.071-1.078-6-2.075-8.71-2.989C37.822-5.59,2.209,7.281.145,34.736-2.3,67.77,26.639,87.347,55.242,93.853c27.478,6.26,102.48,6.365,82.868-42.448C128.778,28.136,94.442,13.928,69.813,5.276Z" transform="translate(23.003 69.228)" fill="#fdf9d6"/>
        <path id="Path_175" data-name="Path 175" d="M57.024,51.58C30.683,45.578,4.084,28.5,1.927,0A31.031,31.031,0,0,0,.145,8.323C-2.3,41.358,26.639,60.934,55.242,67.44c25.626,5.861,92.55,6.307,85.575-33.234C129.423,57.593,78.593,56.48,57.024,51.58Z" transform="translate(23.026 95.594)" fill="#fcf6bc" opacity="0.79"/>
        <g id="Group_75" data-name="Group 75" transform="translate(23.003 69.228)" clip-path="url(#clip-path-5)">
          <path id="Path_176" data-name="Path 176" d="M.217,3.024c-.891,10.832.9,21.957,6.53,31.393A54,54,0,0,0,28.211,54.065a93.135,93.135,0,0,0,29.963,9.378,136.487,136.487,0,0,0,32.507.856,115.841,115.841,0,0,0,28.826-6.037c.973-.352,1.934-.727,2.9-1.114a3.036,3.036,0,0,0,2.051-3.611,2.954,2.954,0,0,0-3.611-2.04,90,90,0,0,1-12.449,3.986c-2.251.563-4.525,1.043-6.811,1.465-1.172.223-2.415.422-3.622.61l-1.84.27h-.363l-1.008.129a136.349,136.349,0,0,1-30.995.281c-.645-.059-1.3-.141-1.958-.223l-.9-.105h0l-.6-.082c-1.29-.188-2.591-.387-3.869-.621q-3.833-.668-7.585-1.618c-2.462-.621-4.912-1.336-7.315-2.157s-4.56-1.665-6.483-2.532a64.949,64.949,0,0,1-12.227-7.186h.059l-.422-.34c-.211-.164-.422-.328-.621-.5A17.387,17.387,0,0,1,20.5,41.7c-.867-.762-1.7-1.547-2.52-2.345s-1.583-1.665-2.345-2.544c-.34-.4-.68-.809-1.008-1.231l-.176-.223-.094-.117-.551-.75A40.032,40.032,0,0,1,7.754,22.3,46.035,46.035,0,0,1,5.808,7.315c0-1.465.106-2.931.223-4.384A2.942,2.942,0,0,0,3.1,0,3,3,0,0,0,.17,2.931Z" transform="translate(12.53 2.393)" fill="#f35c6e"/>
        </g>
        <path id="Path_178" data-name="Path 178" d="M95,62.641a33.444,33.444,0,0,0-7.4-5.217C76.3,51.564,43.921,52.876,56.6,30.463c11.992-21.1,29.776-2.485,36.774,9.05,4.56-9.378-2.778-29.307-10.785-35.168C53.428-16.991,1.063,45.866.031,71.164c-1.805,44.382,75.693,50.97,98.74,25.145C108.325,85.641,104.5,71.574,95,62.641Z" transform="translate(42.565 0)" fill="#f35c6e"/>
        <path id="Path_179" data-name="Path 179" d="M2.051,9.6A25.237,25.237,0,0,0,0,14.192c9.73-.9,19.835,10.55,24.711,18.6C28.767,24.461,23.4,7.756,16.505.066,11.43-.45,6.365,1.989,2.051,9.6Z" transform="translate(111.267 6.764)" fill="#f35c6e"/>
        <path id="Path_180" data-name="Path 180" d="M14.18,41.5C14.6,31.182,23.558,14.536,36.1,0,16.794,16.412.594,41.721.031,55.647c-1.805,44.382,75.693,50.97,98.74,25.145a22.18,22.18,0,0,0,4.068-6.471C72.864,90.405,12.586,80.664,14.18,41.5Z" transform="translate(42.565 15.528)" fill="#f35c6e"/>
        <g id="Group_76" data-name="Group 76" transform="translate(42.565)" clip-path="url(#clip-path-6)">
          <path id="Path_181" data-name="Path 181" d="M51.756.056A82.762,82.762,0,0,0,16.518,18.742C7.034,27.487-.081,39.749,0,52.949.071,63.359,5.37,72.713,12.9,79.583A65.26,65.26,0,0,0,42.05,94.271c10.011,2.345,21.007,2.72,30.8-.774,1.078-.387,2.145-.821,3.189-1.3.68-.317.094-1.325-.6-1.008-9.073,4.208-19.741,4.4-29.447,2.7A66.6,66.6,0,0,1,16.682,81.247c-7.819-6.1-14.067-14.63-15.333-24.676C-.1,44.075,5.862,31.649,14.185,22.7c8.956-9.566,20.9-16.236,33.328-20.2,1.5-.481,3.024-.914,4.56-1.313A.607.607,0,1,0,51.756.021Z" transform="translate(37.051 -10.834)" fill="#fdf9d6"/>
        </g>
      </g>
    </g>
  </g>
</svg>
