<svg xmlns="http://www.w3.org/2000/svg" xmlns:xlink="http://www.w3.org/1999/xlink" width="42" height="76" viewBox="0 0 42 76">
  <defs>
    <clipPath id="clip-Artboard_1">
      <rect width="42" height="76"/>
    </clipPath>
  </defs>
  <g id="Artboard_1" data-name="Artboard – 1" clip-path="url(#clip-Artboard_1)">
    <g id="ice-cream-logo" transform="translate(0.036 -0.043)">
      <path id="Path_1" data-name="Path 1" d="M1309.6,1609.021a50.928,50.928,0,0,0-9.558-.088c-8.328.7-16.455,3.369-22.416,7.708,0,0-.005,0-.008.005q-.714.519-1.384,1.071c-1.747.823-3.83-1.393-1.437-3.589.192-.184.39-.366.59-.545,5.907-5.313,15.141-9.112,24.969-9.523a40.606,40.606,0,0,1,9.709.744C1312.185,1605.346,1312.787,1608.831,1309.6,1609.021Z" transform="translate(-1272.046 -1576.601)" fill="#ffa42c"/>
      <path id="Path_2" data-name="Path 2" d="M1404.047,1786.4l-7.675,38.385a4.03,4.03,0,0,1-7.13,1.686,4.394,4.394,0,0,1-.286-.427L1370.68,1795.1c6.05-4.974,14.812-8.032,23.809-8.785A50.936,50.936,0,0,1,1404.047,1786.4Z" transform="translate(-1366.49 -1753.981)" fill="#ffa42c"/>
      <g id="Group_1" data-name="Group 1" transform="translate(4.19 40.04)" opacity="0.6">
        <path id="Path_3" data-name="Path 3" d="M1395.719,2122.4a4.047,4.047,0,0,1-6.478.138,4.518,4.518,0,0,1-.286-.427l-18.276-30.947q.675-.555,1.392-1.076l18.212,30.84a4.517,4.517,0,0,0,.286.427A4.024,4.024,0,0,0,1395.719,2122.4Z" transform="translate(-1370.68 -2090.09)" fill="#fff"/>
      </g>
      <g id="Group_2" data-name="Group 2" transform="translate(1.673 36.981)" opacity="0.6">
        <path id="Path_4" data-name="Path 4" d="M1277.621,1975.353q-.714.519-1.384,1.071c-1.747.823-3.83-1.393-1.437-3.589.192-.184.39-.365.59-.545l.052.017C1273.754,1973.523,1275.933,1976.555,1277.621,1975.353Z" transform="translate(-1273.719 -1972.29)" fill="#fff"/>
      </g>
      <g id="Group_3" data-name="Group 3" transform="translate(22.751 27.422)" opacity="0.3">
        <path id="Path_5" data-name="Path 5" d="M2098.969,1609.011,2091.3,1647.4a3.967,3.967,0,0,1-3.317,3.188,3.89,3.89,0,0,1-2.311-1.465,4.791,4.791,0,0,0,2.405-4.083l2.6-32.991a2.267,2.267,0,0,1-1.573.838,3.853,3.853,0,0,1-1.3-.069h0l-.031-.008c2.427-1.934.374-4.2.306-6.617-.049-1.731,1.754-1.978,2.779-1.979l.375-.121q1.02-.042,2.047-.036a39.738,39.738,0,0,1,6.158.743C2101.554,1605.337,2102.156,1608.822,2098.969,1609.011Z" transform="translate(-2085.669 -1604.051)" fill="#ff6701"/>
      </g>
      <path id="Path_6" data-name="Path 6" d="M1255.26,1627.75a2.268,2.268,0,0,1-1.892-1.008c-.579-.862-.653-2.282.874-3.683a.533.533,0,0,1,.722.786c-.874.8-1.14,1.663-.71,2.3a1.227,1.227,0,0,0,1.5.435c8.1-6.626,21.3-10.066,33.661-8.773,1.007-.071,1.6-.519,1.672-1.262a1.856,1.856,0,0,0-1.35-1.9.533.533,0,1,1,.264-1.034,2.918,2.918,0,0,1,2.148,3.037,2.565,2.565,0,0,1-2.712,2.229.527.527,0,0,1-.088,0c-12.13-1.281-25.073,2.086-32.972,8.577a.525.525,0,0,1-.111.07A2.356,2.356,0,0,1,1255.26,1627.75Z" transform="translate(-1251.851 -1585.925)" fill="#ff6701"/>
      <path id="Path_7" data-name="Path 7" d="M1372.274,1818.726a4.458,4.458,0,0,1-3.882-2.247l-18.276-30.947a.533.533,0,0,1,.919-.543l18.276,30.948a3.494,3.494,0,0,0,6.435-1.092l7.673-38.384a.534.534,0,1,1,1.046.209l-7.673,38.384a4.473,4.473,0,0,1-3.71,3.6A4.845,4.845,0,0,1,1372.274,1818.726Z" transform="translate(-1346.387 -1744.146)" fill="#ff6701"/>
      <g id="Group_4" data-name="Group 4" transform="translate(7.51 31.878)" opacity="0.3">
        <path id="Path_8" data-name="Path 8" d="M1579.655,1848.146a24.663,24.663,0,0,0-8.3.159,26.881,26.881,0,0,0-7.842,2.833,30.13,30.13,0,0,0-6.714,4.992,26.591,26.591,0,0,0-4.995,6.709l-.239-.119a26.878,26.878,0,0,1,4.974-6.852,30.538,30.538,0,0,1,6.748-5.14,27.419,27.419,0,0,1,7.958-2.98,25.271,25.271,0,0,1,8.511-.262Z" transform="translate(-1550.185 -1845.386)" fill="#ff6701"/>
        <path id="Path_9" data-name="Path 9" d="M1683.53,2185.094a23.449,23.449,0,0,1,4.271-5.458,28.637,28.637,0,0,1,5.546-4.176,24.67,24.67,0,0,1,6.445-2.624,18.967,18.967,0,0,1,6.97-.424l-.093.661a18.329,18.329,0,0,0-6.747.315,24.2,24.2,0,0,0-6.344,2.479,28.219,28.219,0,0,0-5.524,4.035,23.126,23.126,0,0,0-4.29,5.322Z" transform="translate(-1678.729 -2161.967)" fill="#ff6701"/>
        <path id="Path_10" data-name="Path 10" d="M1808.06,2471.2a11.44,11.44,0,0,1,1.515-2.365,19.305,19.305,0,0,1,1.924-2.035,29.2,29.2,0,0,1,4.465-3.363,26.841,26.841,0,0,1,5.041-2.445,17.06,17.06,0,0,1,2.729-.73,10.161,10.161,0,0,1,2.86-.125l-.084.661a9.586,9.586,0,0,0-2.674.072,16.419,16.419,0,0,0-2.645.658,26.381,26.381,0,0,0-4.984,2.308,28.824,28.824,0,0,0-4.459,3.235,19.386,19.386,0,0,0-1.926,1.965,11.1,11.1,0,0,0-1.517,2.275Z" transform="translate(-1800.026 -2442.319)" fill="#ff6701"/>
        <path id="Path_11" data-name="Path 11" d="M1934.65,2775.683a22.433,22.433,0,0,1,5.849-5.711,17.122,17.122,0,0,1,3.677-1.879,11.232,11.232,0,0,1,4.108-.707l-.029.666a10.641,10.641,0,0,0-3.894.577,16.672,16.672,0,0,0-3.609,1.735,22.069,22.069,0,0,0-5.885,5.474Z" transform="translate(-1923.33 -2741.637)" fill="#ff6701"/>
        <path id="Path_12" data-name="Path 12" d="M2053.647,3023.177l-.361.048c-.118.018-.238.028-.355.052l-.35.069a3.487,3.487,0,0,0-.349.078c-.231.06-.465.111-.691.187l-.342.107c-.115.034-.225.082-.337.121a13.04,13.04,0,0,0-2.57,1.283,12.208,12.208,0,0,0-3.968,4.136l-.233-.13a12.568,12.568,0,0,1,3.942-4.395,13.54,13.54,0,0,1,2.625-1.423c.116-.046.23-.1.349-.139l.354-.124c.234-.088.478-.15.719-.222.12-.037.242-.066.365-.093l.368-.085c.123-.029.246-.044.37-.067l.364-.061Z" transform="translate(-2029.929 -2990.152)" fill="#ff6701"/>
        <path id="Path_13" data-name="Path 13" d="M1498.593,2343.57a28.863,28.863,0,0,1,7.045,1.282,41.457,41.457,0,0,1,6.65,2.674,40.2,40.2,0,0,1,6.117,3.755,25.933,25.933,0,0,1,2.736,2.354,16.678,16.678,0,0,1,1.218,1.35,10.757,10.757,0,0,1,1.021,1.536l-.593.306a10.191,10.191,0,0,0-.934-1.446,16.062,16.062,0,0,0-1.153-1.315,25.384,25.384,0,0,0-2.64-2.337,39.951,39.951,0,0,0-5.985-3.79,40.982,40.982,0,0,0-6.546-2.74,28.5,28.5,0,0,0-6.949-1.366Z" transform="translate(-1498.58 -2328.828)" fill="#ff6701"/>
        <path id="Path_14" data-name="Path 14" d="M1727.26,2731.64a28.678,28.678,0,0,1,5.1,1.208,25.266,25.266,0,0,1,4.778,2.181,22.106,22.106,0,0,1,4.188,3.193,19.781,19.781,0,0,1,3.26,4.161l-.58.331a19.131,19.131,0,0,0-3.081-4.09,21.521,21.521,0,0,0-4.029-3.2,26.551,26.551,0,0,0-9.676-3.523Z" transform="translate(-1721.285 -2706.824)" fill="#ff6701"/>
        <path id="Path_15" data-name="Path 15" d="M1912.473,3053.22a13.38,13.38,0,0,1,3.3.842,17.887,17.887,0,0,1,3.037,1.538,18.21,18.21,0,0,1,2.71,2.077,13.015,13.015,0,0,1,2.213,2.641l-.575.337a12.429,12.429,0,0,0-2.031-2.57,17.727,17.727,0,0,0-2.57-2.095,17.444,17.444,0,0,0-2.921-1.59,13.034,13.034,0,0,0-3.193-.917Z" transform="translate(-1901.696 -3020.056)" fill="#ff6701"/>
        <path id="Path_16" data-name="Path 16" d="M1514.906,2024.38a49.971,49.971,0,0,1,7.377,1.787,44.831,44.831,0,0,1,7.009,2.941,36.137,36.137,0,0,1,6.345,4.209,26.836,26.836,0,0,1,5.148,5.641l-.56.365a26.28,26.28,0,0,0-4.956-5.574,35.7,35.7,0,0,0-6.2-4.23,44.364,44.364,0,0,0-6.9-3,49.628,49.628,0,0,0-7.306-1.872Z" transform="translate(-1514.437 -2017.924)" fill="#ff6701"/>
        <path id="Path_17" data-name="Path 17" d="M2065.108,1878.45a30.788,30.788,0,0,1,3.764,1.9,28.382,28.382,0,0,1,3.458,2.426,31.457,31.457,0,0,1,5.717,6.213l-.551.378a30.885,30.885,0,0,0-5.468-6.234,27.844,27.844,0,0,0-3.349-2.471,30.377,30.377,0,0,0-3.679-1.969Z" transform="translate(-2050.296 -1875.782)" fill="#ff6701"/>
        <path id="Path_18" data-name="Path 18" d="M2402.035,1775.68a12.323,12.323,0,0,1,1.8,1.038,13.384,13.384,0,0,1,1.611,1.317,10.829,10.829,0,0,1,1.376,1.582l.3.435.266.458.13.231.11.242c.072.162.143.325.208.489l-.623.241c-.072-.148-.139-.3-.2-.448l-.1-.226-.114-.219-.225-.44-.26-.422a10.3,10.3,0,0,0-1.225-1.57,12.98,12.98,0,0,0-1.487-1.353,12.424,12.424,0,0,0-1.679-1.113Z" transform="translate(-2378.47 -1775.68)" fill="#ff6701"/>
      </g>
      <path id="Path_19" data-name="Path 19" d="M1531,581.146a13.008,13.008,0,0,0-7.133-1.334,39.028,39.028,0,0,0-15.806,5.068,6.149,6.149,0,0,1,3.4-8.276c4.506-2.224,5.346-5.374,2.314-6.109.163-.045.327-.088.491-.127,6.594-1.57,14.328,2.214,11.268,9.029A11.112,11.112,0,0,1,1531,581.146Z" transform="translate(-1499.801 -569.437)" fill="#ffec77"/>
      <path id="Path_20" data-name="Path 20" d="M1266.013,963.1a30.283,30.283,0,0,0-10.957-.18c-.135.029-.261.06-.38.095-2.591.731-1.255,2.484-.776,4.8a3.712,3.712,0,0,1-.064,1.849c-.808,2.62-4,2.087-4-.263,0-3.028-1.309-4.205-2.849-4.4a3.657,3.657,0,0,0-3.156,1.233c-2.275,2.521-1.23,5.418.736,7.663a2.2,2.2,0,0,1-.3,3.2c-1.281.951-3.411.4-3.695-2.534a12.79,12.79,0,0,0-.4-2.454,4.221,4.221,0,0,0-1.819-2.482c-2.625-1.621-5.1.987-7.6,2.8-3.92-2.457-2.16-8.443.986-11.116-2.142-3.842-.049-8.726,4.371-10.892l.156-.075a39.03,39.03,0,0,1,15.806-5.068,13.008,13.008,0,0,1,7.133,1.334,7.383,7.383,0,0,1,.6.455,5.292,5.292,0,0,1,2.02,3.931,5.828,5.828,0,0,1-.555,2.565c.075,0,.15,0,.225.005C1265.191,953.751,1269.268,958.453,1266.013,963.1Z" transform="translate(-1227.994 -934.901)" fill="#ffec77"/>
      <path id="Path_21" data-name="Path 21" d="M1351.242,953.566c-.005.021-.012.043-.019.064l-2.533-.067a44.293,44.293,0,0,0-27.2,7.748c-2.142-3.842-.049-8.726,4.371-10.892l.156-.075a39.029,39.029,0,0,1,15.806-5.068,13.008,13.008,0,0,1,7.133,1.334c.139.083.276.168.41.26.065.065.13.13.191.195a6.274,6.274,0,0,1,2.019,3.931A7.157,7.157,0,0,1,1351.242,953.566Z" transform="translate(-1317.75 -934.901)" fill="#ffec77"/>
      <g id="Group_5" data-name="Group 5" transform="translate(9.386 34.22)" opacity="0.6">
        <path id="Path_22" data-name="Path 22" d="M1577.226,1874.179c-1.272.5-2.948-.234-3.2-2.813a12.811,12.811,0,0,0-.4-2.454,4.221,4.221,0,0,0-1.819-2.482,3.436,3.436,0,0,0-.97-.417,3.2,3.2,0,0,1,2.5.417,4.221,4.221,0,0,1,1.819,2.482,12.753,12.753,0,0,1,.4,2.454A3.094,3.094,0,0,0,1577.226,1874.179Z" transform="translate(-1570.84 -1865.92)" fill="#fff"/>
      </g>
      <g id="Group_6" data-name="Group 6" transform="translate(0.499 0.578)" opacity="0.6">
        <path id="Path_23" data-name="Path 23" d="M1249.271,588.983a59.566,59.566,0,0,0-15,6.356,9.08,9.08,0,0,0-3.7,4.087,6.2,6.2,0,0,0,.927,6.931c-.26.2-.516.394-.775.58-3.92-2.457-2.159-8.443.987-11.116-2.167-3.885,0-8.839,4.526-10.967a6.149,6.149,0,0,1,3.4-8.276c4.505-2.224,5.346-5.374,2.314-6.109.162-.045.327-.088.491-.127a13.2,13.2,0,0,1,3.794-.331,13.015,13.015,0,0,0-2.262.331c-.164.039-.328.081-.491.127,3.032.736,2.192,3.885-2.314,6.109a6.085,6.085,0,0,0-3.746,7.132,1.572,1.572,0,0,1,.031.523c3.679-1.862,7.171-3.4,9.715-3.3a61.416,61.416,0,0,0-10.161,4.495,8.977,8.977,0,0,0-3.268,2.9,7.239,7.239,0,0,0-.831,6.8C1238.128,591.7,1243.548,589.456,1249.271,588.983Z" transform="translate(-1228.475 -569.989)" fill="#fff"/>
      </g>
      <g id="Group_7" data-name="Group 7" transform="translate(19.327 30.073)" opacity="0.6">
        <path id="Path_24" data-name="Path 24" d="M1958.974,1712.443a1.915,1.915,0,0,1-2.679-1.851c0-2.805-1.123-4.024-2.514-4.342a3.4,3.4,0,0,1,1.2-.061c1.541.2,2.849,1.376,2.849,4.4A1.93,1.93,0,0,0,1958.974,1712.443Z" transform="translate(-1953.78 -1706.161)" fill="#fff"/>
      </g>
      <path id="Path_25" data-name="Path 25" d="M1222.928,592.479a2.55,2.55,0,0,1-1.036-.218c-.627-.278-1.709-1.067-1.918-3.223a12.4,12.4,0,0,0-.384-2.362,3.668,3.668,0,0,0-1.583-2.17c-1.893-1.168-3.794.3-5.805,1.862-.394.305-.8.621-1.206.913a.533.533,0,0,1-.6.02,5.256,5.256,0,0,1-2.486-4.252A9.9,9.9,0,0,1,1211,575.61a7.41,7.41,0,0,1-.331-5.537,9.815,9.815,0,0,1,4.86-5.577,6.837,6.837,0,0,1,.145-4.96,7.013,7.013,0,0,1,3.686-3.533c2.771-1.369,3.9-2.972,3.793-3.953-.078-.695-.792-1.011-1.378-1.153a.533.533,0,0,1-.018-1.032c4.39-1.236,9.3-.133,11.676,2.622a6.117,6.117,0,0,1,.989,6.331c3.219.394,5.835,1.831,7.081,3.918a5.558,5.558,0,0,1,.452,4.766,7.047,7.047,0,0,1,5,3.673,6.186,6.186,0,0,1-.576,6.654.534.534,0,0,1-.549.216,29.922,29.922,0,0,0-10.747-.177,2.094,2.094,0,0,0-1.382.7c-.252.428-.02,1.186.248,2.064.138.451.294.962.405,1.5a4.251,4.251,0,0,1-.078,2.113,2.706,2.706,0,0,1-2.97,2.093,2.455,2.455,0,0,1-2.075-2.513c0-1.628-.414-3.621-2.384-3.874a3.126,3.126,0,0,0-2.691,1.06c-2.363,2.617-.55,5.48.741,6.954a2.783,2.783,0,0,1,.671,2.123,2.641,2.641,0,0,1-1.056,1.862A2.671,2.671,0,0,1,1222.928,592.479Zm-6.346-9.471a3.712,3.712,0,0,1,1.984.588,4.733,4.733,0,0,1,2.052,2.795,13.418,13.418,0,0,1,.419,2.556,2.653,2.653,0,0,0,1.287,2.339,1.541,1.541,0,0,0,1.558-.193,1.583,1.583,0,0,0,.631-1.119,1.713,1.713,0,0,0-.412-1.307c-2.593-2.962-2.86-6.013-.731-8.372a4.192,4.192,0,0,1,3.619-1.4c1.238.159,3.315,1.01,3.315,4.932a1.374,1.374,0,0,0,1.166,1.458,1.652,1.652,0,0,0,1.791-1.353,3.207,3.207,0,0,0,.052-1.583c-.1-.489-.243-.955-.381-1.4-.327-1.071-.636-2.083-.147-2.916a2.953,2.953,0,0,1,2.093-1.2l.033-.006a31.217,31.217,0,0,1,10.793.112,5.1,5.1,0,0,0,.312-5.259,5.857,5.857,0,0,0-4.818-3.155.534.534,0,0,1-.487-.753,4.678,4.678,0,0,0-.121-4.478c-1.158-1.942-3.762-3.24-6.964-3.47a.534.534,0,0,1-.45-.749c1.012-2.255.823-4.288-.548-5.878-1.831-2.123-5.562-3.141-9.118-2.605a2.1,2.1,0,0,1,.707,1.355c.185,1.677-1.5,3.6-4.391,5.032l-.02.009a5.625,5.625,0,0,0-3.115,7.6.533.533,0,0,1-.271.675,8.821,8.821,0,0,0-4.732,5.154,6.326,6.326,0,0,0,.445,5.072.533.533,0,0,1-.12.666,8.9,8.9,0,0,0-3.035,6.832,4.277,4.277,0,0,0,1.693,3.224c.293-.219.589-.448.877-.671,1.547-1.2,3.245-2.515,5.036-2.515Z" transform="translate(-1207.93 -549.32)" fill="#ff6701"/>
      <g id="Group_8" data-name="Group 8" transform="translate(9.763 9.287)" opacity="0.3">
        <path id="Path_26" data-name="Path 26" d="M1587.452,909.463c-.182-3.89,4.522-5.8,4.791-1.79-2.391,2.126-3.151,4.935-1.3,8.837l-4.268,1.7A6.586,6.586,0,0,1,1587.452,909.463Z" transform="translate(-1585.375 -905.447)" fill="#fff"/>
      </g>
      <g id="Group_9" data-name="Group 9" transform="translate(8.008 21.685)" opacity="0.3">
        <path id="Path_27" data-name="Path 27" d="M1518.228,1384.91l4.087-1.86a7.47,7.47,0,0,0-.481,4.631,3.273,3.273,0,0,1-.738,3.177,1.592,1.592,0,0,1-1.956.445,2.312,2.312,0,0,1-1.3-1.825A10.275,10.275,0,0,1,1518.228,1384.91Z" transform="translate(-1517.744 -1383.05)" fill="#fff"/>
      </g>
      <path id="Path_28" data-name="Path 28" d="M1754.128,1616.2a10.855,10.855,0,0,1,.788-2.042,7.7,7.7,0,0,1,1.262-1.805,5.89,5.89,0,0,1,1.787-1.292,6.228,6.228,0,0,1,2.107-.542.229.229,0,0,1,.055.453h-.006a5.71,5.71,0,0,0-1.881.632,5.2,5.2,0,0,0-1.493,1.255,6.893,6.893,0,0,0-1,1.688,9.884,9.884,0,0,0-.578,1.9h0a.534.534,0,0,1-1.046-.212C1754.121,1616.229,1754.124,1616.216,1754.128,1616.2Z" transform="translate(-1739.963 -1582.932)" fill="#ff6701"/>
      <path id="Path_29" data-name="Path 29" d="M1336.043,1261.372a45.385,45.385,0,0,1,6.295-3.625,43.059,43.059,0,0,1,6.807-2.538c.58-.178,1.173-.306,1.761-.453.294-.072.589-.145.886-.2l.89-.184.445-.093c.149-.028.3-.052.448-.078l.9-.148c.15-.023.3-.052.449-.07l.452-.049c.3-.033.6-.066.9-.093a43.31,43.31,0,0,1,7.241-.032.2.2,0,0,1-.012.4,62.5,62.5,0,0,0-7.128.54c-.586.1-1.177.154-1.762.26l-.879.138c-.146.023-.294.043-.44.068l-.437.085c-.581.118-1.168.216-1.741.368s-1.156.269-1.723.443a42.118,42.118,0,0,0-6.66,2.483,44.437,44.437,0,0,0-6.163,3.549h0a.467.467,0,0,1-.528-.77Z" transform="translate(-1332.571 -1235.345)" fill="#ff6701"/>
      <path id="Path_30" data-name="Path 30" d="M1508.837,944.605c.623-.375,1.239-.7,1.871-1.024q.474-.236.951-.464c.321-.146.639-.3.962-.439l.972-.415.981-.394c.659-.25,1.317-.505,1.991-.714.668-.227,1.357-.387,2.038-.568l1.034-.226c.172-.036.344-.076.517-.109l.521-.089a29.7,29.7,0,0,1,4.2-.428.2.2,0,0,1,.04.4l-.01,0q-.515.083-1.027.159l-.513.078c-.171.029-.34.068-.51.1l-1.017.2c-.338.075-.672.161-1.008.24l-.5.118c-.167.043-.333.092-.5.137l-1,.276c-.657.211-1.316.408-1.967.635-.327.107-.656.208-.979.329s-.651.225-.974.347l-.962.377-.951.406c-.316.138-.627.286-.941.429s-.621.3-.928.453c-.611.311-1.227.64-1.8.983l-.012.007a.467.467,0,1,1-.481-.8Z" transform="translate(-1500.82 -929.558)" fill="#ff6701"/>
      <g id="Group_10" data-name="Group 10" transform="translate(14.361 0.599)" opacity="0.3">
        <path id="Path_31" data-name="Path 31" d="M1784.776,598.134a28.182,28.182,0,0,0-5.166-.329,35.534,35.534,0,0,0-4.449.4c-.135.029-.261.06-.38.095q.134-.136.256-.279c2.922-3.425-.078-8.873-3.9-8.873l-.584.107-2.6.477a5.506,5.506,0,0,0,.427-.356,4.672,4.672,0,0,0-1.554-7.84l1.762-.365c3.212-5.646-1.242-10.25-6.126-9.932l.105-.127a13.17,13.17,0,0,1,2.271-.332h0c5.348.3,9.962,3.836,7.481,9.361,5.77.415,9.574,4.169,7.534,8.7C1783.552,588.841,1787.777,593.472,1784.776,598.134Z" transform="translate(-1762.46 -570.78)" fill="#ff6701"/>
      </g>
      <g id="Group_11" data-name="Group 11" transform="translate(14.802 30.212)" opacity="0.3">
        <path id="Path_32" data-name="Path 32" d="M1784.361,1711.62s-3.3.991-2.31,4.065l-.63.208a4.154,4.154,0,0,0,1.54,2.8c1.484,1.234,2.074,4.326-1.89,5.1,1.106-.915,1.428-2.48.031-4.021C1777.935,1716.549,1779.469,1710.653,1784.361,1711.62Z" transform="translate(-1779.446 -1711.514)" fill="#ff6701"/>
      </g>
    </g>
  </g>
</svg>
